<svg xmlns="http://www.w3.org/2000/svg" xmlns:xlink="http://www.w3.org/1999/xlink" viewBox="0 0 768 768">
  <g id="Layer_3" data-name="Layer 3" style="isolation: isolate">
    <path d="M161.25,466.5c.15,8-2.82,10.29-5.25,15L152.25,495c-2.46,5.57-7.21,11.41-10.5,16.5-2,3.12-2,10.13-5.25,12-1.78,1.43-4.12,1.54-7.5,1.5-5-7.63-14.72-5.66-15-18.75h.75c2.83-8,16.32-8.76,20.25-18,2.07-2.86,2.05-11.39,0-14.25-1.69-4.56-5.46-4.38-8.25-7.5l-1.5-5.25c-2-1.5-5.08.08-6.75-1.5-12.51-11.8-12.38-30.81-6-48H114c1.36,2.2,3.56,4.93,4.5,7.5V423l8.25,6,2.25,6c3.53,5.38,9.75,9.19,13.5,14.25.82,1.11.57,2.79,1.5,3.75,3.53,3.63,10.95,4.5,12,10.5-1,1.53-.51,2.12,0,3.75A26.82,26.82,0,0,1,161.25,466.5Z" fill="none" fill-rule="evenodd"/>
    <path d="M478.5,581.25c11.94-.08,20.62,7.85,30,11.25,7.47,2.71,14.88,1.28,15,11.25,1.63,2.18,4.29,10.74,3.75,12-3.48,9.34-21.71,11-26.25,21.75-2.6,6.16-5.4,28.59-3,38.25.68,2.76,3.57,5.92,2.25,10.5-.42,1.45-1.79,3.84-2.25,6-6.79,4.61-7.59,8.37-20.25,8.25-6.95-9.73-10.9-12-9.75-26.25a54.2,54.2,0,0,0,7.5-6c-.05-14.85,1.32-24.25.75-36-3.65-2.23-8.95-4.51-12-7.5-1.41-1.38-4.16-6.81-5.25-7.5h-4.5c-1.74-.77-3.82-3.24-5.25-4.5l1.5-7.5c-.45-2.32-2.25-4.16-1.5-6C452,592.12,472.42,587.52,478.5,581.25Z" fill="none" fill-rule="evenodd"/>
  </g>
  <g id="shadow_Billede" data-name="shadow Billede">
    <image id="shadow_Billede-2" data-name="shadow Billede" width="580" height="390" transform="translate(166.5 237.75) scale(0.75)" xlink:href="bathfeet_21.png"/>
  </g>
</svg>
