<svg xmlns="http://www.w3.org/2000/svg" xmlns:xlink="http://www.w3.org/1999/xlink" viewBox="0 0 1024 1024">
  <g id="tub" style="isolation: isolate">
    <path d="M272,358c36.7-.38,83.32-3.62,114,4h20c4.5,1.12,14.62,2.83,19,4h15c10.6,2.64,25.65,3.42,36,6,9.68,2.41,17.06-.3,26,2,32.38,8.32,69.71,9.2,101,18l20,2c9.57,2.46,22.43,5.31,32,8,6.53,1.83,10.49.11,17,2,53.28,15.44,110.27,24.51,160,43,33.75,12.55,63.86,23.32,91,42,4,2.76,7.12,8.07,11,11,17.87,13.52,32.18,37.31,23,68C920.18,691.08,826.57,793.23,714,841c-35.66,15.13-63.26,30-116,30l-31-1c-20.45-4.86-42-8.41-60-14-6.59-2-11.81-1.29-18-4-28.18-12.34-58.5-20.29-86-34-45.25-22.56-90.27-44.8-133-70-4.78-2.82-8.51-9.2-13-12-9-5.59-17.32-10.06-26-16s-15.76-14.86-24-21l-7-4c-8.63-10.13-12-21.75-19-34l-4-3-2-8c-8-13.23-15-29.66-22-44-4.49-9.14-4.68-18.7-9-28-1.43-3.07-5.75-8-7-11q-.5-5.5-1-11c-4.95-15.27-11-32.48-16-48q-.5-6-1-12l-3-2c-2.24-5.15-2.83-12.63-4-17-2.46-9.2,2.62-20.56,0-28-.76-2.17-3.89-3.28-5-5-4.45-6.88-5.38-24.49-1-31,19.48-28.95,74.6-39,114-49,9.44-2.39,19.77-2,28-4S266.31,362,272,358Z" fill="none" fill-rule="evenodd"/>
    <path d="M498,408c-2.52,2.64-5.36,5.48-8,8-.16,5.11-1.17,14.71,1,18,1.44,4.51,4.16,5.13,7,8,3.87.15,9.72.54,12-1,6.19-1.88,9.86-8,10-16-2.1-3.2-2.61-9.53-4-13C511,409.1,506.63,407.92,498,408Z" fill="none" fill-rule="evenodd"/>
  </g>
  <g id="silverthing" style="isolation: isolate">
    <path d="M496,410c4.62-1.81,8.84-2.54,14-1,4.3,2.08,8.6,5.74,10,11,3.49,12.27-6.06,22.14-11,22-5.31.32-9.44.38-11.91-.84-2.73-1-10-6.23-8.09-21.16C489.58,417.2,492.4,412,496,410Z" fill="none" fill-rule="evenodd"/>
  </g>
  <g id="shadow_Billede" data-name="shadow Billede">
    <image id="shadow_Billede-2" data-name="shadow Billede" width="860" height="517" transform="translate(100 355)" xlink:href="bathtub1.png"/>
  </g>
</svg>
