<svg xmlns="http://www.w3.org/2000/svg" xmlns:xlink="http://www.w3.org/1999/xlink" viewBox="0 0 1024 1024">
  <g id="feet1" style="isolation: isolate">
    <path d="M171.47,657.77c11.72,2.44,21.19,11.83,30.11,17.69,3.17,2.08,7.93,2.87,10,5.9,3.31,4.76,4.22,11.45,7.17,16.23,2.39,3.87,9.45,9.36,10,14-2.46,2.1-1.55,4.66-2.87,8.11-1.18,3.06-4.16,6.63-5,9.58-1.15,4,2.06,11.47,2.15,18.44-6.1,4.38-22.58,25.44-35.13,17-12-3.45-18.81-19.69-13.62-36.13,1.14-3.63,4.6-6.22,5.73-9.59l1.44-13.27c4.56-20.13,2.2-31.06-10-42.77Z" fill="none" fill-rule="evenodd"/>
    <path d="M569.41,839.9a282.41,282.41,0,0,1,33,8.11l12.19.74c11.11,4.2,19.68,6,19.36,22.12-1.78,2.46-1.27,5.93-2.86,8.85l-3.59,2.95c-1.54,2.67-.74,5.06-2.15,8.11l-2.15,1.48c-2.1,5.22.41,17.53,1.43,20.65,3,9.1-4.48,26.87-8.6,28.75h-5.74c-6.32,5.68-24.73-.44-28-3.68-13.09-13.12-5.43-26.89-1.44-42.77,1.23-4.89-1-15-2.15-19.17V865.71c-1.06-3-3.08-8.89-5-11.8-2.52-3.8-7.79-2.21-8.6-8.11.58-.87.55-1.24.72-2.95A17.53,17.53,0,0,0,569.41,839.9Z" fill="none" fill-rule="evenodd"/>
  </g>
  <g id="shadow_Billede" data-name="shadow Billede">
    <image id="shadow_Billede-2" data-name="shadow Billede" width="689" height="394" transform="translate(164.4 655.66) scale(0.72 0.74)" xlink:href="bathtubfeet_11.png"/>
  </g>
</svg>
