<svg xmlns="http://www.w3.org/2000/svg" xmlns:xlink="http://www.w3.org/1999/xlink" viewBox="0 0 1024 1024">
  <g id="bathfeet_2" style="isolation: isolate">
    <path d="M247,731.32c.63,8.06-2.49,10.5-4.89,15.37l-3.33,13.78c-2.38,5.74-7.25,11.87-10.56,17.16-2,3.25-1.61,10.29-5.07,12.35-1.87,1.54-4.43,1.77-8.14,1.91-6-7.41-16.48-4.92-17.54-18.07l.82,0c2.64-8.16,17.4-9.67,21.17-19.18,2.11-3,1.59-11.56-.82-14.34-2.12-4.49-6.25-4.12-9.49-7.1L207.19,728c-2.24-1.4-5.56.35-7.49-1.15-14.41-11.21-15.37-30.34-9.36-48l1.64-.08c1.62,2.14,4.19,4.77,5.37,7.31l.22,3.77,9.4,5.6,2.82,5.92C214,706.58,221,710.07,225.42,715c1,1.07.79,2.77,1.87,3.69,4.08,3.47,12.27,4,13.77,9.93-1,1.59-.44,2.16.22,3.77A32.5,32.5,0,0,1,247,731.32Z" fill="none" fill-rule="evenodd"/>
    <path d="M601.72,829.92c13.09-.72,23.07,6.8,33.56,9.72,8.35,2.33,16.4.5,17.11,10.52,1.92,2.11,5.33,10.58,4.81,11.88-3.27,9.57-23.18,12.18-27.54,23.27-2.49,6.33-4.27,29.05-1.08,38.64.91,2.74,4.26,5.77,3.08,10.44-.37,1.49-1.74,4-2.12,6.16-7.18,5-7.84,8.82-21.74,9.37-8.19-9.41-12.65-11.49-12.22-25.89a57.64,57.64,0,0,0,7.88-6.43c-.92-14.94,0-24.47-1.26-36.26-4.14-2.05-10.08-4.05-13.6-6.9-1.62-1.32-5-6.63-6.19-7.27l-4.94.24c-2-.69-4.38-3.06-6-4.25.4-2.54.81-5.08,1.21-7.63-.63-2.31-2.71-4.06-2-5.95C573.25,842.26,595.41,836.54,601.72,829.92Z" fill="none" fill-rule="evenodd"/>
  </g>
  <g id="shadow_Billede" data-name="shadow Billede">
    <image id="shadow_Billede-2" data-name="shadow Billede" width="580" height="390" transform="matrix(0.82, -0.04, 0.04, 0.75, 169.32, 676.82)" xlink:href="bathfeet_21.png"/>
  </g>
</svg>
