<svg xmlns="http://www.w3.org/2000/svg" xmlns:xlink="http://www.w3.org/1999/xlink" viewBox="0 0 1024 1024">
  
  <g id="bathtub" style="isolation: isolate" class="g_to_interact_with">
    <path d="M274,358h47l13,1c17.53-2.17,42.63-.94,59,3h14c12.69,3,29,2.93,42,6l17,1c22,5.36,48,5.06,69,11,11.07,3.14,20.93,1.17,32,4,28.86,7.39,61.16,10,89,18,17.82,5.1,34.33,4.78,52,10,42.29,12.48,87.92,20.09,127,36,27.86,11.34,53.75,18.62,77,34,9.12,6,16.57,14.62,25,21,18.38,13.92,28.23,42.3,18,70C901.93,716.65,805,814.56,658,864c-31,10.43-96.42,8.28-128-1-67.34-19.8-127.83-44.62-184-75-29.84-16.14-61.25-28.89-86-50-4.11-3.5-9.88-4.52-14-8-12.3-10.39-26.54-18.79-38-30-3.31-3.24-8.34-5.18-11-9-8.79-12.62-13.17-27-21-41l-4-3c-2.62-4.66-1.68-7.91-4-13-1.8-3.94-6.28-8.73-8-13-4.86-12-6.83-22.06-12-34-2.65-6.12-7.84-13.82-10-20-1.75-5-.44-8.32-2-13-4.87-14.63-9.1-29.89-14-46-3-9.74-6.6-20-9-30q-.5-15-1-30l-4-3c-4.5-7-5.9-24.75-1-32,18.5-27.37,73-39.29,111-49,13.48-3.45,27.57-1.87,41-5C263.91,357.86,270.49,360.17,274,358Z"/>
    <path d="M498,410c-1.07.75-.95.6-3,1-3.76,4.83-6.87,5.91-7,15,1.64,2.3,2.36,6.89,3,10,5.35,3.47,7.43,6,17,6,1-.8.27-.35,2-1a51.12,51.12,0,0,1,6-7c.41-10.6-.93-18-7-22C506.48,410,502.79,409.9,498,410Z"/>
    <path d="M300,426c-8.35,5.49-27.76,1.29-38,4-6,1.59-10.88,6.34-16,8-6.62,2.15-12.24,0-18,2-6.16,2.11-15,4.25-22,7-4.25,1.67-8,6.19-12,8-3.75,1.7-6.16.47-10,2-5.67,2.26-18.27,13.87-19,21,29.09,13.31,58.11,29.22,89,41,13.17,5,26.45,5.81,40,11,41.48,15.88,86.9,27.61,130,43,13.68,4.88,26.28,4.83,40,9,48.39,14.72,102.56,21.11,154,34h10c3.66.91,10.34,3.09,14,4h14c27.91,6.77,84.64,7,112,0,15.6-4,28.64-4.39,35-17,7.75-15.37.7-35.41-6-45-19.17-27.44-49-40.3-83-53-33.4-12.49-72.09-24.56-108-35-7.49-2.18-13-.08-20-2-6.67-1.84-16.07-6.08-22-8H552c-9.53-2.39-21.31-3-32-6-6.54-1.84-13.43-6.38-20-8l-14,1c-10.25-2.46-25.66-4.43-36-7H438C396.45,429.58,352.84,426.21,300,426Z"/>
  </g>
  <g id="silverthing" style="isolation: isolate" class="g_to_interact_with">
    <path d="M496,410c4.62-1.81,8.84-2.54,14-1,4.3,2.08,8.6,5.74,10,11,3.49,12.27-6.06,22.14-11,22-5.31.32-9.44.38-11.91-.84-2.73-1-10-6.23-8.09-21.16C489.58,417.2,492.4,412,496,410Z"/>
  </g>
  <g id="water" style="isolation: isolate">
    <path d="M300,426h38c1.64.53,4.36,3.48,6,4h24c9.5.13,18.52,2,30,2h16c1.65.54,4.35,3.44,6,4,5.7,1.94,13.21,2.81,18,4h12c11.79,2.94,28.71,5.19,40,8h12c4.11,1.34,10.77,4.68,16,6,11.89,3,23.72,3.46,34,6h12c47.06,15.31,102.64,22.71,145,43,8.34,4,16.56,4.18,25,8,29,13.11,63.63,31.29,72,65,2.67,10.75-2.26,19.69-3,28-5.82,4-9.93,9.88-17,13-17.88,7.88-85.86,10.93-110,5-11.63-2.86-21.19.72-32-2-35.71-9-74.8-10.24-110-20-79.37-22-160.52-39.8-234-67-12.81-4.74-26.22-9-38-13-5.21-1.79-9.16-.81-14-3-15.79-7.15-33-17.32-50-24-10.27-4-31.64-6.43-33-19,4.11-2.94,6.89-8.16,11-11,5.09-3.52,10.59-4.63,16-8,2-1.24,4.07-5,6-6l10-1c12.18-4.22,25-11.87,39-16,6.52-1.92,10,1.64,17,0,4.12-1,9.68-3,14-4C285.74,426.21,294.75,429.72,300,426Z" fill="none" fill-rule="evenodd"/>
  </g>
  <g id="shadow_Billede" data-name="shadow Billede">
    <image id="shadow_Billede-2" data-name="shadow Billede" width="1022" height="1023" transform="translate(1)" xlink:href="svg/sara_new1.png"/>
  </g>

<g id="feature_Billede" data-feature="rubberduck" class="hide">
    <image id="shadow_Billede-2" data-feature="rubberduck" width="1022" height="1023" transform="translate(1)" xlink:href="svg/rubberduck.png"/>
  </g>
  <g id="feature_Billede" data-feature="shower" class="hide">
    <image id="shadow_Billede-2" data-feature="shower" width="1022" height="1023" transform="translate(1)" xlink:href="svg/shower.png"/>
  </g>
  <g id="feature_Billede" data-feature="towelone" class="hide">
    <image id="shadow_Billede-2" data-feature="towelone" width="1022" height="1023" transform="translate(1)" xlink:href="svg/towelone.png"/>
  </g>
  <g id="feature_Billede" data-feature="toweltwo" class="hide">
    <image id="shadow_Billede-2" data-feature="toweltwo" width="1022" height="1023" transform="translate(1)" xlink:href="svg/toweltwo.png"/>
  </g>
  <g id="feature_Billede" data-feature="water" class="hide">
    <image id="shadow_Billede-2" data-feature="water" width="1022" height="1023" transform="translate(1)" xlink:href="svg/water.png"/>
  </g>
  <g id="feature_Billede" data-feature="woodtrayone" class="hide">
    <image id="shadow_Billede-2" data-feature="woodtrayone" width="1022" height="1023" transform="translate(1)" xlink:href="svg/woodtrayone.png"/>
  </g>
  <g id="feature_Billede" data-feature="woodtraytwo" class="hide">
    <image id="shadow_Billede-2" data-feature="woodtraytwo" width="1022" height="1023" transform="translate(1)" xlink:href="svg/woodtraytwo.png"/>
  </g>

</svg>
