<svg xmlns="http://www.w3.org/2000/svg" xmlns:xlink="http://www.w3.org/1999/xlink" viewBox="0 0 1000 1000">
  <g id="shower" style="isolation: isolate">
    <path d="M197.51,99.52c-.16-2.41-1.39-4-.91-6.35.85-4.24,2.92-9.18,5.9-11.34,1.07-.78,2.25-1,3.17-1.82,10-.18,11.73,5,16.34,10,.34,4.22-.17,7.52-2.27,10.43-1.13,1.56-3.16,2.23-4.08,4.08,0,.42,1,1.94,1.36,3.18.72,2.79-1.59,3.1-.91,5.9.33,1.35,1.54,3.84.91,6.35-.82,3.23-2.64,6.76-3.63,10-.13.42,1.33,3.88,1.36,5.45.13,6.87-.35,14.91.45,18.6.94,4.32.4,12.28-.45,15.88-.64,2.73.62,13.56.91,15a33.4,33.4,0,0,1-.91,13.62v.45h.45c1.42,3.29.59,9.87.91,11.34.71,3.28-.41,7.57-.91,9.53,2.32,6.8.64,18.24,1.82,23.14a12.91,12.91,0,0,1-.91,7.26c1.87,3.28.49,8,1.36,12.71.92,4.93,2.47,19.63,1.82,25.86-.3,2.76,1.14,5.78,0,7.71l1.36.91c.63,1.55-.13,5-.46,5.9,2,4.31,1,10.35,2.27,15.88,1.9,8.17,1.63,20.14,4.08,27.22.86,2.47,1.13,6.69.46,8.62,1.29,2.8,4.47,18.73,4.08,22.24-.3,2.72,2.32,5.86.46,7.71,1,1.1,3.63,10,1.81,11.34,2.36,2.33,2,7.3,2.27,13.62,0,.75-.52.87-.91,1.81-.06.14,1.25,2.59.91,4.08-.63,2.75-.8,6.11-1.82,9.08-2.09,6.15-8.08,18.58-13.15,24-6.72,7.23-24.09,20.78-37.21,11.34-8.64-6.22-9-15.4-11.34-28.13-2.1-11.5,2-25.09.9-42.2-.35-5.69.18-14,0-21.32,0-1.11,1-2.94.91-4.54a61.38,61.38,0,0,1,.46-15.43c.71-3.93-.93-8.16,0-13.16.66-3.58.25-8.25.45-11.34h-.45v-.45l-9.08-.46c-.53-.23-.32-2-.91-.9-2,1.87-1,10.85-.9,14.51,1.07,2-.31,5.9,0,8.63.7,6.35,1.89,27.07,0,36.75-10.43,5.28-11.32-1.19-10.89-12.25-2.13-.44-12.34-3.76-13.16-5-1.45-2.18-.56-16.58-.46-20.42h.91c4.23-2.77,8.59.11,12.71.45,0-7.82-.06-16.48.45-23.59-1.63-.5-2-1.65-3.18-2.27l-3.17-.45c-3.91-1.48-6.41-3.69-9.08-6.36v-.9c1.46-.8,1.86-2.73,3.18-3.63a27.47,27.47,0,0,1,4.54-2.27c2-.76,7.22-1.38,8.16-2.73V230.2c-1.24-.88-.91-1.22-3.17-1.36-1.52,2.5-7.84,2-10.89,1.81-.73-.84-.81-.25-1.82-.91-2.72-1.77-3.63-6.36-3.63-10.89a6.66,6.66,0,0,1,1.82-.45c1,2.2,2.91,4.71,5.9,5,.68-1.37,1.15-1.6,1.36-3.63-.76-1-.64-2.51-1.36-3.63-1-1.62-2.5-1.75-3.18-4.08,1.93-.06,4.31-.43,5.45-1.36,1-1.45.43-2.44,2.26-3.18,2.59-1.73,4.8.89,6.81,1.36,1.13-3.43.45-9.37.45-13.61V72.75a73.86,73.86,0,0,0-10.43-5c-1.18-.45-3,0-3.63-.91V54.6c1.55-2.43.42-6.16,1.36-8.62a7.88,7.88,0,0,0,1.81-1.36c3.65.9,6,2.91,10.44,3.18.68-2,.49-5.48.45-8.17a9.29,9.29,0,0,1,5-.91c.58-.27,3.23.17,4.53.46,2.2,4.25,1,17.78.91,24-1.43,2.34-.45,9-.45,12.26,0,8.61-.46,18-.46,27.22,0,34.4,0,71,0,103.9a12.94,12.94,0,0,0,4.09.46c1.9-1.23,6.32-1.35,8.62-1.82v-4.08c-.7-1.14,0-12.21.45-15,2-13,.55-28.11,3.18-40.84-4.85-3-10.54-9.43-11.8-15.88-.82-4.23,2.3-8.43,3.63-10.89C175.87,109.92,185.32,100.32,197.51,99.52Z" fill="none" fill-rule="evenodd"/>
    <path d="M180.72,323.21a48.51,48.51,0,0,1-.91,11.8c-.47,2.4.62,4.35-.45,7.26-.06.15,1.2,3,.9,4.54-.58,3.05-.22,14.21-.9,17.24q-.23,16.79-.46,33.57c-1,4.55-1.66,21-.9,25v11.8c2.67,11,6,28.5,24,20.87a43.62,43.62,0,0,0,7.72-4.54c19.64-14.21,22.72-40.63,15.88-66.7a12.36,12.36,0,0,1,0-4.53c-2.18-6.91-1.86-11.62-3.63-18.15-2-7.31-1.16-14.45-2.72-21.78-2.42-11.32-1.72-23.28-5-36.3-.88-3.5.1-8-.45-10.44-1.41-6.4-.22-13.16-1.36-18.6-.83-3.92-1.77-10.21-.91-14.52.42-2.1-.61-5.07-.91-6.35v-9.53c-.44-3.77-.9-11.63-.45-14.52.42-2.69-.43-12.67-.91-14.07,1.63-3.07-.37-17.57.46-23.59.33-2.43-.85-4.9-.91-6.81-.09-2.76,1.1-8.06.45-11.34-1.22-6.19-1.27-17.74-.45-21.78.69-3.42-.82-11.14,0-15.42h-2.27c-3.06,4.51-9.31,6.69-14.52,9.07-.13,4.21-1.39,7.4-2.27,10.44l-.45,14.52c-1.2,5.47-.63,12.66-1.82,18.14v8.17a85.29,85.29,0,0,0-1.81,10.89,3.71,3.71,0,0,1,2.72,1.82c2.64,3.25.87,9.17,0,12.7-.51.22-4.7,1.33-5,1.82v12.7c-1.86,3.17.72,8.54-.45,14.07-1.7,8-.87,25.21-1.36,33.57-.22,3.75-.51,16.66,0,17.24,3.63,2.3,10.46,1.11,15,2.27,6.38,1.65,10.22,3.69,14.06,7.72l-.9,2.72A67.18,67.18,0,0,1,180.72,323.21Z" fill="none" fill-rule="evenodd"/>
    <path d="M162.57,227.93v74c.79.28.44.08.91.45,3.34-.65,8.19-.47,12.25-.45.72-23.94,2.25-52.63,2.27-76.23a4.88,4.88,0,0,0-2.27-.91C173.94,226,165.09,227.7,162.57,227.93Z" fill="none" fill-rule="evenodd"/>
  </g>
  <g id="shadow_Billede" data-name="shadow Billede">
    <image id="shadow_Billede-2" data-name="shadow Billede" width="227" height="938" transform="translate(133.08 38.27) scale(0.45)" xlink:href="shower1.png"/>
  </g>
</svg>
