<svg id="txt_bubble_1" xmlns="http://www.w3.org/2000/svg" xmlns:xlink="http://www.w3.org/1999/xlink" viewBox="0 0 595.28 536">
  <image width="4248" height="3840" transform="translate(4.26) scale(0.14)" xlink:href="../layout_images/txt_bubble.png"/>
  <g>
    <path d="M201.57,211.67V209a3.85,3.85,0,0,0,.85.58,6.79,6.79,0,0,0,1,.44,8.82,8.82,0,0,0,1.1.27,6.27,6.27,0,0,0,1,.1,4.31,4.31,0,0,0,2.4-.54,1.79,1.79,0,0,0,.79-1.56,1.68,1.68,0,0,0-.27-1,2.66,2.66,0,0,0-.73-.73,7.21,7.21,0,0,0-1.11-.64l-1.37-.64c-.53-.28-1-.56-1.46-.85a6,6,0,0,1-1.18-1,4,4,0,0,1-.78-1.18,3.8,3.8,0,0,1-.29-1.53,3.5,3.5,0,0,1,.49-1.89,4.27,4.27,0,0,1,1.29-1.32,5.62,5.62,0,0,1,1.82-.77,10.2,10.2,0,0,1,5.61.29v2.53a5.66,5.66,0,0,0-3.38-.95,6.18,6.18,0,0,0-1.13.11,3.44,3.44,0,0,0-1,.35,2.13,2.13,0,0,0-.72.64,1.51,1.51,0,0,0-.28.93,1.8,1.8,0,0,0,.21.89,2.25,2.25,0,0,0,.63.69,6.56,6.56,0,0,0,1,.61c.4.19.86.41,1.38.64a15.91,15.91,0,0,1,1.52.88,6.39,6.39,0,0,1,1.26,1,4.59,4.59,0,0,1,.86,1.24,3.64,3.64,0,0,1,.31,1.55,3.82,3.82,0,0,1-.47,2,3.88,3.88,0,0,1-1.27,1.31,5.9,5.9,0,0,1-1.84.73,10.48,10.48,0,0,1-2.21.22,9.42,9.42,0,0,1-.95-.06c-.37,0-.76-.09-1.15-.17a8.75,8.75,0,0,1-1.12-.27A3.6,3.6,0,0,1,201.57,211.67Z" fill="#1d1d1b"/>
    <path d="M224,212.29H220.8L216.52,207h0v5.29H214V196h2.5v10.32h0l4-5h3l-4.54,5.3Z" fill="#1d1d1b"/>
    <path d="M226.78,199a1.52,1.52,0,0,1-1-.4,1.32,1.32,0,0,1-.44-1,1.34,1.34,0,0,1,.44-1,1.48,1.48,0,0,1,1-.41,1.55,1.55,0,0,1,1.08.41,1.34,1.34,0,0,1,.44,1,1.31,1.31,0,0,1-.44,1A1.51,1.51,0,0,1,226.78,199ZM228,212.29h-2.49v-11H228Z" fill="#1d1d1b"/>
    <path d="M241.07,212.29h-2.49v-6.2c0-2.06-.73-3.09-2.18-3.09a2.38,2.38,0,0,0-1.88.86,3.14,3.14,0,0,0-.74,2.15v6.28h-2.51v-11h2.51v1.82h0a3.91,3.91,0,0,1,3.57-2.08,3.35,3.35,0,0,1,2.74,1.16,5.24,5.24,0,0,1,.94,3.37Z" fill="#1d1d1b"/>
    <path d="M259.47,207.46H252a3.19,3.19,0,0,0,.94,2.35,3.47,3.47,0,0,0,2.47.83,5.44,5.44,0,0,0,3.23-1v2a7.36,7.36,0,0,1-4,.94,4.92,4.92,0,0,1-3.81-1.5,6,6,0,0,1-1.38-4.21,5.9,5.9,0,0,1,1.52-4.19,5,5,0,0,1,3.78-1.61,4.34,4.34,0,0,1,3.49,1.45,6,6,0,0,1,1.23,4Zm-2.4-1.76a3.22,3.22,0,0,0-.64-2.09,2.11,2.11,0,0,0-1.72-.75,2.45,2.45,0,0,0-1.82.79,3.61,3.61,0,0,0-.92,2Z" fill="#1d1d1b"/>
    <path d="M271,201.29l-3.66,5.56,3.62,5.44h-2.89l-1.93-3.41a9,9,0,0,1-.43-.8h-.05c0,.07-.18.33-.45.8l-2,3.41h-2.88l3.74-5.4-3.55-5.6h2.9l1.9,3.57.42.82h0l2.46-4.39Z" fill="#1d1d1b"/>
    <path d="M275.4,210.66h0v6.68h-2.49V201.29h2.49v1.93h0a4.08,4.08,0,0,1,3.74-2.19,3.94,3.94,0,0,1,3.27,1.47,6.17,6.17,0,0,1,1.17,3.95,6.88,6.88,0,0,1-1.32,4.41,4.38,4.38,0,0,1-3.61,1.65A3.59,3.59,0,0,1,275.4,210.66Zm-.06-4.34v1.37a2.88,2.88,0,0,0,.77,2,2.7,2.7,0,0,0,4.12-.24,5,5,0,0,0,.79-3,4,4,0,0,0-.73-2.54,2.45,2.45,0,0,0-2-.92,2.68,2.68,0,0,0-2.14,1A3.5,3.5,0,0,0,275.34,206.32Z" fill="#1d1d1b"/>
    <path d="M295.44,207.46h-7.5a3.15,3.15,0,0,0,.94,2.35,3.46,3.46,0,0,0,2.46.83,5.45,5.45,0,0,0,3.24-1v2a7.42,7.42,0,0,1-4,.94,4.92,4.92,0,0,1-3.81-1.5,6,6,0,0,1-1.38-4.21,5.9,5.9,0,0,1,1.52-4.19,5,5,0,0,1,3.78-1.61,4.32,4.32,0,0,1,3.49,1.45,6,6,0,0,1,1.24,4ZM293,205.7a3.27,3.27,0,0,0-.63-2.09,2.12,2.12,0,0,0-1.72-.75,2.41,2.41,0,0,0-1.82.79,3.54,3.54,0,0,0-.92,2Z" fill="#1d1d1b"/>
    <path d="M304.19,203.66a2,2,0,0,0-1.3-.36,2.25,2.25,0,0,0-1.85,1,4.52,4.52,0,0,0-.74,2.72v5.27h-2.49v-11h2.49v2.26h.05a3.81,3.81,0,0,1,1.12-1.81,2.54,2.54,0,0,1,1.69-.65,2,2,0,0,1,1,.21Z" fill="#1d1d1b"/>
    <path d="M312.39,212.17a4.38,4.38,0,0,1-1.92.36q-3.21,0-3.21-3.07v-6.22h-1.83v-2h1.83v-2.55l2.5-.71v3.26h2.63v2h-2.63v5.5a2.23,2.23,0,0,0,.35,1.4,1.47,1.47,0,0,0,1.18.42,1.74,1.74,0,0,0,1.1-.37Z" fill="#1d1d1b"/>
    <path d="M313.85,211.94v-2.31a5,5,0,0,0,3.08,1.07c1.51,0,2.26-.45,2.26-1.34a1.12,1.12,0,0,0-.19-.64,1.85,1.85,0,0,0-.53-.46,3.68,3.68,0,0,0-.77-.37l-1-.36a10.74,10.74,0,0,1-1.22-.57,3.82,3.82,0,0,1-.91-.69,2.84,2.84,0,0,1-.54-.86,3.23,3.23,0,0,1-.18-1.13,2.62,2.62,0,0,1,.38-1.4,3.27,3.27,0,0,1,1-1,4.68,4.68,0,0,1,1.44-.62,6.51,6.51,0,0,1,1.66-.21,7.51,7.51,0,0,1,2.73.46v2.18a4.58,4.58,0,0,0-2.66-.79,3.79,3.79,0,0,0-.86.09,2.59,2.59,0,0,0-.65.27,1.27,1.27,0,0,0-.42.41,1,1,0,0,0-.15.54,1.16,1.16,0,0,0,.15.6,1.33,1.33,0,0,0,.45.43,3.61,3.61,0,0,0,.71.35l1,.33a12.69,12.69,0,0,1,1.27.6,3.91,3.91,0,0,1,1,.68,2.54,2.54,0,0,1,.61.88,2.87,2.87,0,0,1,.22,1.19,2.72,2.72,0,0,1-.39,1.46,3.27,3.27,0,0,1-1,1,4.75,4.75,0,0,1-1.49.6,7.28,7.28,0,0,1-1.77.2A7.5,7.5,0,0,1,313.85,211.94Z" fill="#1d1d1b"/>
    <path d="M339.85,212.29h-2.5v-6c0-2.18-.72-3.27-2.18-3.27a2.27,2.27,0,0,0-1.84.95,3.73,3.73,0,0,0-.76,2.42v5.92h-2.5V196h2.5v7.11h.05a3.93,3.93,0,0,1,3.56-2.08c2.44,0,3.67,1.49,3.67,4.48Z" fill="#1d1d1b"/>
    <path d="M351.32,212.29H348.9v-1.72h0a3.64,3.64,0,0,1-3.34,2,3.5,3.5,0,0,1-2.54-.88,3,3,0,0,1-.92-2.33c0-2.08,1.19-3.29,3.59-3.63l3.26-.46c0-1.57-.74-2.35-2.23-2.35a5.34,5.34,0,0,0-3.55,1.35v-2.18a7.71,7.71,0,0,1,4-1q4.17,0,4.17,4.1Zm-2.41-5.41-2.31.32a3.66,3.66,0,0,0-1.61.53,1.73,1.73,0,0,0-.05,2.48,2,2,0,0,0,1.34.44,2.46,2.46,0,0,0,1.89-.8,2.85,2.85,0,0,0,.74-2Z" fill="#1d1d1b"/>
    <path d="M363.83,201.29l-4.25,11h-2.7l-4.05-11h2.71L358,209a6.67,6.67,0,0,1,.34,1.48h0a8.09,8.09,0,0,1,.31-1.44l2.55-7.73Z" fill="#1d1d1b"/>
    <path d="M374.66,207.46h-7.5a3.15,3.15,0,0,0,.94,2.35,3.47,3.47,0,0,0,2.47.83,5.44,5.44,0,0,0,3.23-1v2a7.38,7.38,0,0,1-4,.94A4.92,4.92,0,0,1,366,211a6,6,0,0,1-1.38-4.21,5.9,5.9,0,0,1,1.52-4.19,5,5,0,0,1,3.77-1.61,4.34,4.34,0,0,1,3.5,1.45,6,6,0,0,1,1.23,4Zm-2.41-1.76a3.16,3.16,0,0,0-.63-2.09,2.11,2.11,0,0,0-1.72-.75,2.45,2.45,0,0,0-1.82.79,3.61,3.61,0,0,0-.92,2Z" fill="#1d1d1b"/>
    <path d="M391,211.78a6.15,6.15,0,0,1-3.13.76,5.29,5.29,0,0,1-3.95-1.53,5.43,5.43,0,0,1-1.51-4,6,6,0,0,1,1.62-4.36,5.78,5.78,0,0,1,4.32-1.65,6.35,6.35,0,0,1,2.66.52v2.32a4.06,4.06,0,0,0-2.45-.86,3.42,3.42,0,0,0-2.59,1.07,3.94,3.94,0,0,0-1,2.8,3.75,3.75,0,0,0,.95,2.7,3.36,3.36,0,0,0,2.55,1,4,4,0,0,0,2.54-1Z" fill="#1d1d1b"/>
    <path d="M398.3,212.54a5.43,5.43,0,0,1-4.06-1.54,5.59,5.59,0,0,1-1.52-4.09,5.41,5.41,0,0,1,5.85-5.88,5.28,5.28,0,0,1,4,1.51,5.85,5.85,0,0,1,1.44,4.2,5.79,5.79,0,0,1-1.55,4.22A5.58,5.58,0,0,1,398.3,212.54Zm.12-9.53a2.84,2.84,0,0,0-2.31,1,4.28,4.28,0,0,0-.85,2.81,4,4,0,0,0,.86,2.72,2.88,2.88,0,0,0,2.3,1,2.74,2.74,0,0,0,2.26-1,4.3,4.3,0,0,0,.79-2.78,4.39,4.39,0,0,0-.79-2.81A2.71,2.71,0,0,0,398.42,203Z" fill="#1d1d1b"/>
    <path d="M416.36,212.29h-2.49v-6.2c0-2.06-.73-3.09-2.18-3.09a2.38,2.38,0,0,0-1.88.86,3.19,3.19,0,0,0-.74,2.15v6.28h-2.5v-11h2.5v1.82h0a3.91,3.91,0,0,1,3.57-2.08,3.35,3.35,0,0,1,2.74,1.16,5.24,5.24,0,0,1,.94,3.37Z" fill="#1d1d1b"/>
    <path d="M425.19,207.19h-5.86v-1.83h5.86Z" fill="#1d1d1b"/>
    <path d="M187.07,222a2.31,2.31,0,0,0-1.15-.29c-1.21,0-1.82.68-1.82,2v1.5h2.56v2h-2.54v9h-2.5v-9h-1.88v-2h1.88V223.5a3.46,3.46,0,0,1,1.14-2.74,4.72,4.72,0,0,1,4.31-.8Z" fill="#1d1d1b"/>
    <path d="M189.69,223a1.53,1.53,0,0,1-1.05-.4,1.31,1.31,0,0,1-.43-1,1.33,1.33,0,0,1,.43-1,1.49,1.49,0,0,1,1.05-.41,1.56,1.56,0,0,1,1.08.41,1.34,1.34,0,0,1,.44,1,1.31,1.31,0,0,1-.44,1A1.53,1.53,0,0,1,189.69,223Zm1.24,13.31h-2.5v-11h2.5Z" fill="#1d1d1b"/>
    <path d="M200.56,227.66a2,2,0,0,0-1.3-.36,2.25,2.25,0,0,0-1.85,1,4.52,4.52,0,0,0-.74,2.72v5.27h-2.49v-11h2.49v2.26h.05a3.81,3.81,0,0,1,1.12-1.81,2.54,2.54,0,0,1,1.69-.65,2,2,0,0,1,1,.21Z" fill="#1d1d1b"/>
    <path d="M218.77,236.29h-2.49v-6a4.9,4.9,0,0,0-.49-2.5,1.8,1.8,0,0,0-1.65-.78,2,2,0,0,0-1.66,1,4,4,0,0,0-.68,2.34v6h-2.5v-6.2c0-2.05-.73-3.08-2.17-3.08a1.94,1.94,0,0,0-1.66.93,4,4,0,0,0-.65,2.39v6h-2.5v-11h2.5V227h0a3.79,3.79,0,0,1,3.47-2,3.26,3.26,0,0,1,2,.63,3.09,3.09,0,0,1,1.17,1.64,3.92,3.92,0,0,1,3.65-2.27q3.63,0,3.63,4.48Z" fill="#1d1d1b"/>
    <path d="M231.12,231.46h-7.49a3.12,3.12,0,0,0,.94,2.35,3.43,3.43,0,0,0,2.46.83,5.42,5.42,0,0,0,3.23-1v2a7.36,7.36,0,0,1-4,.94,4.92,4.92,0,0,1-3.81-1.5,6,6,0,0,1-1.38-4.21,5.9,5.9,0,0,1,1.52-4.19A5,5,0,0,1,226.4,225a4.34,4.34,0,0,1,3.49,1.45,6,6,0,0,1,1.23,4Zm-2.4-1.76a3.22,3.22,0,0,0-.64-2.09,2.1,2.1,0,0,0-1.72-.75,2.45,2.45,0,0,0-1.82.79,3.6,3.6,0,0,0-.91,2Z" fill="#1d1d1b"/>
    <path d="M243.5,236.29H241v-1.87h0a4.31,4.31,0,0,1-7,.65,6.12,6.12,0,0,1-1.22-4,6.67,6.67,0,0,1,1.35-4.37,4.42,4.42,0,0,1,3.59-1.64,3.43,3.43,0,0,1,3.23,1.78h0V220h2.49Zm-2.46-5v-1.44a2.86,2.86,0,0,0-.76-2,2.57,2.57,0,0,0-1.95-.82,2.63,2.63,0,0,0-2.2,1.05,4.64,4.64,0,0,0-.8,2.89,4.15,4.15,0,0,0,.77,2.64,2.5,2.5,0,0,0,2.07,1,2.6,2.6,0,0,0,2.07-.94A3.56,3.56,0,0,0,241,231.26Z" fill="#1d1d1b"/>
    <path d="M258.6,236.17a4.38,4.38,0,0,1-1.92.36c-2.14,0-3.2-1-3.2-3.07v-6.22h-1.84v-2h1.84v-2.55L256,222v3.26h2.63v2H256v5.5a2.23,2.23,0,0,0,.35,1.4,1.48,1.48,0,0,0,1.19.42,1.73,1.73,0,0,0,1.09-.37Z" fill="#1d1d1b"/>
    <path d="M270.53,236.29H268v-6c0-2.18-.72-3.27-2.18-3.27A2.27,2.27,0,0,0,264,228a3.73,3.73,0,0,0-.76,2.42v5.92h-2.5V220h2.5v7.11h.05a3.93,3.93,0,0,1,3.56-2.08c2.44,0,3.67,1.49,3.67,4.48Z" fill="#1d1d1b"/>
    <path d="M282,236.29h-2.42v-1.72h0a3.64,3.64,0,0,1-3.34,2,3.5,3.5,0,0,1-2.54-.88,3,3,0,0,1-.92-2.33c0-2.08,1.19-3.29,3.59-3.63l3.26-.46c0-1.57-.74-2.35-2.23-2.35a5.34,5.34,0,0,0-3.55,1.35v-2.18a7.71,7.71,0,0,1,4-1q4.17,0,4.17,4.1Zm-2.41-5.41-2.31.32a3.66,3.66,0,0,0-1.61.53,1.73,1.73,0,0,0-.05,2.48,2,2,0,0,0,1.34.44,2.46,2.46,0,0,0,1.89-.8,2.85,2.85,0,0,0,.74-2Z" fill="#1d1d1b"/>
    <path d="M290.84,236.17a4.38,4.38,0,0,1-1.92.36c-2.14,0-3.2-1-3.2-3.07v-6.22h-1.84v-2h1.84v-2.55l2.49-.71v3.26h2.63v2h-2.63v5.5a2.23,2.23,0,0,0,.35,1.4,1.47,1.47,0,0,0,1.18.42,1.74,1.74,0,0,0,1.1-.37Z" fill="#1d1d1b"/>
    <path d="M308.35,231.46h-7.5a3.15,3.15,0,0,0,.94,2.35,3.47,3.47,0,0,0,2.47.83,5.44,5.44,0,0,0,3.23-1v2a7.38,7.38,0,0,1-4,.94,4.92,4.92,0,0,1-3.81-1.5,6,6,0,0,1-1.38-4.21,5.85,5.85,0,0,1,1.52-4.19,5,5,0,0,1,3.77-1.61,4.31,4.31,0,0,1,3.49,1.45,6,6,0,0,1,1.24,4Zm-2.41-1.76a3.22,3.22,0,0,0-.63-2.09,2.12,2.12,0,0,0-1.72-.75,2.45,2.45,0,0,0-1.82.79,3.54,3.54,0,0,0-.92,2Z" fill="#1d1d1b"/>
    <path d="M320.52,236.29H318v-6.2c0-2.06-.73-3.09-2.18-3.09a2.38,2.38,0,0,0-1.88.86,3.14,3.14,0,0,0-.74,2.15v6.28h-2.51v-11h2.51v1.82h0a3.91,3.91,0,0,1,3.57-2.08,3.35,3.35,0,0,1,2.74,1.16,5.24,5.24,0,0,1,.94,3.37Z" fill="#1d1d1b"/>
    <path d="M333.56,236.29h-2.49v-1.87h0a4.32,4.32,0,0,1-7,.65,6.17,6.17,0,0,1-1.22-4,6.67,6.67,0,0,1,1.35-4.37,4.43,4.43,0,0,1,3.59-1.64,3.45,3.45,0,0,1,3.24,1.78h0V220h2.49Zm-2.46-5v-1.44a2.81,2.81,0,0,0-.76-2,2.77,2.77,0,0,0-4.14.23,4.58,4.58,0,0,0-.8,2.89,4.09,4.09,0,0,0,.77,2.64,2.49,2.49,0,0,0,2.06,1,2.61,2.61,0,0,0,2.08-.94A3.55,3.55,0,0,0,331.1,231.26Z" fill="#1d1d1b"/>
    <path d="M341.69,236.54a5.43,5.43,0,0,1-4.06-1.54,5.55,5.55,0,0,1-1.52-4.09A5.41,5.41,0,0,1,342,225a5.28,5.28,0,0,1,4,1.51,5.85,5.85,0,0,1,1.44,4.2,5.79,5.79,0,0,1-1.55,4.22A5.58,5.58,0,0,1,341.69,236.54Zm.12-9.53a2.84,2.84,0,0,0-2.31,1,4.28,4.28,0,0,0-.85,2.81,4,4,0,0,0,.86,2.72,2.88,2.88,0,0,0,2.3,1,2.74,2.74,0,0,0,2.26-1,4.3,4.3,0,0,0,.79-2.78,4.39,4.39,0,0,0-.79-2.81A2.71,2.71,0,0,0,341.81,227Z" fill="#1d1d1b"/>
    <path d="M356.33,227.66a2,2,0,0,0-1.29-.36,2.24,2.24,0,0,0-1.85,1,4.45,4.45,0,0,0-.74,2.72v5.27H350v-11h2.5v2.26h0a3.89,3.89,0,0,1,1.12-1.81,2.56,2.56,0,0,1,1.69-.65,2,2,0,0,1,1,.21Z" fill="#1d1d1b"/>
    <path d="M360.63,234.66h0v6.68H358.1V225.29h2.49v1.93h0a4.08,4.08,0,0,1,3.74-2.19,3.94,3.94,0,0,1,3.27,1.47,6.17,6.17,0,0,1,1.17,3.95,6.88,6.88,0,0,1-1.32,4.41,4.4,4.4,0,0,1-3.61,1.65A3.59,3.59,0,0,1,360.63,234.66Zm-.06-4.34v1.37a2.88,2.88,0,0,0,.77,2,2.52,2.52,0,0,0,2,.84,2.55,2.55,0,0,0,2.17-1.08,5,5,0,0,0,.79-3,4,4,0,0,0-.74-2.54,2.42,2.42,0,0,0-2-.92,2.68,2.68,0,0,0-2.14,1A3.5,3.5,0,0,0,360.57,230.32Z" fill="#1d1d1b"/>
    <path d="M381.13,236.29h-2.49v-6c0-2.18-.73-3.27-2.18-3.27a2.28,2.28,0,0,0-1.85.95,3.78,3.78,0,0,0-.75,2.42v5.92h-2.51V220h2.51v7.11h0a3.93,3.93,0,0,1,3.56-2.08q3.68,0,3.67,4.48Z" fill="#1d1d1b"/>
    <path d="M385.41,223a1.52,1.52,0,0,1-1-.4,1.32,1.32,0,0,1-.44-1,1.34,1.34,0,0,1,.44-1,1.48,1.48,0,0,1,1-.41,1.55,1.55,0,0,1,1.08.41,1.34,1.34,0,0,1,.44,1,1.31,1.31,0,0,1-.44,1A1.51,1.51,0,0,1,385.41,223Zm1.24,13.31h-2.49v-11h2.49Z" fill="#1d1d1b"/>
    <path d="M399.7,236.29h-2.49v-6.2c0-2.06-.73-3.09-2.18-3.09a2.38,2.38,0,0,0-1.88.86,3.14,3.14,0,0,0-.74,2.15v6.28H389.9v-11h2.51v1.82h0A3.91,3.91,0,0,1,396,225a3.35,3.35,0,0,1,2.74,1.16,5.24,5.24,0,0,1,.94,3.37Z" fill="#1d1d1b"/>
    <path d="M402.05,235.94v-2.31a5,5,0,0,0,3.09,1.07c1.5,0,2.25-.45,2.25-1.34a1.05,1.05,0,0,0-.19-.64,1.81,1.81,0,0,0-.52-.46,4,4,0,0,0-.78-.37l-1-.36a10.74,10.74,0,0,1-1.22-.57,3.57,3.57,0,0,1-.9-.69,2.5,2.5,0,0,1-.54-.86,3,3,0,0,1-.19-1.13,2.62,2.62,0,0,1,.38-1.4,3.38,3.38,0,0,1,1-1,4.68,4.68,0,0,1,1.44-.62,6.57,6.57,0,0,1,1.66-.21,7.51,7.51,0,0,1,2.73.46v2.18a4.58,4.58,0,0,0-2.66-.79,3.63,3.63,0,0,0-.85.09,2.31,2.31,0,0,0-.65.27,1.27,1.27,0,0,0-.42.41,1,1,0,0,0-.15.54,1.16,1.16,0,0,0,.15.6,1.39,1.39,0,0,0,.44.43,4.27,4.27,0,0,0,.71.35l.95.33a12.69,12.69,0,0,1,1.27.6,4.18,4.18,0,0,1,1,.68,2.84,2.84,0,0,1,.61.88,3.05,3.05,0,0,1,.21,1.19,2.81,2.81,0,0,1-.38,1.46,3.27,3.27,0,0,1-1,1,4.85,4.85,0,0,1-1.49.6,7.36,7.36,0,0,1-1.78.2A7.53,7.53,0,0,1,402.05,235.94Z" fill="#1d1d1b"/>
    <path d="M426.72,236.29H424.3v-1.72h0a3.66,3.66,0,0,1-3.34,2,3.5,3.5,0,0,1-2.54-.88,3,3,0,0,1-.92-2.33c0-2.08,1.19-3.29,3.59-3.63l3.26-.46c0-1.57-.74-2.35-2.23-2.35a5.32,5.32,0,0,0-3.55,1.35v-2.18a7.71,7.71,0,0,1,4-1q4.17,0,4.17,4.1Zm-2.41-5.41-2.31.32a3.75,3.75,0,0,0-1.62.53,1.51,1.51,0,0,0-.54,1.33,1.48,1.48,0,0,0,.5,1.15,2,2,0,0,0,1.34.44,2.42,2.42,0,0,0,1.88-.8,2.81,2.81,0,0,0,.75-2Z" fill="#1d1d1b"/>
    <path d="M436.14,227.66a2.05,2.05,0,0,0-1.3-.36,2.25,2.25,0,0,0-1.85,1,4.52,4.52,0,0,0-.74,2.72v5.27h-2.49v-11h2.49v2.26h0a3.9,3.9,0,0,1,1.13-1.81,2.52,2.52,0,0,1,1.69-.65,2.06,2.06,0,0,1,1,.21Z" fill="#1d1d1b"/>
    <path d="M447,231.46h-7.5a3.15,3.15,0,0,0,.94,2.35,3.47,3.47,0,0,0,2.47.83,5.44,5.44,0,0,0,3.23-1v2a7.38,7.38,0,0,1-4,.94,4.92,4.92,0,0,1-3.81-1.5,6,6,0,0,1-1.38-4.21,5.85,5.85,0,0,1,1.52-4.19,5,5,0,0,1,3.77-1.61,4.34,4.34,0,0,1,3.5,1.45,6,6,0,0,1,1.23,4Zm-2.41-1.76a3.16,3.16,0,0,0-.63-2.09,2.11,2.11,0,0,0-1.72-.75,2.45,2.45,0,0,0-1.82.79,3.61,3.61,0,0,0-.92,2Z" fill="#1d1d1b"/>
    <path d="M206.46,251.66a2,2,0,0,0-1.3-.36,2.25,2.25,0,0,0-1.85,1,4.52,4.52,0,0,0-.74,2.72v5.27h-2.49v-11h2.49v2.26h0a3.9,3.9,0,0,1,1.13-1.81,2.54,2.54,0,0,1,1.69-.65,2.06,2.06,0,0,1,1,.21Z" fill="#1d1d1b"/>
    <path d="M217.34,255.46h-7.5a3.19,3.19,0,0,0,.94,2.35,3.47,3.47,0,0,0,2.47.83,5.44,5.44,0,0,0,3.23-1.05v2a7.38,7.38,0,0,1-4,.94,4.92,4.92,0,0,1-3.81-1.5,6,6,0,0,1-1.38-4.21,5.9,5.9,0,0,1,1.52-4.19,5,5,0,0,1,3.77-1.61,4.34,4.34,0,0,1,3.5,1.45,6,6,0,0,1,1.23,4Zm-2.4-1.76a3.22,3.22,0,0,0-.64-2.09,2.11,2.11,0,0,0-1.72-.75,2.45,2.45,0,0,0-1.82.79,3.61,3.61,0,0,0-.92,2Z" fill="#1d1d1b"/>
    <path d="M222.22,260.29h-2.5V244h2.5Z" fill="#1d1d1b"/>
    <path d="M234.78,255.46h-7.5a3.15,3.15,0,0,0,.94,2.35,3.46,3.46,0,0,0,2.46.83,5.45,5.45,0,0,0,3.24-1.05v2a7.42,7.42,0,0,1-4,.94,4.92,4.92,0,0,1-3.81-1.5,6,6,0,0,1-1.38-4.21,5.9,5.9,0,0,1,1.52-4.19,5,5,0,0,1,3.78-1.61,4.32,4.32,0,0,1,3.49,1.45,6,6,0,0,1,1.24,4Zm-2.41-1.76a3.27,3.27,0,0,0-.63-2.09,2.12,2.12,0,0,0-1.72-.75,2.41,2.41,0,0,0-1.82.79,3.54,3.54,0,0,0-.92,2Z" fill="#1d1d1b"/>
    <path d="M245.59,260.29h-2.41v-1.72h-.05a3.64,3.64,0,0,1-3.34,2,3.5,3.5,0,0,1-2.54-.88,3.07,3.07,0,0,1-.92-2.33q0-3.12,3.59-3.63l3.27-.46c0-1.57-.75-2.35-2.24-2.35a5.3,5.3,0,0,0-3.54,1.35v-2.18a7.71,7.71,0,0,1,4-1q4.15,0,4.16,4.1Zm-2.4-5.41-2.31.32a3.66,3.66,0,0,0-1.62.53,1.51,1.51,0,0,0-.54,1.33,1.45,1.45,0,0,0,.5,1.15,2,2,0,0,0,1.34.44,2.45,2.45,0,0,0,1.88-.8,2.81,2.81,0,0,0,.75-2Z" fill="#1d1d1b"/>
    <path d="M248,259.94v-2.31A5,5,0,0,0,251,258.7c1.5,0,2.25-.45,2.25-1.34a1.05,1.05,0,0,0-.19-.64,1.81,1.81,0,0,0-.52-.46,4.24,4.24,0,0,0-.77-.37l-1-.36a11.62,11.62,0,0,1-1.22-.57,3.57,3.57,0,0,1-.9-.69,2.5,2.5,0,0,1-.54-.86,3.23,3.23,0,0,1-.18-1.13,2.62,2.62,0,0,1,.37-1.4,3.38,3.38,0,0,1,1-1,4.68,4.68,0,0,1,1.44-.62,6.59,6.59,0,0,1,1.67-.21,7.59,7.59,0,0,1,2.73.46v2.18a4.63,4.63,0,0,0-2.67-.79,3.7,3.7,0,0,0-.85.09,2.45,2.45,0,0,0-.65.27,1.27,1.27,0,0,0-.42.41,1,1,0,0,0-.15.54,1.16,1.16,0,0,0,.15.6,1.39,1.39,0,0,0,.44.43,4.27,4.27,0,0,0,.71.35l.95.33a12.92,12.92,0,0,1,1.28.6,4.34,4.34,0,0,1,1,.68,2.68,2.68,0,0,1,.61.88,3,3,0,0,1,.22,1.19,2.72,2.72,0,0,1-.39,1.46,3.27,3.27,0,0,1-1,1,4.85,4.85,0,0,1-1.49.6,7.36,7.36,0,0,1-1.78.2A7.49,7.49,0,0,1,248,259.94Z" fill="#1d1d1b"/>
    <path d="M267.43,255.46h-7.5a3.19,3.19,0,0,0,.94,2.35,3.47,3.47,0,0,0,2.47.83,5.44,5.44,0,0,0,3.23-1.05v2a7.36,7.36,0,0,1-4,.94,4.92,4.92,0,0,1-3.81-1.5,6,6,0,0,1-1.38-4.21,5.9,5.9,0,0,1,1.52-4.19,5,5,0,0,1,3.78-1.61,4.34,4.34,0,0,1,3.49,1.45,6,6,0,0,1,1.23,4ZM265,253.7a3.22,3.22,0,0,0-.64-2.09,2.11,2.11,0,0,0-1.72-.75,2.45,2.45,0,0,0-1.82.79,3.61,3.61,0,0,0-.92,2Z" fill="#1d1d1b"/>
    <path d="M279.81,260.29h-2.5v-1.87h0a4.31,4.31,0,0,1-6.95.65,6.12,6.12,0,0,1-1.22-4,6.67,6.67,0,0,1,1.35-4.37A4.4,4.4,0,0,1,274,249a3.43,3.43,0,0,1,3.23,1.78h0V244h2.5Zm-2.46-5v-1.44a2.82,2.82,0,0,0-.77-2,2.54,2.54,0,0,0-1.94-.82,2.63,2.63,0,0,0-2.2,1.05,4.64,4.64,0,0,0-.8,2.89,4.15,4.15,0,0,0,.77,2.64,2.5,2.5,0,0,0,2.07,1,2.6,2.6,0,0,0,2.07-.94A3.56,3.56,0,0,0,277.35,255.26Z" fill="#1d1d1b"/>
    <path d="M303.9,249.29l-3.24,11h-2.61l-2-7.46a4.59,4.59,0,0,1-.15-1h0a4.5,4.5,0,0,1-.2.95l-2.17,7.48h-2.55l-3.24-11h2.58l2,7.92a4.94,4.94,0,0,1,.13,1h.07a5.36,5.36,0,0,1,.17-1l2.23-7.9h2.34l2,8a6.12,6.12,0,0,1,.14.94h.07a5.77,5.77,0,0,1,.16-.94l2-8Z" fill="#1d1d1b"/>
    <path d="M315.52,260.29H313v-6c0-2.18-.72-3.27-2.18-3.27A2.29,2.29,0,0,0,309,252a3.78,3.78,0,0,0-.75,2.42v5.92h-2.5V244h2.5v7.11h0a3.94,3.94,0,0,1,3.57-2.08q3.66,0,3.66,4.48Z" fill="#1d1d1b"/>
    <path d="M319.81,247a1.53,1.53,0,0,1-1.05-.4,1.31,1.31,0,0,1-.43-1,1.33,1.33,0,0,1,.43-1,1.49,1.49,0,0,1,1.05-.41,1.52,1.52,0,0,1,1.07.41,1.31,1.31,0,0,1,.45,1,1.28,1.28,0,0,1-.45,1A1.49,1.49,0,0,1,319.81,247Zm1.24,13.31h-2.5v-11h2.5Z" fill="#1d1d1b"/>
    <path d="M326.8,260.29h-2.5V244h2.5Z" fill="#1d1d1b"/>
    <path d="M339.36,255.46h-7.5a3.19,3.19,0,0,0,.94,2.35,3.47,3.47,0,0,0,2.47.83,5.44,5.44,0,0,0,3.23-1.05v2a7.38,7.38,0,0,1-4,.94,4.92,4.92,0,0,1-3.81-1.5,6,6,0,0,1-1.38-4.21,5.9,5.9,0,0,1,1.52-4.19,5,5,0,0,1,3.77-1.61,4.34,4.34,0,0,1,3.5,1.45,6,6,0,0,1,1.23,4ZM337,253.7a3.22,3.22,0,0,0-.64-2.09,2.11,2.11,0,0,0-1.72-.75,2.45,2.45,0,0,0-1.82.79,3.61,3.61,0,0,0-.92,2Z" fill="#1d1d1b"/>
    <path d="M350.32,258.7h0v1.59h-2.5V244h2.5v7.22h0a4.08,4.08,0,0,1,3.74-2.19,4,4,0,0,1,3.26,1.47,6.22,6.22,0,0,1,1.17,4,6.89,6.89,0,0,1-1.32,4.42,4.35,4.35,0,0,1-3.61,1.66A3.54,3.54,0,0,1,350.32,258.7Zm-.07-4.38v1.37a2.93,2.93,0,0,0,.77,2,2.52,2.52,0,0,0,2,.84,2.55,2.55,0,0,0,2.18-1.08,5.09,5.09,0,0,0,.79-3,4,4,0,0,0-.74-2.54,2.42,2.42,0,0,0-2-.92,2.68,2.68,0,0,0-2.14,1A3.46,3.46,0,0,0,350.25,254.32Z" fill="#1d1d1b"/>
    <path d="M369.22,260.29h-2.41v-1.72h-.05a3.63,3.63,0,0,1-3.34,2,3.52,3.52,0,0,1-2.54-.88,3.07,3.07,0,0,1-.92-2.33q0-3.12,3.59-3.63l3.27-.46c0-1.57-.75-2.35-2.24-2.35a5.3,5.3,0,0,0-3.54,1.35v-2.18a7.71,7.71,0,0,1,4-1q4.15,0,4.16,4.1Zm-2.4-5.41-2.31.32a3.66,3.66,0,0,0-1.62.53,1.51,1.51,0,0,0-.54,1.33,1.48,1.48,0,0,0,.5,1.15,2,2,0,0,0,1.34.44,2.44,2.44,0,0,0,1.88-.8,2.81,2.81,0,0,0,.75-2Z" fill="#1d1d1b"/>
    <path d="M378.07,260.17a4.4,4.4,0,0,1-1.93.36q-3.19,0-3.2-3.07v-6.22H371.1v-2h1.84v-2.55l2.49-.71v3.26h2.64v2h-2.64v5.5a2.16,2.16,0,0,0,.36,1.4,1.46,1.46,0,0,0,1.18.42,1.76,1.76,0,0,0,1.1-.37Z" fill="#1d1d1b"/>
    <path d="M390,260.29H387.5v-6c0-2.18-.73-3.27-2.18-3.27a2.29,2.29,0,0,0-1.85.95,3.78,3.78,0,0,0-.75,2.42v5.92h-2.51V244h2.51v7.11h0a3.93,3.93,0,0,1,3.57-2.08q3.66,0,3.66,4.48Z" fill="#1d1d1b"/>
    <path d="M394.28,247a1.53,1.53,0,0,1-1-.4,1.32,1.32,0,0,1-.44-1,1.34,1.34,0,0,1,.44-1,1.49,1.49,0,0,1,1-.41,1.52,1.52,0,0,1,1.07.41,1.34,1.34,0,0,1,.44,1,1.31,1.31,0,0,1-.44,1A1.49,1.49,0,0,1,394.28,247Zm1.23,13.31H393v-11h2.49Z" fill="#1d1d1b"/>
    <path d="M408.56,260.29h-2.49v-6.2c0-2.06-.73-3.09-2.18-3.09a2.38,2.38,0,0,0-1.88.86,3.19,3.19,0,0,0-.74,2.15v6.28h-2.5v-11h2.5v1.82h0a3.91,3.91,0,0,1,3.57-2.08,3.35,3.35,0,0,1,2.74,1.16,5.24,5.24,0,0,1,.94,3.37Z" fill="#1d1d1b"/>
    <path d="M421.61,259.4q0,6.06-6.09,6.06a9.09,9.09,0,0,1-3.75-.72v-2.27a7,7,0,0,0,3.43,1c2.62,0,3.92-1.29,3.92-3.86v-1.2h0a4.34,4.34,0,0,1-7,.64,5.94,5.94,0,0,1-1.23-3.94,7,7,0,0,1,1.32-4.46,4.43,4.43,0,0,1,3.64-1.65,3.49,3.49,0,0,1,3.23,1.78h0v-1.52h2.49Zm-2.47-4.15v-1.43a2.77,2.77,0,0,0-.76-2,2.54,2.54,0,0,0-1.92-.83,2.63,2.63,0,0,0-2.22,1.05,4.77,4.77,0,0,0-.8,2.93,4.06,4.06,0,0,0,.77,2.59,2.46,2.46,0,0,0,2,1,2.65,2.65,0,0,0,2.1-.93A3.5,3.5,0,0,0,419.14,255.25Z" fill="#1d1d1b"/>
    <path d="M427.19,257.72l-1.67,5.36h-1.86l1.18-5.36Z" fill="#1d1d1b"/>
    <path d="M207.6,283.94v-2.31a5,5,0,0,0,3.08,1.07c1.51,0,2.26-.45,2.26-1.34a1.06,1.06,0,0,0-.2-.64,1.81,1.81,0,0,0-.52-.46,3.94,3.94,0,0,0-.77-.37l-1-.36a10,10,0,0,1-1.22-.57,3.46,3.46,0,0,1-.91-.69,2.5,2.5,0,0,1-.54-.86,3.23,3.23,0,0,1-.18-1.13,2.62,2.62,0,0,1,.37-1.4,3.5,3.5,0,0,1,1-1,4.9,4.9,0,0,1,1.44-.62,6.65,6.65,0,0,1,1.67-.21,7.51,7.51,0,0,1,2.73.46v2.18a4.61,4.61,0,0,0-2.67-.79,3.7,3.7,0,0,0-.85.09,2.59,2.59,0,0,0-.65.27,1.27,1.27,0,0,0-.42.41,1,1,0,0,0-.15.54,1.16,1.16,0,0,0,.15.6,1.33,1.33,0,0,0,.45.43,3.61,3.61,0,0,0,.71.35l.95.33a13.83,13.83,0,0,1,1.27.6,3.91,3.91,0,0,1,1,.68,2.54,2.54,0,0,1,.61.88,2.87,2.87,0,0,1,.22,1.19,2.72,2.72,0,0,1-.39,1.46,3.27,3.27,0,0,1-1,1,4.85,4.85,0,0,1-1.49.6,7.3,7.3,0,0,1-1.78.2A7.49,7.49,0,0,1,207.6,283.94Z" fill="#1d1d1b"/>
    <path d="M219,271a1.53,1.53,0,0,1-1.05-.4,1.31,1.31,0,0,1-.43-1,1.33,1.33,0,0,1,.43-1,1.49,1.49,0,0,1,1.05-.41,1.52,1.52,0,0,1,1.07.41,1.31,1.31,0,0,1,.44,1,1.27,1.27,0,0,1-.44,1A1.49,1.49,0,0,1,219,271Zm1.23,13.31h-2.49v-11h2.49Z" fill="#1d1d1b"/>
    <path d="M240,284.29h-2.49v-6a4.8,4.8,0,0,0-.49-2.5,1.78,1.78,0,0,0-1.65-.78,2,2,0,0,0-1.66,1,4,4,0,0,0-.68,2.34v6h-2.5v-6.2c0-2-.72-3.08-2.17-3.08a2,2,0,0,0-1.66.93,4.07,4.07,0,0,0-.65,2.39v6h-2.49v-11H226V275h0a3.8,3.8,0,0,1,3.47-2,3.29,3.29,0,0,1,2,.63,3.13,3.13,0,0,1,1.16,1.64,3.93,3.93,0,0,1,3.65-2.27q3.63,0,3.63,4.48Z" fill="#1d1d1b"/>
    <path d="M244.26,271a1.53,1.53,0,0,1-1-.4,1.31,1.31,0,0,1-.43-1,1.33,1.33,0,0,1,.43-1,1.49,1.49,0,0,1,1-.41,1.56,1.56,0,0,1,1.08.41,1.34,1.34,0,0,1,.44,1,1.31,1.31,0,0,1-.44,1A1.53,1.53,0,0,1,244.26,271Zm1.24,13.31H243v-11h2.5Z" fill="#1d1d1b"/>
    <path d="M251.25,284.29h-2.5V268h2.5Z" fill="#1d1d1b"/>
    <path d="M262.94,284.29h-2.42v-1.72h0a3.64,3.64,0,0,1-3.34,2,3.5,3.5,0,0,1-2.54-.88,3.07,3.07,0,0,1-.92-2.33q0-3.12,3.59-3.63l3.27-.46c0-1.57-.75-2.35-2.24-2.35a5.3,5.3,0,0,0-3.54,1.35v-2.18a7.7,7.7,0,0,1,4-1q4.17,0,4.17,4.1Zm-2.4-5.41-2.31.32a3.66,3.66,0,0,0-1.62.53,1.51,1.51,0,0,0-.54,1.33,1.45,1.45,0,0,0,.5,1.15,2,2,0,0,0,1.33.44,2.46,2.46,0,0,0,1.89-.8,2.81,2.81,0,0,0,.75-2Z" fill="#1d1d1b"/>
    <path d="M272.36,275.66a2,2,0,0,0-1.3-.36,2.23,2.23,0,0,0-1.84,1,4.46,4.46,0,0,0-.75,2.72v5.27H266v-11h2.49v2.26h0a3.81,3.81,0,0,1,1.12-1.81,2.54,2.54,0,0,1,1.69-.65,2,2,0,0,1,1,.21Z" fill="#1d1d1b"/>
    <path d="M286,284.17a4.32,4.32,0,0,1-1.92.36q-3.19,0-3.2-3.07v-6.22H279v-1.95h1.84v-2.55l2.49-.71v3.26H286v1.95h-2.63v5.5a2.16,2.16,0,0,0,.36,1.4,1.46,1.46,0,0,0,1.18.42,1.71,1.71,0,0,0,1.09-.37Z" fill="#1d1d1b"/>
    <path d="M292.87,284.54A5.46,5.46,0,0,1,288.8,283a5.59,5.59,0,0,1-1.52-4.09,5.43,5.43,0,0,1,5.86-5.88,5.28,5.28,0,0,1,4,1.51,5.85,5.85,0,0,1,1.44,4.2A5.75,5.75,0,0,1,297,283,5.54,5.54,0,0,1,292.87,284.54ZM293,275a2.81,2.81,0,0,0-2.31,1,4.23,4.23,0,0,0-.85,2.81,4,4,0,0,0,.86,2.72,2.87,2.87,0,0,0,2.3,1,2.75,2.75,0,0,0,2.26-1,4.3,4.3,0,0,0,.79-2.78,4.39,4.39,0,0,0-.79-2.81A2.73,2.73,0,0,0,293,275Z" fill="#1d1d1b"/>
    <path d="M313,284.17a4.38,4.38,0,0,1-1.92.36q-3.21,0-3.21-3.07v-6.22H306v-1.95h1.83v-2.55l2.5-.71v3.26H313v1.95h-2.63v5.5a2.16,2.16,0,0,0,.35,1.4,1.47,1.47,0,0,0,1.18.42,1.74,1.74,0,0,0,1.1-.37Z" fill="#1d1d1b"/>
    <path d="M324.9,284.29h-2.49v-6c0-2.18-.73-3.27-2.18-3.27a2.29,2.29,0,0,0-1.85.95,3.78,3.78,0,0,0-.75,2.42v5.92h-2.5V268h2.5v7.11h0a3.93,3.93,0,0,1,3.57-2.08q3.66,0,3.66,4.48Z" fill="#1d1d1b"/>
    <path d="M336.38,284.29H334v-1.72h0a3.66,3.66,0,0,1-3.35,2,3.52,3.52,0,0,1-2.54-.88,3.07,3.07,0,0,1-.91-2.33q0-3.12,3.58-3.63l3.27-.46c0-1.57-.75-2.35-2.24-2.35a5.3,5.3,0,0,0-3.54,1.35v-2.18a7.71,7.71,0,0,1,4-1q4.17,0,4.17,4.1ZM334,278.88l-2.31.32a3.66,3.66,0,0,0-1.62.53,1.51,1.51,0,0,0-.54,1.33,1.48,1.48,0,0,0,.5,1.15,2,2,0,0,0,1.34.44,2.44,2.44,0,0,0,1.88-.8,2.81,2.81,0,0,0,.75-2Z" fill="#1d1d1b"/>
    <path d="M345.22,284.17a4.4,4.4,0,0,1-1.93.36q-3.19,0-3.2-3.07v-6.22h-1.84v-1.95h1.84v-2.55l2.49-.71v3.26h2.64v1.95h-2.64v5.5a2.16,2.16,0,0,0,.36,1.4,1.46,1.46,0,0,0,1.18.42,1.76,1.76,0,0,0,1.1-.37Z" fill="#1d1d1b"/>
    <path d="M359.63,270a2.31,2.31,0,0,0-1.15-.29c-1.21,0-1.81.68-1.81,2.05v1.5h2.55v1.95h-2.54v9.05h-2.49v-9.05h-1.88v-1.95h1.88V271.5a3.49,3.49,0,0,1,1.13-2.74,4.16,4.16,0,0,1,2.85-1,4.1,4.1,0,0,1,1.46.21Z" fill="#1d1d1b"/>
    <path d="M370.31,279.46h-7.5a3.15,3.15,0,0,0,.94,2.35,3.47,3.47,0,0,0,2.47.83,5.44,5.44,0,0,0,3.23-1.05v2a7.38,7.38,0,0,1-4,.94,4.92,4.92,0,0,1-3.81-1.5,6,6,0,0,1-1.38-4.21,5.85,5.85,0,0,1,1.52-4.19,5,5,0,0,1,3.77-1.61,4.31,4.31,0,0,1,3.49,1.45,6,6,0,0,1,1.24,4Zm-2.41-1.76a3.22,3.22,0,0,0-.63-2.09,2.12,2.12,0,0,0-1.72-.75,2.43,2.43,0,0,0-1.82.79,3.61,3.61,0,0,0-.92,2.05Z" fill="#1d1d1b"/>
    <path d="M382,279.46h-7.5a3.15,3.15,0,0,0,.94,2.35,3.46,3.46,0,0,0,2.46.83,5.45,5.45,0,0,0,3.24-1.05v2a7.42,7.42,0,0,1-4,.94,4.93,4.93,0,0,1-3.81-1.5,6,6,0,0,1-1.38-4.21,5.86,5.86,0,0,1,1.53-4.19,5,5,0,0,1,3.77-1.61,4.32,4.32,0,0,1,3.49,1.45,6,6,0,0,1,1.24,4Zm-2.41-1.76a3.27,3.27,0,0,0-.63-2.09,2.12,2.12,0,0,0-1.72-.75,2.43,2.43,0,0,0-1.82.79,3.54,3.54,0,0,0-.92,2.05Z" fill="#1d1d1b"/>
    <path d="M386.87,284.29h-2.5V268h2.5Z" fill="#1d1d1b"/>
    <path d="M391.38,271a1.53,1.53,0,0,1-1.05-.4,1.32,1.32,0,0,1-.44-1,1.34,1.34,0,0,1,.44-1,1.49,1.49,0,0,1,1.05-.41,1.52,1.52,0,0,1,1.07.41,1.34,1.34,0,0,1,.44,1,1.31,1.31,0,0,1-.44,1A1.49,1.49,0,0,1,391.38,271Zm1.23,13.31h-2.49v-11h2.49Z" fill="#1d1d1b"/>
    <path d="M405.66,284.29h-2.49v-6.2c0-2.06-.73-3.09-2.18-3.09a2.38,2.38,0,0,0-1.88.86,3.19,3.19,0,0,0-.74,2.15v6.28h-2.5v-11h2.5v1.82h0A3.91,3.91,0,0,1,402,273a3.35,3.35,0,0,1,2.74,1.16,5.24,5.24,0,0,1,.94,3.37Z" fill="#1d1d1b"/>
    <path d="M418.71,283.4q0,6.06-6.09,6.06a9.09,9.09,0,0,1-3.75-.72v-2.27a7,7,0,0,0,3.43,1c2.62,0,3.92-1.29,3.92-3.86v-1.2h0a4.34,4.34,0,0,1-7,.64,5.94,5.94,0,0,1-1.23-3.94,7,7,0,0,1,1.32-4.46A4.43,4.43,0,0,1,413,273a3.49,3.49,0,0,1,3.23,1.78h0v-1.52h2.49Zm-2.47-4.15v-1.43a2.74,2.74,0,0,0-.77-2,2.51,2.51,0,0,0-1.91-.83,2.63,2.63,0,0,0-2.22,1.05,4.77,4.77,0,0,0-.8,2.93,4,4,0,0,0,.77,2.59,2.46,2.46,0,0,0,2,1,2.65,2.65,0,0,0,2.1-.93A3.55,3.55,0,0,0,416.24,279.25Z" fill="#1d1d1b"/>
    <path d="M200.36,297.29l-3.24,11h-2.61l-2-7.46a4.59,4.59,0,0,1-.15-1h0a4.5,4.5,0,0,1-.2.95L190,308.29H187.4l-3.24-11h2.58l2,7.92a4.94,4.94,0,0,1,.13,1h.07a5.43,5.43,0,0,1,.18-1l2.22-7.9h2.34l2,8a6.12,6.12,0,0,1,.14.94h.07a5.77,5.77,0,0,1,.16-.94l2-8Z" fill="#1d1d1b"/>
    <path d="M212,308.29h-2.5v-6c0-2.18-.72-3.27-2.18-3.27a2.27,2.27,0,0,0-1.84.95,3.73,3.73,0,0,0-.76,2.42v5.92h-2.5V292h2.5v7.11h0a3.93,3.93,0,0,1,3.56-2.08q3.68,0,3.67,4.48Z" fill="#1d1d1b"/>
    <path d="M224.33,303.46h-7.5a3.15,3.15,0,0,0,.94,2.35,3.47,3.47,0,0,0,2.47.83,5.44,5.44,0,0,0,3.23-1.05v2a7.38,7.38,0,0,1-4,.94,4.92,4.92,0,0,1-3.81-1.5,6,6,0,0,1-1.38-4.21,5.85,5.85,0,0,1,1.52-4.19A5,5,0,0,1,219.6,297a4.31,4.31,0,0,1,3.49,1.45,6,6,0,0,1,1.24,4Zm-2.41-1.76a3.22,3.22,0,0,0-.63-2.09,2.12,2.12,0,0,0-1.72-.75,2.43,2.43,0,0,0-1.82.79,3.61,3.61,0,0,0-.92,2.05Z" fill="#1d1d1b"/>
    <path d="M236.5,308.29H234v-6.2c0-2.06-.73-3.09-2.18-3.09a2.38,2.38,0,0,0-1.88.86,3.14,3.14,0,0,0-.74,2.15v6.28H226.7v-11h2.51v1.82h0a3.91,3.91,0,0,1,3.57-2.08,3.33,3.33,0,0,1,2.73,1.16,5.24,5.24,0,0,1,.95,3.37Z" fill="#1d1d1b"/>
    <path d="M255.12,297.29l-5,12.76c-1,2.27-2.47,3.41-4.34,3.41a4.91,4.91,0,0,1-1.31-.14v-2.07a3.47,3.47,0,0,0,1.08.19,2.22,2.22,0,0,0,2.08-1.37l.74-1.81-4.37-11h2.76l2.62,8c0,.1.09.36.2.79h0c0-.16.1-.42.19-.77l2.75-8Z" fill="#1d1d1b"/>
    <path d="M261.49,308.54a5.44,5.44,0,0,1-4.07-1.54,5.59,5.59,0,0,1-1.52-4.09,5.41,5.41,0,0,1,5.85-5.88,5.28,5.28,0,0,1,4,1.51,5.85,5.85,0,0,1,1.44,4.2,5.79,5.79,0,0,1-1.55,4.22A5.57,5.57,0,0,1,261.49,308.54Zm.11-9.53a2.84,2.84,0,0,0-2.31,1,4.28,4.28,0,0,0-.84,2.81,4,4,0,0,0,.86,2.72,2.85,2.85,0,0,0,2.29,1,2.76,2.76,0,0,0,2.27-1,4.36,4.36,0,0,0,.79-2.78,4.45,4.45,0,0,0-.79-2.81A2.73,2.73,0,0,0,261.6,299Z" fill="#1d1d1b"/>
    <path d="M279.34,308.29h-2.49v-1.75h-.05a3.56,3.56,0,0,1-3.37,2q-3.9,0-3.9-4.68v-6.57H272v6.31c0,2,.77,3,2.29,3a2.31,2.31,0,0,0,1.82-.82,3.11,3.11,0,0,0,.72-2.14v-6.32h2.49Z" fill="#1d1d1b"/>
    <path d="M285.55,292.58l-1.75,4.78h-1.65l1.22-4.78Z" fill="#1d1d1b"/>
    <path d="M294.6,299.66a2,2,0,0,0-1.3-.36,2.23,2.23,0,0,0-1.84,1,4.45,4.45,0,0,0-.74,2.72v5.27h-2.5v-11h2.5v2.26h0a3.89,3.89,0,0,1,1.12-1.81,2.56,2.56,0,0,1,1.69-.65,2,2,0,0,1,1,.21Z" fill="#1d1d1b"/>
    <path d="M305.49,303.46H298a3.15,3.15,0,0,0,.94,2.35,3.46,3.46,0,0,0,2.46.83,5.45,5.45,0,0,0,3.24-1.05v2a7.42,7.42,0,0,1-4,.94,4.92,4.92,0,0,1-3.81-1.5,6,6,0,0,1-1.38-4.21,5.9,5.9,0,0,1,1.52-4.19,5,5,0,0,1,3.78-1.61,4.32,4.32,0,0,1,3.49,1.45,6,6,0,0,1,1.24,4Zm-2.41-1.76a3.27,3.27,0,0,0-.63-2.09,2.12,2.12,0,0,0-1.72-.75,2.41,2.41,0,0,0-1.82.79,3.54,3.54,0,0,0-.92,2.05Z" fill="#1d1d1b"/>
    <path d="M316.41,308.29h-2.5V292h2.5Z" fill="#1d1d1b"/>
    <path d="M328.1,308.29h-2.42v-1.72h0a3.64,3.64,0,0,1-3.34,2,3.5,3.5,0,0,1-2.54-.88,3,3,0,0,1-.92-2.33q0-3.12,3.59-3.63l3.26-.46c0-1.57-.74-2.35-2.23-2.35a5.34,5.34,0,0,0-3.55,1.35v-2.18a7.71,7.71,0,0,1,4-1q4.17,0,4.17,4.1Zm-2.41-5.41-2.31.32a3.66,3.66,0,0,0-1.61.53,1.73,1.73,0,0,0,0,2.48,2,2,0,0,0,1.34.44,2.46,2.46,0,0,0,1.89-.8,2.85,2.85,0,0,0,.74-2Z" fill="#1d1d1b"/>
    <path d="M340.67,297.29l-5,12.76c-1,2.27-2.47,3.41-4.34,3.41a4.91,4.91,0,0,1-1.31-.14v-2.07a3.52,3.52,0,0,0,1.08.19,2.22,2.22,0,0,0,2.08-1.37l.74-1.81-4.37-11h2.76l2.62,8c0,.1.1.36.2.79h0c0-.16.1-.42.19-.77l2.75-8Z" fill="#1d1d1b"/>
    <path d="M343.58,295a1.53,1.53,0,0,1-1.05-.4,1.31,1.31,0,0,1-.43-1,1.33,1.33,0,0,1,.43-1,1.49,1.49,0,0,1,1.05-.41,1.52,1.52,0,0,1,1.07.41,1.31,1.31,0,0,1,.44,1,1.27,1.27,0,0,1-.44,1A1.49,1.49,0,0,1,343.58,295Zm1.23,13.31h-2.49v-11h2.49Z" fill="#1d1d1b"/>
    <path d="M357.87,308.29h-2.5v-6.2c0-2.06-.72-3.09-2.18-3.09a2.39,2.39,0,0,0-1.88.86,3.19,3.19,0,0,0-.74,2.15v6.28h-2.5v-11h2.5v1.82h0a3.93,3.93,0,0,1,3.57-2.08,3.33,3.33,0,0,1,2.74,1.16,5.24,5.24,0,0,1,.95,3.37Z" fill="#1d1d1b"/>
    <path d="M370.92,307.4q0,6.06-6.09,6.06a9,9,0,0,1-3.75-.72v-2.27a7,7,0,0,0,3.42,1c2.62,0,3.92-1.29,3.92-3.86v-1.2h0a4.33,4.33,0,0,1-6.95.64,5.94,5.94,0,0,1-1.23-3.94,7,7,0,0,1,1.32-4.46,4.39,4.39,0,0,1,3.63-1.65,3.49,3.49,0,0,1,3.23,1.78h0v-1.52h2.5Zm-2.47-4.15v-1.43a2.78,2.78,0,0,0-.77-2,2.51,2.51,0,0,0-1.92-.83,2.65,2.65,0,0,0-2.22,1.05,4.77,4.77,0,0,0-.8,2.93,4.06,4.06,0,0,0,.77,2.59,2.47,2.47,0,0,0,2,1,2.63,2.63,0,0,0,2.09-.93A3.5,3.5,0,0,0,368.45,303.25Z" fill="#1d1d1b"/>
    <path d="M385.09,308.54A5.44,5.44,0,0,1,381,307a5.59,5.59,0,0,1-1.52-4.09,5.41,5.41,0,0,1,5.85-5.88,5.28,5.28,0,0,1,4,1.51,5.85,5.85,0,0,1,1.44,4.2,5.79,5.79,0,0,1-1.55,4.22A5.57,5.57,0,0,1,385.09,308.54Zm.11-9.53a2.84,2.84,0,0,0-2.31,1,4.28,4.28,0,0,0-.84,2.81,4,4,0,0,0,.86,2.72,2.85,2.85,0,0,0,2.29,1,2.76,2.76,0,0,0,2.27-1,4.36,4.36,0,0,0,.78-2.78,4.45,4.45,0,0,0-.78-2.81A2.73,2.73,0,0,0,385.2,299Z" fill="#1d1d1b"/>
    <path d="M403.14,308.29h-2.49v-6.2c0-2.06-.73-3.09-2.18-3.09a2.38,2.38,0,0,0-1.88.86,3.19,3.19,0,0,0-.74,2.15v6.28h-2.5v-11h2.5v1.82h0a3.93,3.93,0,0,1,3.57-2.08,3.33,3.33,0,0,1,2.74,1.16,5.24,5.24,0,0,1,.94,3.37Z" fill="#1d1d1b"/>
    <path d="M418,308.17a4.38,4.38,0,0,1-1.92.36q-3.19,0-3.2-3.07v-6.22h-1.84v-1.95h1.84v-2.55l2.49-.71v3.26H418v1.95H415.4v5.5a2.23,2.23,0,0,0,.35,1.4,1.48,1.48,0,0,0,1.19.42,1.73,1.73,0,0,0,1.09-.37Z" fill="#1d1d1b"/>
    <path d="M430,308.29h-2.5v-6c0-2.18-.72-3.27-2.18-3.27a2.27,2.27,0,0,0-1.84.95,3.73,3.73,0,0,0-.76,2.42v5.92h-2.5V292h2.5v7.11h.05a3.93,3.93,0,0,1,3.56-2.08q3.68,0,3.67,4.48Z" fill="#1d1d1b"/>
    <path d="M442.3,303.46h-7.5a3.15,3.15,0,0,0,.94,2.35,3.47,3.47,0,0,0,2.47.83,5.44,5.44,0,0,0,3.23-1.05v2a7.4,7.4,0,0,1-4,.94,4.91,4.91,0,0,1-3.8-1.5,6,6,0,0,1-1.38-4.21,5.85,5.85,0,0,1,1.52-4.19,5,5,0,0,1,3.77-1.61,4.31,4.31,0,0,1,3.49,1.45,6,6,0,0,1,1.24,4Zm-2.41-1.76a3.22,3.22,0,0,0-.63-2.09,2.12,2.12,0,0,0-1.72-.75,2.43,2.43,0,0,0-1.82.79,3.61,3.61,0,0,0-.92,2.05Z" fill="#1d1d1b"/>
    <path d="M198,330.7h0v1.59h-2.49V316H198v7.22h0a4.1,4.1,0,0,1,3.74-2.19A3.94,3.94,0,0,1,205,322.5a6.17,6.17,0,0,1,1.18,4,6.89,6.89,0,0,1-1.32,4.42,4.36,4.36,0,0,1-3.61,1.66A3.54,3.54,0,0,1,198,330.7Zm-.06-4.38v1.37a2.88,2.88,0,0,0,.77,2,2.7,2.7,0,0,0,4.12-.24,5,5,0,0,0,.79-3,4,4,0,0,0-.73-2.54,2.45,2.45,0,0,0-2-.92,2.68,2.68,0,0,0-2.14.95A3.5,3.5,0,0,0,198,326.32Z" fill="#1d1d1b"/>
    <path d="M218.08,327.46h-7.5a3.15,3.15,0,0,0,.94,2.35,3.46,3.46,0,0,0,2.46.83,5.45,5.45,0,0,0,3.24-1.05v2a7.42,7.42,0,0,1-4,.94,4.88,4.88,0,0,1-3.8-1.5,6.79,6.79,0,0,1,.13-8.4,5,5,0,0,1,3.78-1.61,4.32,4.32,0,0,1,3.49,1.45,6,6,0,0,1,1.24,4Zm-2.41-1.76a3.27,3.27,0,0,0-.63-2.09,2.12,2.12,0,0,0-1.72-.75,2.43,2.43,0,0,0-1.82.79,3.54,3.54,0,0,0-.92,2.05Z" fill="#1d1d1b"/>
    <path d="M228.89,332.29h-2.41v-1.72h0a3.63,3.63,0,0,1-3.34,2,3.52,3.52,0,0,1-2.54-.88,3.07,3.07,0,0,1-.92-2.33q0-3.12,3.59-3.63l3.27-.46c0-1.57-.75-2.35-2.24-2.35a5.3,5.3,0,0,0-3.54,1.35v-2.18a7.71,7.71,0,0,1,4-1q4.16,0,4.16,4.1Zm-2.4-5.41-2.31.32a3.66,3.66,0,0,0-1.62.53,1.51,1.51,0,0,0-.54,1.33,1.48,1.48,0,0,0,.5,1.15,2,2,0,0,0,1.34.44,2.44,2.44,0,0,0,1.88-.8,2.81,2.81,0,0,0,.75-2Z" fill="#1d1d1b"/>
    <path d="M239.81,331.78a6.13,6.13,0,0,1-3.13.76,5.29,5.29,0,0,1-4-1.53,5.42,5.42,0,0,1-1.5-4,5.94,5.94,0,0,1,1.61-4.36,5.79,5.79,0,0,1,4.33-1.65,6.33,6.33,0,0,1,2.65.52v2.32a4,4,0,0,0-2.45-.86,3.42,3.42,0,0,0-2.59,1.07,3.94,3.94,0,0,0-1,2.8,3.75,3.75,0,0,0,.95,2.7,3.39,3.39,0,0,0,2.55,1,4,4,0,0,0,2.54-1Z" fill="#1d1d1b"/>
    <path d="M252.05,332.29h-2.49v-6c0-2.18-.72-3.27-2.18-3.27a2.3,2.3,0,0,0-1.85.95,3.78,3.78,0,0,0-.75,2.42v5.92h-2.5V316h2.5v7.11h.05a3.92,3.92,0,0,1,3.56-2.08q3.66,0,3.66,4.48Z" fill="#1d1d1b"/>
    <path d="M270.45,327.46H263a3.15,3.15,0,0,0,.94,2.35,3.44,3.44,0,0,0,2.46.83,5.47,5.47,0,0,0,3.24-1.05v2a7.42,7.42,0,0,1-4,.94,4.92,4.92,0,0,1-3.81-1.5,6,6,0,0,1-1.38-4.21,5.9,5.9,0,0,1,1.52-4.19,5,5,0,0,1,3.78-1.61,4.32,4.32,0,0,1,3.49,1.45,6,6,0,0,1,1.24,4ZM268,325.7a3.27,3.27,0,0,0-.63-2.09,2.12,2.12,0,0,0-1.72-.75,2.41,2.41,0,0,0-1.82.79,3.54,3.54,0,0,0-.92,2.05Z" fill="#1d1d1b"/>
    <path d="M282.62,332.29h-2.5v-6.2c0-2.06-.72-3.09-2.18-3.09a2.39,2.39,0,0,0-1.88.86,3.19,3.19,0,0,0-.74,2.15v6.28h-2.5v-11h2.5v1.82h.05a3.91,3.91,0,0,1,3.56-2.08,3.33,3.33,0,0,1,2.74,1.16,5.24,5.24,0,0,1,.95,3.37Z" fill="#1d1d1b"/>
    <path d="M288.15,331.82A6.69,6.69,0,0,1,287,336a3.89,3.89,0,0,1-3.26,1.46,3.54,3.54,0,0,1-1.52-.34V335a2.38,2.38,0,0,0,1.32.48c1.4,0,2.11-1.23,2.11-3.71V321.29h2.49ZM286.92,319a1.52,1.52,0,0,1-1-.4,1.32,1.32,0,0,1-.44-1,1.34,1.34,0,0,1,.44-1,1.48,1.48,0,0,1,1-.41,1.54,1.54,0,0,1,1.07.41,1.34,1.34,0,0,1,.44,1,1.31,1.31,0,0,1-.44,1A1.5,1.5,0,0,1,286.92,319Z" fill="#1d1d1b"/>
    <path d="M296.28,332.54a5.46,5.46,0,0,1-4.07-1.54,5.59,5.59,0,0,1-1.52-4.09,5.43,5.43,0,0,1,5.86-5.88,5.28,5.28,0,0,1,4,1.51,5.85,5.85,0,0,1,1.44,4.2,5.75,5.75,0,0,1-1.56,4.22A5.54,5.54,0,0,1,296.28,332.54Zm.12-9.53a2.81,2.81,0,0,0-2.31,1,4.23,4.23,0,0,0-.85,2.81,4,4,0,0,0,.86,2.72,2.87,2.87,0,0,0,2.3,1,2.75,2.75,0,0,0,2.26-1,4.3,4.3,0,0,0,.79-2.78,4.39,4.39,0,0,0-.79-2.81A2.73,2.73,0,0,0,296.4,323Z" fill="#1d1d1b"/>
    <path d="M314.07,321.29l-5,12.76q-1.55,3.4-4.34,3.41a4.86,4.86,0,0,1-1.31-.14v-2.07a3.41,3.41,0,0,0,1.07.19,2.21,2.21,0,0,0,2.08-1.37l.75-1.81-4.38-11h2.76l2.63,8c0,.1.09.36.19.79h.05c0-.16.1-.42.2-.77l2.75-8Z" fill="#1d1d1b"/>
    <path d="M317,319a1.53,1.53,0,0,1-1.05-.4,1.31,1.31,0,0,1-.43-1,1.33,1.33,0,0,1,.43-1,1.49,1.49,0,0,1,1.05-.41,1.52,1.52,0,0,1,1.07.41,1.31,1.31,0,0,1,.45,1,1.28,1.28,0,0,1-.45,1A1.49,1.49,0,0,1,317,319Zm1.24,13.31h-2.5v-11h2.5Z" fill="#1d1d1b"/>
    <path d="M331.27,332.29h-2.49v-6.2q0-3.09-2.19-3.09a2.41,2.41,0,0,0-1.88.86A3.19,3.19,0,0,0,324,326v6.28h-2.5v-11H324v1.82h0a3.91,3.91,0,0,1,3.56-2.08,3.33,3.33,0,0,1,2.74,1.16,5.24,5.24,0,0,1,.95,3.37Z" fill="#1d1d1b"/>
    <path d="M344.32,331.4q0,6.06-6.09,6.06a9.09,9.09,0,0,1-3.75-.72v-2.27a7,7,0,0,0,3.43,1q3.91,0,3.92-3.86v-1.2h-.05a4.33,4.33,0,0,1-6.95.64,5.94,5.94,0,0,1-1.23-3.94,7,7,0,0,1,1.32-4.46,4.39,4.39,0,0,1,3.63-1.65,3.49,3.49,0,0,1,3.23,1.78h.05v-1.52h2.49Zm-2.47-4.15v-1.43a2.78,2.78,0,0,0-.77-2,2.51,2.51,0,0,0-1.92-.83,2.62,2.62,0,0,0-2.21,1.05,4.7,4.7,0,0,0-.81,2.93,4.06,4.06,0,0,0,.77,2.59,2.47,2.47,0,0,0,2,1,2.62,2.62,0,0,0,2.09-.93A3.5,3.5,0,0,0,341.85,327.25Z" fill="#1d1d1b"/>
    <path d="M352.92,331.94v-2.31A5,5,0,0,0,356,330.7c1.5,0,2.25-.45,2.25-1.34a1.05,1.05,0,0,0-.19-.64,1.81,1.81,0,0,0-.52-.46,4,4,0,0,0-.78-.37l-1-.36a10.74,10.74,0,0,1-1.22-.57,3.57,3.57,0,0,1-.9-.69,2.5,2.5,0,0,1-.54-.86,3.22,3.22,0,0,1-.19-1.13,2.62,2.62,0,0,1,.38-1.4,3.38,3.38,0,0,1,1-1,4.68,4.68,0,0,1,1.44-.62,6.57,6.57,0,0,1,1.66-.21,7.51,7.51,0,0,1,2.73.46v2.18a4.58,4.58,0,0,0-2.66-.79,3.63,3.63,0,0,0-.85.09,2.31,2.31,0,0,0-.65.27,1.27,1.27,0,0,0-.42.41,1,1,0,0,0-.15.54,1.16,1.16,0,0,0,.15.6,1.39,1.39,0,0,0,.44.43,4.27,4.27,0,0,0,.71.35l.95.33a12.69,12.69,0,0,1,1.27.6,4.18,4.18,0,0,1,1,.68,2.68,2.68,0,0,1,.61.88,3.05,3.05,0,0,1,.21,1.19,2.81,2.81,0,0,1-.38,1.46,3.27,3.27,0,0,1-1,1,4.85,4.85,0,0,1-1.49.6,7.36,7.36,0,0,1-1.78.2A7.53,7.53,0,0,1,352.92,331.94Z" fill="#1d1d1b"/>
    <path d="M372.69,332.29H370.2v-1.75h-.05a3.56,3.56,0,0,1-3.37,2q-3.9,0-3.9-4.68v-6.57h2.49v6.31c0,2,.77,3,2.29,3a2.31,2.31,0,0,0,1.82-.82,3.11,3.11,0,0,0,.72-2.14v-6.32h2.49Z" fill="#1d1d1b"/>
    <path d="M392.38,332.29h-2.49v-6a4.9,4.9,0,0,0-.49-2.5,1.8,1.8,0,0,0-1.65-.78,2,2,0,0,0-1.66,1,4,4,0,0,0-.68,2.34v6h-2.5v-6.2c0-2-.73-3.08-2.17-3.08a1.94,1.94,0,0,0-1.66.93,4,4,0,0,0-.65,2.39v6h-2.5v-11h2.5V323h0a3.79,3.79,0,0,1,3.47-2,3.26,3.26,0,0,1,2,.63,3.09,3.09,0,0,1,1.17,1.64,3.92,3.92,0,0,1,3.65-2.27q3.63,0,3.63,4.48Z" fill="#1d1d1b"/>
    <path d="M411.87,332.29h-2.5v-6a4.91,4.91,0,0,0-.48-2.5,1.8,1.8,0,0,0-1.65-.78,2,2,0,0,0-1.66,1,4,4,0,0,0-.69,2.34v6h-2.5v-6.2c0-2-.72-3.08-2.17-3.08a2,2,0,0,0-1.66.93,4.07,4.07,0,0,0-.65,2.39v6h-2.49v-11h2.49V323h0a3.79,3.79,0,0,1,3.46-2,3.29,3.29,0,0,1,2,.63,3,3,0,0,1,1.16,1.64,3.94,3.94,0,0,1,3.66-2.27q3.63,0,3.63,4.48Z" fill="#1d1d1b"/>
    <path d="M424.22,327.46h-7.5a3.15,3.15,0,0,0,.94,2.35,3.47,3.47,0,0,0,2.47.83,5.44,5.44,0,0,0,3.23-1.05v2a7.38,7.38,0,0,1-4,.94,4.92,4.92,0,0,1-3.81-1.5,6,6,0,0,1-1.38-4.21,5.85,5.85,0,0,1,1.52-4.19,5,5,0,0,1,3.77-1.61,4.31,4.31,0,0,1,3.49,1.45,6,6,0,0,1,1.24,4Zm-2.41-1.76a3.22,3.22,0,0,0-.63-2.09,2.12,2.12,0,0,0-1.72-.75,2.45,2.45,0,0,0-1.82.79,3.61,3.61,0,0,0-.92,2.05Z" fill="#1d1d1b"/>
    <path d="M433,323.66a2,2,0,0,0-1.3-.36,2.23,2.23,0,0,0-1.84,1,4.45,4.45,0,0,0-.74,2.72v5.27h-2.5v-11h2.5v2.26h0a3.89,3.89,0,0,1,1.12-1.81,2.56,2.56,0,0,1,1.69-.65,2,2,0,0,1,1,.21Z" fill="#1d1d1b"/>
  </g>
</svg>
