<svg xmlns="http://www.w3.org/2000/svg" xmlns:xlink="http://www.w3.org/1999/xlink" viewBox="0 0 595.28 536">
  <g id="txt_bubble_2">
    <image width="4248" height="3840" transform="translate(1.16) scale(0.14)" xlink:href="../layout_images/txt_bubble.png"/>
    <g>
      <path d="M195.7,212.29h-2.8l-1.39-3.93h-6.06l-1.33,3.93h-2.79l5.77-15.41H190Zm-4.87-6-2.13-6.14a6.27,6.27,0,0,1-.21-1h0a6.87,6.87,0,0,1-.22,1l-2.11,6.14Z" fill="#1d1d1b"/>
      <path d="M208.46,212.54A5.42,5.42,0,0,1,204.4,211a5.55,5.55,0,0,1-1.52-4.09,5.79,5.79,0,0,1,1.58-4.33,5.86,5.86,0,0,1,4.27-1.55,5.28,5.28,0,0,1,4,1.51,5.85,5.85,0,0,1,1.44,4.2,5.79,5.79,0,0,1-1.55,4.22A5.58,5.58,0,0,1,208.46,212.54Zm.12-9.53a2.84,2.84,0,0,0-2.31,1,4.23,4.23,0,0,0-.85,2.81,4,4,0,0,0,.86,2.72,2.87,2.87,0,0,0,2.3,1,2.75,2.75,0,0,0,2.26-1,4.3,4.3,0,0,0,.79-2.78,4.39,4.39,0,0,0-.79-2.81A2.73,2.73,0,0,0,208.58,203Z" fill="#1d1d1b"/>
      <path d="M226.52,212.29H224v-6.2c0-2.06-.73-3.09-2.18-3.09a2.38,2.38,0,0,0-1.88.86,3.15,3.15,0,0,0-.75,2.15v6.28h-2.5v-11h2.5v1.82h.05a3.91,3.91,0,0,1,3.56-2.08,3.33,3.33,0,0,1,2.74,1.16,5.24,5.24,0,0,1,1,3.37Z" fill="#1d1d1b"/>
      <path d="M238.87,207.46h-7.5a3.19,3.19,0,0,0,.94,2.35,3.47,3.47,0,0,0,2.47.83,5.44,5.44,0,0,0,3.23-1v2a7.36,7.36,0,0,1-4,.94,4.92,4.92,0,0,1-3.81-1.5,6,6,0,0,1-1.38-4.21,5.9,5.9,0,0,1,1.52-4.19,5,5,0,0,1,3.78-1.61,4.34,4.34,0,0,1,3.49,1.45,6,6,0,0,1,1.23,4Zm-2.4-1.76a3.22,3.22,0,0,0-.64-2.09,2.11,2.11,0,0,0-1.72-.75,2.45,2.45,0,0,0-1.82.79,3.67,3.67,0,0,0-.92,2Z" fill="#1d1d1b"/>
      <path d="M257.07,212.29h-2.49v-6c0-2.18-.73-3.27-2.18-3.27a2.29,2.29,0,0,0-1.85.95,3.78,3.78,0,0,0-.75,2.42v5.92h-2.51V196h2.51v7.11h0a3.93,3.93,0,0,1,3.57-2.08q3.66,0,3.66,4.48Z" fill="#1d1d1b"/>
      <path d="M265,212.54a5.44,5.44,0,0,1-4.07-1.54,5.59,5.59,0,0,1-1.52-4.09,5.41,5.41,0,0,1,5.85-5.88,5.28,5.28,0,0,1,4,1.51,5.85,5.85,0,0,1,1.44,4.2,5.79,5.79,0,0,1-1.55,4.22A5.57,5.57,0,0,1,265,212.54Zm.11-9.53a2.84,2.84,0,0,0-2.31,1,4.28,4.28,0,0,0-.84,2.81,4,4,0,0,0,.86,2.72,2.85,2.85,0,0,0,2.29,1,2.76,2.76,0,0,0,2.27-1,4.36,4.36,0,0,0,.78-2.78,4.45,4.45,0,0,0-.78-2.81A2.73,2.73,0,0,0,265.09,203Z" fill="#1d1d1b"/>
      <path d="M282.83,212.29h-2.49v-1.75h0a3.56,3.56,0,0,1-3.37,2q-3.9,0-3.9-4.68v-6.57h2.49v6.31c0,2,.77,3,2.29,3a2.31,2.31,0,0,0,1.82-.82,3.11,3.11,0,0,0,.72-2.14v-6.32h2.49Z" fill="#1d1d1b"/>
      <path d="M292.45,203.66a2,2,0,0,0-1.3-.36,2.23,2.23,0,0,0-1.84,1,4.45,4.45,0,0,0-.74,2.72v5.27h-2.5v-11h2.5v2.26h0a3.89,3.89,0,0,1,1.12-1.81,2.56,2.56,0,0,1,1.69-.65,2,2,0,0,1,1,.21Z" fill="#1d1d1b"/>
      <path d="M302.8,210.7h0v1.59h-2.5V196h2.5v7.22h0a4.08,4.08,0,0,1,3.74-2.19,4,4,0,0,1,3.26,1.47,6.22,6.22,0,0,1,1.17,4,6.89,6.89,0,0,1-1.32,4.42,4.35,4.35,0,0,1-3.61,1.66A3.54,3.54,0,0,1,302.8,210.7Zm-.07-4.38v1.37a2.93,2.93,0,0,0,.77,2,2.71,2.71,0,0,0,4.13-.24,5.09,5.09,0,0,0,.79-3,4,4,0,0,0-.74-2.54,2.42,2.42,0,0,0-2-.92,2.68,2.68,0,0,0-2.14,1A3.51,3.51,0,0,0,302.73,206.32Z" fill="#1d1d1b"/>
      <path d="M321.71,212.29h-2.42v-1.72h0a3.66,3.66,0,0,1-3.35,2,3.52,3.52,0,0,1-2.54-.88,3.07,3.07,0,0,1-.91-2.33q0-3.12,3.58-3.63l3.27-.46c0-1.57-.75-2.35-2.24-2.35a5.3,5.3,0,0,0-3.54,1.35v-2.18a7.71,7.71,0,0,1,4-1q4.17,0,4.17,4.1Zm-2.41-5.41-2.31.32a3.66,3.66,0,0,0-1.62.53,1.51,1.51,0,0,0-.54,1.33,1.48,1.48,0,0,0,.5,1.15,2,2,0,0,0,1.34.44,2.42,2.42,0,0,0,1.88-.8,2.81,2.81,0,0,0,.75-2Z" fill="#1d1d1b"/>
      <path d="M330.55,212.17a4.4,4.4,0,0,1-1.93.36q-3.19,0-3.2-3.07v-6.22h-1.83v-2h1.83v-2.55l2.49-.71v3.26h2.64v2h-2.64v5.5a2.16,2.16,0,0,0,.36,1.4,1.47,1.47,0,0,0,1.18.42,1.76,1.76,0,0,0,1.1-.37Z" fill="#1d1d1b"/>
      <path d="M342.47,212.29H340v-6c0-2.18-.73-3.27-2.18-3.27A2.29,2.29,0,0,0,336,204a3.78,3.78,0,0,0-.75,2.42v5.92h-2.51V196h2.51v7.11h0a3.93,3.93,0,0,1,3.57-2.08q3.66,0,3.66,4.48Z" fill="#1d1d1b"/>
      <path d="M360,212.29h-2.42v-1.72h0a3.64,3.64,0,0,1-3.34,2,3.5,3.5,0,0,1-2.54-.88,3.07,3.07,0,0,1-.92-2.33q0-3.12,3.59-3.63l3.26-.46c0-1.57-.74-2.35-2.23-2.35a5.3,5.3,0,0,0-3.54,1.35v-2.18a7.67,7.67,0,0,1,4-1q4.17,0,4.17,4.1Zm-2.41-5.41-2.31.32a3.66,3.66,0,0,0-1.61.53,1.51,1.51,0,0,0-.54,1.33,1.48,1.48,0,0,0,.49,1.15,2,2,0,0,0,1.34.44,2.46,2.46,0,0,0,1.89-.8,2.81,2.81,0,0,0,.74-2Z" fill="#1d1d1b"/>
      <path d="M368.83,212.17a4.38,4.38,0,0,1-1.92.36c-2.14,0-3.2-1-3.2-3.07v-6.22h-1.84v-2h1.84v-2.55l2.49-.71v3.26h2.63v2H366.2v5.5a2.23,2.23,0,0,0,.35,1.4,1.48,1.48,0,0,0,1.19.42,1.73,1.73,0,0,0,1.09-.37Z" fill="#1d1d1b"/>
      <path d="M376.73,211.72v-2.35a5.28,5.28,0,0,0,3.39,1.2,4,4,0,0,0,2.46-.7,2.26,2.26,0,0,0,.91-1.89q0-2.62-4-2.62H378.3v-2h1.13q3.56,0,3.56-2.47c0-1.52-.92-2.28-2.77-2.28a4.54,4.54,0,0,0-2.91,1.11V197.5a7.5,7.5,0,0,1,3.7-.88,5,5,0,0,1,3.29,1,3.31,3.31,0,0,1,1.24,2.65,3.78,3.78,0,0,1-3.1,3.91v0a4.05,4.05,0,0,1,2.63,1.17,3.44,3.44,0,0,1,1,2.5,4.11,4.11,0,0,1-1.56,3.35,6.26,6.26,0,0,1-4.1,1.27A7,7,0,0,1,376.73,211.72Z" fill="#1d1d1b"/>
      <path d="M388.6,208a5,5,0,0,1,.16-1.29,4.09,4.09,0,0,1,.5-1.15,4,4,0,0,1,.84-1,4.37,4.37,0,0,1,1.18-.67,4.61,4.61,0,0,1-1.59-1.44,3.41,3.41,0,0,1-.59-1.94,3.57,3.57,0,0,1,.35-1.56,3.8,3.8,0,0,1,1-1.25,4.56,4.56,0,0,1,1.45-.82,5.76,5.76,0,0,1,3.67,0,4.63,4.63,0,0,1,1.46.83,3.77,3.77,0,0,1,1,1.25,3.56,3.56,0,0,1,.35,1.55,3.41,3.41,0,0,1-.59,1.94,4.63,4.63,0,0,1-1.57,1.44,4.2,4.2,0,0,1,1.17.67,4,4,0,0,1,.86.94,3.85,3.85,0,0,1,.51,1.15,4.64,4.64,0,0,1,.18,1.3,4.5,4.5,0,0,1-.38,1.85,4.24,4.24,0,0,1-1.05,1.43,4.78,4.78,0,0,1-1.62.93,6.32,6.32,0,0,1-2.09.33,6.24,6.24,0,0,1-2.07-.33,5,5,0,0,1-1.62-.93,4.27,4.27,0,0,1-1.06-1.43A4.35,4.35,0,0,1,388.6,208Zm2.42-.22a3.45,3.45,0,0,0,.2,1.19,2.52,2.52,0,0,0,.55.89,2.38,2.38,0,0,0,.85.56,3.23,3.23,0,0,0,1.11.19,2.94,2.94,0,0,0,1.09-.2,2.36,2.36,0,0,0,.85-.57,2.54,2.54,0,0,0,.56-.89,3.13,3.13,0,0,0,.21-1.17,3.4,3.4,0,0,0-.19-1.11,2.88,2.88,0,0,0-.55-.91,2.68,2.68,0,0,0-.86-.61,2.65,2.65,0,0,0-1.11-.22,2.77,2.77,0,0,0-1.08.21,2.45,2.45,0,0,0-.86.59,2.59,2.59,0,0,0-.56.9A3.13,3.13,0,0,0,391,207.77Zm.53-7a2.44,2.44,0,0,0,.17.9,2.4,2.4,0,0,0,.46.72,2.38,2.38,0,0,0,.69.48,2.14,2.14,0,0,0,.84.17,2,2,0,0,0,.84-.18,2.38,2.38,0,0,0,.69-.48,2.49,2.49,0,0,0,.47-.72,2.39,2.39,0,0,0,.17-.89,2.44,2.44,0,0,0-.17-.9,2.2,2.2,0,0,0-.45-.72,2.17,2.17,0,0,0-.69-.47,2,2,0,0,0-.86-.17,2.09,2.09,0,0,0-.88.17,2,2,0,0,0-.68.49,2.16,2.16,0,0,0-.44.73A2.28,2.28,0,0,0,391.55,200.81Z" fill="#1d1d1b"/>
      <path d="M417.5,212.29H415v-1.87h0a4.32,4.32,0,0,1-7,.65,6.17,6.17,0,0,1-1.22-4,6.67,6.67,0,0,1,1.35-4.37,4.44,4.44,0,0,1,3.6-1.64,3.43,3.43,0,0,1,3.23,1.78h0V196h2.49Zm-2.46-5v-1.44a2.81,2.81,0,0,0-.76-2,2.55,2.55,0,0,0-1.94-.82,2.61,2.61,0,0,0-2.2,1.05,4.64,4.64,0,0,0-.8,2.89,4.15,4.15,0,0,0,.77,2.64,2.5,2.5,0,0,0,2.07,1,2.6,2.6,0,0,0,2.07-.94A3.55,3.55,0,0,0,415,207.26Z" fill="#1d1d1b"/>
      <path d="M430.07,207.46h-7.5a3.19,3.19,0,0,0,.94,2.35,3.47,3.47,0,0,0,2.47.83,5.44,5.44,0,0,0,3.23-1v2a7.36,7.36,0,0,1-4,.94,4.92,4.92,0,0,1-3.81-1.5,6,6,0,0,1-1.38-4.21,5.9,5.9,0,0,1,1.52-4.19,5,5,0,0,1,3.78-1.61,4.34,4.34,0,0,1,3.49,1.45,6,6,0,0,1,1.23,4Zm-2.4-1.76a3.22,3.22,0,0,0-.64-2.09,2.11,2.11,0,0,0-1.72-.75,2.45,2.45,0,0,0-1.82.79,3.67,3.67,0,0,0-.92,2Z" fill="#1d1d1b"/>
      <path d="M438.24,207.19h-5.87v-1.83h5.87Z" fill="#1d1d1b"/>
      <path d="M198.85,235.4q0,6.06-6.09,6.06a9.09,9.09,0,0,1-3.75-.72v-2.27a7,7,0,0,0,3.43,1q3.92,0,3.92-3.86v-1.2h0a4.34,4.34,0,0,1-7,.64,5.94,5.94,0,0,1-1.23-3.94,7,7,0,0,1,1.32-4.46,4.39,4.39,0,0,1,3.63-1.65,3.5,3.5,0,0,1,3.24,1.78h0v-1.52h2.49Zm-2.47-4.15v-1.43a2.74,2.74,0,0,0-.77-2,2.51,2.51,0,0,0-1.91-.83,2.63,2.63,0,0,0-2.22,1.05,4.7,4.7,0,0,0-.8,2.93,4,4,0,0,0,.77,2.59,2.46,2.46,0,0,0,2,1,2.65,2.65,0,0,0,2.1-.93A3.55,3.55,0,0,0,196.38,231.25Z" fill="#1d1d1b"/>
      <path d="M208.48,227.66a2.05,2.05,0,0,0-1.3-.36,2.24,2.24,0,0,0-1.85,1,4.52,4.52,0,0,0-.74,2.72v5.27H202.1v-11h2.49v2.26h0a4,4,0,0,1,1.12-1.81,2.57,2.57,0,0,1,1.7-.65,2.06,2.06,0,0,1,1,.21Z" fill="#1d1d1b"/>
      <path d="M219.36,231.46h-7.5a3.15,3.15,0,0,0,.94,2.35,3.47,3.47,0,0,0,2.47.83,5.44,5.44,0,0,0,3.23-1v2a7.38,7.38,0,0,1-4,.94,4.92,4.92,0,0,1-3.81-1.5,6,6,0,0,1-1.38-4.21,5.85,5.85,0,0,1,1.52-4.19,5,5,0,0,1,3.77-1.61,4.31,4.31,0,0,1,3.49,1.45,6,6,0,0,1,1.24,4ZM217,229.7a3.22,3.22,0,0,0-.63-2.09,2.12,2.12,0,0,0-1.72-.75,2.43,2.43,0,0,0-1.82.79,3.61,3.61,0,0,0-.92,2Z" fill="#1d1d1b"/>
      <path d="M231.05,231.46h-7.5a3.15,3.15,0,0,0,.94,2.35,3.46,3.46,0,0,0,2.46.83,5.45,5.45,0,0,0,3.24-1v2a7.42,7.42,0,0,1-4,.94,4.92,4.92,0,0,1-3.81-1.5,6,6,0,0,1-1.38-4.21,5.9,5.9,0,0,1,1.52-4.19,5,5,0,0,1,3.78-1.61,4.32,4.32,0,0,1,3.49,1.45,6,6,0,0,1,1.24,4Zm-2.41-1.76a3.27,3.27,0,0,0-.63-2.09,2.12,2.12,0,0,0-1.72-.75,2.43,2.43,0,0,0-1.82.79,3.54,3.54,0,0,0-.92,2Z" fill="#1d1d1b"/>
      <path d="M232.73,235.94v-2.31a5,5,0,0,0,3.09,1.07c1.5,0,2.25-.45,2.25-1.34a1.05,1.05,0,0,0-.19-.64,1.81,1.81,0,0,0-.52-.46,4,4,0,0,0-.78-.37l-1-.36a10.74,10.74,0,0,1-1.22-.57,3.57,3.57,0,0,1-.9-.69,2.5,2.5,0,0,1-.54-.86,3.22,3.22,0,0,1-.19-1.13,2.62,2.62,0,0,1,.38-1.4,3.38,3.38,0,0,1,1-1,4.68,4.68,0,0,1,1.44-.62,6.57,6.57,0,0,1,1.66-.21,7.51,7.51,0,0,1,2.73.46v2.18a4.58,4.58,0,0,0-2.66-.79,3.79,3.79,0,0,0-.86.09,2.37,2.37,0,0,0-.64.27,1.27,1.27,0,0,0-.42.41,1,1,0,0,0-.15.54,1.16,1.16,0,0,0,.15.6,1.3,1.3,0,0,0,.44.43,4.27,4.27,0,0,0,.71.35l.95.33a12.69,12.69,0,0,1,1.27.6,4.18,4.18,0,0,1,1,.68,2.84,2.84,0,0,1,.61.88,3.05,3.05,0,0,1,.21,1.19,2.81,2.81,0,0,1-.38,1.46,3.27,3.27,0,0,1-1,1,4.85,4.85,0,0,1-1.49.6,7.42,7.42,0,0,1-1.78.2A7.53,7.53,0,0,1,232.73,235.94Z" fill="#1d1d1b"/>
      <path d="M256.83,235.78a6.13,6.13,0,0,1-3.13.76,5.29,5.29,0,0,1-3.95-1.53,5.42,5.42,0,0,1-1.5-4,5.94,5.94,0,0,1,1.61-4.36,5.79,5.79,0,0,1,4.33-1.65,6.33,6.33,0,0,1,2.65.52v2.32a4,4,0,0,0-2.45-.86,3.42,3.42,0,0,0-2.59,1.07,3.94,3.94,0,0,0-1,2.8,3.75,3.75,0,0,0,1,2.7,3.39,3.39,0,0,0,2.55,1,4,4,0,0,0,2.54-1Z" fill="#1d1d1b"/>
      <path d="M267.74,236.29h-2.41v-1.72h-.05a3.64,3.64,0,0,1-3.34,2,3.5,3.5,0,0,1-2.54-.88,3.07,3.07,0,0,1-.92-2.33q0-3.12,3.59-3.63l3.27-.46c0-1.57-.75-2.35-2.24-2.35a5.3,5.3,0,0,0-3.54,1.35v-2.18a7.7,7.7,0,0,1,4-1q4.17,0,4.17,4.1Zm-2.4-5.41-2.31.32a3.66,3.66,0,0,0-1.62.53,1.51,1.51,0,0,0-.54,1.33,1.45,1.45,0,0,0,.5,1.15,2,2,0,0,0,1.33.44,2.46,2.46,0,0,0,1.89-.8,2.81,2.81,0,0,0,.75-2Z" fill="#1d1d1b"/>
      <path d="M280.58,236.29h-2.49v-6.2c0-2.06-.73-3.09-2.18-3.09a2.38,2.38,0,0,0-1.88.86,3.14,3.14,0,0,0-.74,2.15v6.28h-2.51v-11h2.51v1.82h0a3.91,3.91,0,0,1,3.56-2.08,3.33,3.33,0,0,1,2.74,1.16,5.24,5.24,0,0,1,.95,3.37Z" fill="#1d1d1b"/>
      <path d="M292.2,234.7h0v1.59h-2.49V220h2.49v7.22h0a4.08,4.08,0,0,1,3.74-2.19,3.94,3.94,0,0,1,3.26,1.47,6.22,6.22,0,0,1,1.18,4,6.89,6.89,0,0,1-1.32,4.42,4.38,4.38,0,0,1-3.61,1.66A3.54,3.54,0,0,1,292.2,234.7Zm-.06-4.38v1.37a2.88,2.88,0,0,0,.77,2,2.52,2.52,0,0,0,1.95.84,2.55,2.55,0,0,0,2.17-1.08,5,5,0,0,0,.79-3,4,4,0,0,0-.74-2.54,2.42,2.42,0,0,0-2-.92,2.68,2.68,0,0,0-2.14,1A3.5,3.5,0,0,0,292.14,230.32Z" fill="#1d1d1b"/>
      <path d="M312.52,236.29H310v-1.75h0a3.57,3.57,0,0,1-3.37,2q-3.9,0-3.9-4.68v-6.57h2.49v6.31c0,2,.76,3,2.29,3a2.33,2.33,0,0,0,1.82-.82,3.11,3.11,0,0,0,.71-2.14v-6.32h2.5Z" fill="#1d1d1b"/>
      <path d="M322.14,227.66a2,2,0,0,0-1.3-.36,2.25,2.25,0,0,0-1.85,1,4.52,4.52,0,0,0-.74,2.72v5.27h-2.49v-11h2.49v2.26h.05a3.81,3.81,0,0,1,1.12-1.81,2.54,2.54,0,0,1,1.69-.65,2.06,2.06,0,0,1,1,.21Z" fill="#1d1d1b"/>
      <path d="M333.7,236.29h-2.49v-6.2c0-2.06-.73-3.09-2.18-3.09a2.38,2.38,0,0,0-1.88.86,3.14,3.14,0,0,0-.74,2.15v6.28H323.9v-11h2.51v1.82h0A3.91,3.91,0,0,1,330,225a3.33,3.33,0,0,1,2.73,1.16,5.24,5.24,0,0,1,.95,3.37Z" fill="#1d1d1b"/>
      <path d="M352.38,236.29h-2.49v-1.75h0a3.59,3.59,0,0,1-3.38,2q-3.9,0-3.9-4.68v-6.57h2.49v6.31c0,2,.77,3,2.29,3a2.31,2.31,0,0,0,1.82-.82,3.11,3.11,0,0,0,.72-2.14v-6.32h2.49Z" fill="#1d1d1b"/>
      <path d="M358.16,234.66h0v6.68h-2.5V225.29h2.5v1.93h0A4.08,4.08,0,0,1,361.9,225a3.94,3.94,0,0,1,3.26,1.47,6.17,6.17,0,0,1,1.17,3.95,6.88,6.88,0,0,1-1.32,4.41,4.37,4.37,0,0,1-3.61,1.65A3.59,3.59,0,0,1,358.16,234.66Zm-.06-4.34v1.37a2.92,2.92,0,0,0,.76,2,2.71,2.71,0,0,0,4.13-.24,5.09,5.09,0,0,0,.79-3,4,4,0,0,0-.74-2.54,2.42,2.42,0,0,0-2-.92,2.68,2.68,0,0,0-2.14,1A3.5,3.5,0,0,0,358.1,230.32Z" fill="#1d1d1b"/>
      <path d="M380.73,236.17a4.38,4.38,0,0,1-1.92.36q-3.21,0-3.21-3.07v-6.22h-1.83v-2h1.83v-2.55l2.5-.71v3.26h2.63v2H378.1v5.5a2.23,2.23,0,0,0,.35,1.4,1.47,1.47,0,0,0,1.18.42,1.74,1.74,0,0,0,1.1-.37Z" fill="#1d1d1b"/>
      <path d="M387.63,236.54a5.44,5.44,0,0,1-4.07-1.54,5.59,5.59,0,0,1-1.52-4.09,5.41,5.41,0,0,1,5.85-5.88,5.28,5.28,0,0,1,4,1.51,5.85,5.85,0,0,1,1.44,4.2A5.79,5.79,0,0,1,391.8,235,5.57,5.57,0,0,1,387.63,236.54Zm.11-9.53a2.84,2.84,0,0,0-2.31,1,4.28,4.28,0,0,0-.84,2.81,4,4,0,0,0,.85,2.72,2.88,2.88,0,0,0,2.3,1,2.77,2.77,0,0,0,2.27-1,4.36,4.36,0,0,0,.78-2.78A4.45,4.45,0,0,0,390,228,2.75,2.75,0,0,0,387.74,227Z" fill="#1d1d1b"/>
      <path d="M406.92,220.54v15.75h-2.49v-12.7a8.69,8.69,0,0,1-1.46.82,12.33,12.33,0,0,1-1.78.6v-2.13c.42-.14.82-.28,1.21-.43s.76-.32,1.14-.51a12.79,12.79,0,0,0,1.14-.62c.38-.23.78-.49,1.19-.78Z" fill="#1d1d1b"/>
      <path d="M410.48,235.72v-2.35a5.33,5.33,0,0,0,3.4,1.2,4,4,0,0,0,2.45-.7,2.24,2.24,0,0,0,.92-1.89q0-2.62-4-2.62h-1.2v-2h1.14q3.56,0,3.56-2.47c0-1.52-.93-2.28-2.77-2.28a4.54,4.54,0,0,0-2.92,1.11V221.5a7.57,7.57,0,0,1,3.71-.88,5,5,0,0,1,3.29,1,3.3,3.3,0,0,1,1.23,2.65,3.77,3.77,0,0,1-3.09,3.91v0a4.05,4.05,0,0,1,2.63,1.17,3.44,3.44,0,0,1,1,2.5,4.11,4.11,0,0,1-1.56,3.35,6.28,6.28,0,0,1-4.1,1.27A7,7,0,0,1,410.48,235.72Z" fill="#1d1d1b"/>
      <path d="M427.32,236.54a4.3,4.3,0,0,1-3.76-2,10,10,0,0,1-1.34-5.69,11.07,11.07,0,0,1,1.4-6.17,4.59,4.59,0,0,1,4.06-2.1q5.08,0,5.08,7.9a10.39,10.39,0,0,1-1.43,6A4.61,4.61,0,0,1,427.32,236.54Zm.24-13.93c-1.86,0-2.8,2.06-2.8,6.18q0,5.78,2.75,5.78t2.71-5.88Q430.22,222.61,427.56,222.61Z" fill="#1d1d1b"/>
      <path d="M199.86,259.78a6.15,6.15,0,0,1-3.13.76,5.29,5.29,0,0,1-3.95-1.53,5.39,5.39,0,0,1-1.51-4,6,6,0,0,1,1.62-4.36,5.78,5.78,0,0,1,4.32-1.65,6.35,6.35,0,0,1,2.66.52v2.32a4.06,4.06,0,0,0-2.45-.86,3.42,3.42,0,0,0-2.59,1.07,3.94,3.94,0,0,0-1,2.8,3.75,3.75,0,0,0,1,2.7,3.36,3.36,0,0,0,2.55,1,4,4,0,0,0,2.54-1Z" fill="#1d1d1b"/>
      <path d="M210.77,260.29h-2.42v-1.72h0a3.64,3.64,0,0,1-3.34,2,3.5,3.5,0,0,1-2.54-.88,3.07,3.07,0,0,1-.92-2.33q0-3.12,3.59-3.63l3.26-.46c0-1.57-.74-2.35-2.23-2.35a5.3,5.3,0,0,0-3.54,1.35v-2.18a7.67,7.67,0,0,1,4-1q4.17,0,4.17,4.1Zm-2.41-5.41-2.3.32a3.66,3.66,0,0,0-1.62.53,1.51,1.51,0,0,0-.54,1.33,1.45,1.45,0,0,0,.5,1.15,1.94,1.94,0,0,0,1.33.44,2.46,2.46,0,0,0,1.89-.8,2.81,2.81,0,0,0,.74-2Z" fill="#1d1d1b"/>
      <path d="M216.31,260.29h-2.5V244h2.5Z" fill="#1d1d1b"/>
      <path d="M224.43,260.54a5.43,5.43,0,0,1-4.06-1.54,5.59,5.59,0,0,1-1.52-4.09A5.41,5.41,0,0,1,224.7,249a5.28,5.28,0,0,1,4,1.51,5.85,5.85,0,0,1,1.44,4.2,5.79,5.79,0,0,1-1.55,4.22A5.58,5.58,0,0,1,224.43,260.54Zm.12-9.53a2.84,2.84,0,0,0-2.31,1,4.28,4.28,0,0,0-.85,2.81,4,4,0,0,0,.86,2.72,2.88,2.88,0,0,0,2.3,1,2.74,2.74,0,0,0,2.26-1,4.3,4.3,0,0,0,.79-2.78,4.39,4.39,0,0,0-.79-2.81A2.71,2.71,0,0,0,224.55,251Z" fill="#1d1d1b"/>
      <path d="M239.08,251.66a2.05,2.05,0,0,0-1.3-.36,2.24,2.24,0,0,0-1.85,1,4.45,4.45,0,0,0-.74,2.72v5.27H232.7v-11h2.49v2.26h0a3.89,3.89,0,0,1,1.12-1.81,2.57,2.57,0,0,1,1.7-.65,2.06,2.06,0,0,1,1,.21Z" fill="#1d1d1b"/>
      <path d="M242.1,247a1.53,1.53,0,0,1-1-.4,1.32,1.32,0,0,1-.44-1,1.34,1.34,0,0,1,.44-1,1.49,1.49,0,0,1,1-.41,1.52,1.52,0,0,1,1.07.41,1.34,1.34,0,0,1,.44,1,1.31,1.31,0,0,1-.44,1A1.49,1.49,0,0,1,242.1,247Zm1.23,13.31h-2.49v-11h2.49Z" fill="#1d1d1b"/>
      <path d="M255.9,255.46h-7.5a3.15,3.15,0,0,0,.94,2.35,3.47,3.47,0,0,0,2.47.83,5.44,5.44,0,0,0,3.23-1.05v2a7.4,7.4,0,0,1-4,.94,4.91,4.91,0,0,1-3.8-1.5,6,6,0,0,1-1.38-4.21,5.85,5.85,0,0,1,1.52-4.19,5,5,0,0,1,3.77-1.61,4.31,4.31,0,0,1,3.49,1.45,6,6,0,0,1,1.24,4Zm-2.41-1.76a3.22,3.22,0,0,0-.63-2.09,2.12,2.12,0,0,0-1.72-.75,2.43,2.43,0,0,0-1.82.79,3.61,3.61,0,0,0-.92,2Z" fill="#1d1d1b"/>
      <path d="M257.59,259.94v-2.31a5,5,0,0,0,3.08,1.07c1.5,0,2.25-.45,2.25-1.34a1.05,1.05,0,0,0-.19-.64,1.81,1.81,0,0,0-.52-.46,4.24,4.24,0,0,0-.77-.37l-1-.36a11.62,11.62,0,0,1-1.22-.57,3.57,3.57,0,0,1-.9-.69,2.5,2.5,0,0,1-.54-.86,3.23,3.23,0,0,1-.18-1.13,2.62,2.62,0,0,1,.37-1.4,3.38,3.38,0,0,1,1-1,4.68,4.68,0,0,1,1.44-.62,6.59,6.59,0,0,1,1.67-.21,7.5,7.5,0,0,1,2.72.46v2.18a4.58,4.58,0,0,0-2.66-.79,3.7,3.7,0,0,0-.85.09,2.45,2.45,0,0,0-.65.27,1.27,1.27,0,0,0-.42.41,1,1,0,0,0-.15.54,1.16,1.16,0,0,0,.15.6,1.39,1.39,0,0,0,.44.43,4.27,4.27,0,0,0,.71.35l.95.33a12.92,12.92,0,0,1,1.28.6,4.34,4.34,0,0,1,1,.68,2.68,2.68,0,0,1,.61.88,3.05,3.05,0,0,1,.21,1.19,2.72,2.72,0,0,1-.38,1.46,3.27,3.27,0,0,1-1,1,4.85,4.85,0,0,1-1.49.6,7.36,7.36,0,0,1-1.78.2A7.49,7.49,0,0,1,257.59,259.94Z" fill="#1d1d1b"/>
      <path d="M270.09,257.72l-1.67,5.36h-1.86l1.18-5.36Z" fill="#1d1d1b"/>
      <path d="M293.9,249.29l-3.24,11h-2.61l-2-7.46a4.59,4.59,0,0,1-.15-1h0a5.08,5.08,0,0,1-.19.95l-2.17,7.48h-2.56l-3.23-11h2.57l2,7.92a4.26,4.26,0,0,1,.13,1h.08a4.61,4.61,0,0,1,.17-1l2.22-7.9h2.34l2,8a6.12,6.12,0,0,1,.14.94h.07a5,5,0,0,1,.17-.94l1.95-8Z" fill="#1d1d1b"/>
      <path d="M305.53,260.29H303v-6q0-3.27-2.19-3.27A2.27,2.27,0,0,0,299,252a3.78,3.78,0,0,0-.75,2.42v5.92h-2.51V244h2.51v7.11h0a3.93,3.93,0,0,1,3.56-2.08q3.67,0,3.67,4.48Z" fill="#1d1d1b"/>
      <path d="M309.81,247a1.52,1.52,0,0,1-1-.4,1.32,1.32,0,0,1-.44-1,1.34,1.34,0,0,1,.44-1,1.48,1.48,0,0,1,1-.41,1.55,1.55,0,0,1,1.08.41,1.34,1.34,0,0,1,.44,1,1.31,1.31,0,0,1-.44,1A1.51,1.51,0,0,1,309.81,247Zm1.24,13.31h-2.49v-11h2.49Z" fill="#1d1d1b"/>
      <path d="M322.18,259.78a6.13,6.13,0,0,1-3.13.76A5.29,5.29,0,0,1,315.1,259a5.42,5.42,0,0,1-1.5-4,5.94,5.94,0,0,1,1.61-4.36,5.79,5.79,0,0,1,4.33-1.65,6.33,6.33,0,0,1,2.65.52v2.32a4,4,0,0,0-2.45-.86,3.42,3.42,0,0,0-2.59,1.07,3.94,3.94,0,0,0-1,2.8,3.75,3.75,0,0,0,.95,2.7,3.37,3.37,0,0,0,2.55,1,4,4,0,0,0,2.54-1Z" fill="#1d1d1b"/>
      <path d="M334.42,260.29h-2.49v-6c0-2.18-.72-3.27-2.18-3.27a2.29,2.29,0,0,0-1.85.95,3.78,3.78,0,0,0-.75,2.42v5.92h-2.5V244h2.5v7.11h0a3.94,3.94,0,0,1,3.57-2.08q3.66,0,3.66,4.48Z" fill="#1d1d1b"/>
      <path d="M344.76,247a1.53,1.53,0,0,1-1.05-.4,1.31,1.31,0,0,1-.43-1,1.33,1.33,0,0,1,.43-1,1.49,1.49,0,0,1,1.05-.41,1.52,1.52,0,0,1,1.07.41,1.31,1.31,0,0,1,.44,1,1.27,1.27,0,0,1-.44,1A1.49,1.49,0,0,1,344.76,247ZM346,260.29H343.5v-11H346Z" fill="#1d1d1b"/>
      <path d="M348.56,259.94v-2.31a5,5,0,0,0,3.08,1.07c1.51,0,2.26-.45,2.26-1.34a1.05,1.05,0,0,0-.19-.64,1.85,1.85,0,0,0-.53-.46,3.68,3.68,0,0,0-.77-.37l-1-.36a10.74,10.74,0,0,1-1.22-.57,3.57,3.57,0,0,1-.9-.69,2.69,2.69,0,0,1-.55-.86,3.23,3.23,0,0,1-.18-1.13,2.62,2.62,0,0,1,.38-1.4,3.27,3.27,0,0,1,1-1,4.68,4.68,0,0,1,1.44-.62,6.51,6.51,0,0,1,1.66-.21,7.51,7.51,0,0,1,2.73.46v2.18a4.58,4.58,0,0,0-2.66-.79,3.79,3.79,0,0,0-.86.09,2.59,2.59,0,0,0-.65.27,1.27,1.27,0,0,0-.42.41,1,1,0,0,0-.15.54,1.16,1.16,0,0,0,.15.6,1.33,1.33,0,0,0,.45.43,3.91,3.91,0,0,0,.71.35l.95.33a12.69,12.69,0,0,1,1.27.6,3.91,3.91,0,0,1,1,.68,2.71,2.71,0,0,1,.62.88,3.05,3.05,0,0,1,.21,1.19,2.72,2.72,0,0,1-.39,1.46,3.17,3.17,0,0,1-1,1,4.75,4.75,0,0,1-1.49.6,7.28,7.28,0,0,1-1.77.2A7.5,7.5,0,0,1,348.56,259.94Z" fill="#1d1d1b"/>
      <path d="M373.22,260.29h-2.41v-1.72h0a3.66,3.66,0,0,1-3.35,2,3.52,3.52,0,0,1-2.54-.88,3.07,3.07,0,0,1-.91-2.33q0-3.12,3.58-3.63l3.27-.46c0-1.57-.75-2.35-2.24-2.35a5.3,5.3,0,0,0-3.54,1.35v-2.18a7.71,7.71,0,0,1,4-1c2.78,0,4.16,1.37,4.16,4.1Zm-2.4-5.41-2.31.32a3.66,3.66,0,0,0-1.62.53,1.51,1.51,0,0,0-.54,1.33,1.48,1.48,0,0,0,.5,1.15,2,2,0,0,0,1.34.44,2.44,2.44,0,0,0,1.88-.8,2.81,2.81,0,0,0,.75-2Z" fill="#1d1d1b"/>
      <path d="M378.77,260.29h-2.5V244h2.5Z" fill="#1d1d1b"/>
      <path d="M398.46,260.29H396v-6a4.9,4.9,0,0,0-.49-2.5,1.8,1.8,0,0,0-1.65-.78,2,2,0,0,0-1.66,1,3.94,3.94,0,0,0-.68,2.34v6H389v-6.2c0-2.05-.72-3.08-2.17-3.08a2,2,0,0,0-1.66.93,4.07,4.07,0,0,0-.65,2.39v6H382v-11h2.49V251h.05a3.79,3.79,0,0,1,3.47-2,3.26,3.26,0,0,1,2,.63,3.09,3.09,0,0,1,1.17,1.64,3.92,3.92,0,0,1,3.65-2.27q3.63,0,3.63,4.48Z" fill="#1d1d1b"/>
      <path d="M406.38,260.54a5.44,5.44,0,0,1-4.07-1.54,5.59,5.59,0,0,1-1.52-4.09,5.41,5.41,0,0,1,5.85-5.88,5.28,5.28,0,0,1,4,1.51,5.85,5.85,0,0,1,1.44,4.2,5.79,5.79,0,0,1-1.55,4.22A5.57,5.57,0,0,1,406.38,260.54Zm.11-9.53a2.84,2.84,0,0,0-2.31,1,4.28,4.28,0,0,0-.84,2.81,4,4,0,0,0,.85,2.72,2.88,2.88,0,0,0,2.3,1,2.77,2.77,0,0,0,2.27-1,4.36,4.36,0,0,0,.78-2.78,4.45,4.45,0,0,0-.78-2.81A2.75,2.75,0,0,0,406.49,251Z" fill="#1d1d1b"/>
      <path d="M414,259.94v-2.31A5,5,0,0,0,417,258.7c1.51,0,2.26-.45,2.26-1.34a1.06,1.06,0,0,0-.2-.64,1.68,1.68,0,0,0-.52-.46,3.94,3.94,0,0,0-.77-.37l-1-.36a10,10,0,0,1-1.22-.57,3.46,3.46,0,0,1-.91-.69,2.5,2.5,0,0,1-.54-.86,3.23,3.23,0,0,1-.18-1.13,2.54,2.54,0,0,1,.38-1.4,3.27,3.27,0,0,1,1-1,4.73,4.73,0,0,1,1.43-.62,6.65,6.65,0,0,1,1.67-.21,7.51,7.51,0,0,1,2.73.46v2.18a4.61,4.61,0,0,0-2.67-.79,3.7,3.7,0,0,0-.85.09,2.59,2.59,0,0,0-.65.27,1.27,1.27,0,0,0-.42.41,1,1,0,0,0-.15.54,1.16,1.16,0,0,0,.15.6,1.33,1.33,0,0,0,.45.43,3.61,3.61,0,0,0,.71.35l.95.33a13.83,13.83,0,0,1,1.27.6,3.91,3.91,0,0,1,1,.68,2.54,2.54,0,0,1,.61.88,2.87,2.87,0,0,1,.22,1.19,2.72,2.72,0,0,1-.39,1.46,3.27,3.27,0,0,1-1,1,4.85,4.85,0,0,1-1.49.6,7.3,7.3,0,0,1-1.78.2A7.49,7.49,0,0,1,414,259.94Z" fill="#1d1d1b"/>
      <path d="M429.92,260.17a4.38,4.38,0,0,1-1.92.36q-3.19,0-3.2-3.07v-6.22H423v-2h1.84v-2.55l2.49-.71v3.26h2.63v2h-2.63v5.5a2.23,2.23,0,0,0,.35,1.4,1.48,1.48,0,0,0,1.19.42,1.73,1.73,0,0,0,1.09-.37Z" fill="#1d1d1b"/>
      <path d="M211.39,284.17a4.32,4.32,0,0,1-1.92.36q-3.19,0-3.2-3.07v-6.22h-1.84v-1.95h1.84v-2.55l2.49-.71v3.26h2.63v1.95h-2.63v5.5a2.16,2.16,0,0,0,.36,1.4,1.46,1.46,0,0,0,1.18.42,1.71,1.71,0,0,0,1.09-.37Z" fill="#1d1d1b"/>
      <path d="M223.32,284.29h-2.49v-6q0-3.27-2.19-3.27a2.27,2.27,0,0,0-1.84.95,3.78,3.78,0,0,0-.75,2.42v5.92h-2.51V268h2.51v7.11h0a3.93,3.93,0,0,1,3.56-2.08q3.67,0,3.67,4.48Z" fill="#1d1d1b"/>
      <path d="M235.66,279.46h-7.5a3.15,3.15,0,0,0,.94,2.35,3.47,3.47,0,0,0,2.47.83,5.44,5.44,0,0,0,3.23-1.05v2a7.38,7.38,0,0,1-4,.94A4.92,4.92,0,0,1,227,283a6,6,0,0,1-1.38-4.21,5.85,5.85,0,0,1,1.52-4.19,5,5,0,0,1,3.77-1.61,4.34,4.34,0,0,1,3.5,1.45,6,6,0,0,1,1.23,4Zm-2.41-1.76a3.16,3.16,0,0,0-.63-2.09,2.11,2.11,0,0,0-1.72-.75,2.45,2.45,0,0,0-1.82.79,3.61,3.61,0,0,0-.92,2.05Z" fill="#1d1d1b"/>
      <path d="M243.39,283.94v-2.31a5,5,0,0,0,3.09,1.07c1.5,0,2.25-.45,2.25-1.34a1.05,1.05,0,0,0-.19-.64,1.81,1.81,0,0,0-.52-.46,4.24,4.24,0,0,0-.77-.37l-1-.36A10.74,10.74,0,0,1,245,279a3.57,3.57,0,0,1-.9-.69,2.5,2.5,0,0,1-.54-.86,3.23,3.23,0,0,1-.18-1.13,2.62,2.62,0,0,1,.37-1.4,3.38,3.38,0,0,1,1-1,4.68,4.68,0,0,1,1.44-.62,6.59,6.59,0,0,1,1.67-.21,7.5,7.5,0,0,1,2.72.46v2.18a4.58,4.58,0,0,0-2.66-.79,3.63,3.63,0,0,0-.85.09,2.45,2.45,0,0,0-.65.27,1.27,1.27,0,0,0-.42.41,1,1,0,0,0-.15.54,1.16,1.16,0,0,0,.15.6,1.39,1.39,0,0,0,.44.43,4.27,4.27,0,0,0,.71.35l.95.33a12.92,12.92,0,0,1,1.28.6,4.34,4.34,0,0,1,1,.68,2.68,2.68,0,0,1,.61.88,3.05,3.05,0,0,1,.21,1.19,2.72,2.72,0,0,1-.38,1.46,3.27,3.27,0,0,1-1,1,4.85,4.85,0,0,1-1.49.6,7.36,7.36,0,0,1-1.78.2A7.57,7.57,0,0,1,243.39,283.94Z" fill="#1d1d1b"/>
      <path d="M262,284.29h-2.42v-1.72h0a3.64,3.64,0,0,1-3.34,2,3.5,3.5,0,0,1-2.54-.88,3.07,3.07,0,0,1-.92-2.33q0-3.12,3.59-3.63l3.26-.46c0-1.57-.74-2.35-2.23-2.35a5.3,5.3,0,0,0-3.54,1.35v-2.18a7.67,7.67,0,0,1,4-1q4.17,0,4.17,4.1Zm-2.41-5.41-2.3.32a3.66,3.66,0,0,0-1.62.53,1.51,1.51,0,0,0-.54,1.33,1.45,1.45,0,0,0,.5,1.15,1.94,1.94,0,0,0,1.33.44,2.46,2.46,0,0,0,1.89-.8,2.81,2.81,0,0,0,.74-2Z" fill="#1d1d1b"/>
      <path d="M281.5,284.29H279v-6a4.9,4.9,0,0,0-.49-2.5,1.8,1.8,0,0,0-1.65-.78,2,2,0,0,0-1.66,1,3.94,3.94,0,0,0-.68,2.34v6H272v-6.2c0-2-.72-3.08-2.17-3.08a2,2,0,0,0-1.66.93,4.07,4.07,0,0,0-.65,2.39v6h-2.49v-11h2.49V275h0a3.79,3.79,0,0,1,3.47-2,3.28,3.28,0,0,1,2,.63,3,3,0,0,1,1.16,1.64,3.94,3.94,0,0,1,3.66-2.27q3.63,0,3.63,4.48Z" fill="#1d1d1b"/>
      <path d="M293.85,279.46h-7.5a3.15,3.15,0,0,0,.94,2.35,3.47,3.47,0,0,0,2.47.83,5.44,5.44,0,0,0,3.23-1.05v2a7.38,7.38,0,0,1-4,.94,4.92,4.92,0,0,1-3.81-1.5,6,6,0,0,1-1.38-4.21,5.9,5.9,0,0,1,1.52-4.19,5,5,0,0,1,3.77-1.61,4.34,4.34,0,0,1,3.5,1.45,6,6,0,0,1,1.23,4Zm-2.41-1.76a3.16,3.16,0,0,0-.63-2.09,2.11,2.11,0,0,0-1.72-.75,2.45,2.45,0,0,0-1.82.79,3.61,3.61,0,0,0-.92,2.05Z" fill="#1d1d1b"/>
      <path d="M310.72,284.29H308.3v-1.72h0a3.66,3.66,0,0,1-3.34,2,3.49,3.49,0,0,1-2.54-.88,3,3,0,0,1-.92-2.33q0-3.12,3.58-3.63l3.27-.46c0-1.57-.75-2.35-2.23-2.35a5.32,5.32,0,0,0-3.55,1.35v-2.18a7.71,7.71,0,0,1,4-1q4.17,0,4.17,4.1Zm-2.41-5.41-2.31.32a3.7,3.7,0,0,0-1.62.53,1.51,1.51,0,0,0-.54,1.33,1.48,1.48,0,0,0,.5,1.15,2,2,0,0,0,1.34.44,2.42,2.42,0,0,0,1.88-.8,2.81,2.81,0,0,0,.75-2Z" fill="#1d1d1b"/>
      <path d="M313.07,283.94v-2.31a5,5,0,0,0,3.08,1.07c1.51,0,2.26-.45,2.26-1.34a1.06,1.06,0,0,0-.2-.64,1.68,1.68,0,0,0-.52-.46,3.94,3.94,0,0,0-.77-.37l-1-.36a10,10,0,0,1-1.22-.57,3.63,3.63,0,0,1-.91-.69,2.5,2.5,0,0,1-.54-.86,3.23,3.23,0,0,1-.18-1.13,2.54,2.54,0,0,1,.38-1.4,3.27,3.27,0,0,1,1-1,4.73,4.73,0,0,1,1.43-.62,6.65,6.65,0,0,1,1.67-.21,7.51,7.51,0,0,1,2.73.46v2.18a4.61,4.61,0,0,0-2.67-.79,3.7,3.7,0,0,0-.85.09,2.59,2.59,0,0,0-.65.27,1.27,1.27,0,0,0-.42.41,1,1,0,0,0-.15.54,1.16,1.16,0,0,0,.15.6,1.33,1.33,0,0,0,.45.43,3.61,3.61,0,0,0,.71.35l.95.33a13.83,13.83,0,0,1,1.27.6,3.91,3.91,0,0,1,1,.68,2.54,2.54,0,0,1,.61.88,2.87,2.87,0,0,1,.22,1.19,2.72,2.72,0,0,1-.39,1.46,3.27,3.27,0,0,1-1,1,4.85,4.85,0,0,1-1.49.6,7.3,7.3,0,0,1-1.78.2A7.49,7.49,0,0,1,313.07,283.94Z" fill="#1d1d1b"/>
      <path d="M339.29,284.29H336.8v-1.87h0a4.32,4.32,0,0,1-7,.65,6.17,6.17,0,0,1-1.22-4,6.67,6.67,0,0,1,1.35-4.37,4.42,4.42,0,0,1,3.59-1.64,3.46,3.46,0,0,1,3.24,1.78h0V268h2.49Zm-2.46-5v-1.44a2.81,2.81,0,0,0-.76-2,2.77,2.77,0,0,0-4.14.23,4.58,4.58,0,0,0-.8,2.89,4.15,4.15,0,0,0,.76,2.64,2.52,2.52,0,0,0,2.07,1,2.62,2.62,0,0,0,2.08-.94A3.55,3.55,0,0,0,336.83,279.26Z" fill="#1d1d1b"/>
      <path d="M347.42,284.54a5.42,5.42,0,0,1-4.06-1.54,5.55,5.55,0,0,1-1.52-4.09,5.79,5.79,0,0,1,1.58-4.33,5.86,5.86,0,0,1,4.27-1.55,5.28,5.28,0,0,1,4,1.51,5.85,5.85,0,0,1,1.44,4.2A5.79,5.79,0,0,1,351.6,283,5.58,5.58,0,0,1,347.42,284.54Zm.12-9.53a2.84,2.84,0,0,0-2.31,1,4.28,4.28,0,0,0-.85,2.81,4,4,0,0,0,.86,2.72,2.87,2.87,0,0,0,2.3,1,2.75,2.75,0,0,0,2.26-1,4.3,4.3,0,0,0,.79-2.78,4.39,4.39,0,0,0-.79-2.81A2.73,2.73,0,0,0,347.54,275Z" fill="#1d1d1b"/>
      <path d="M356.94,271a1.53,1.53,0,0,1-1.05-.4,1.31,1.31,0,0,1-.43-1,1.33,1.33,0,0,1,.43-1,1.49,1.49,0,0,1,1.05-.41,1.52,1.52,0,0,1,1.07.41,1.31,1.31,0,0,1,.44,1,1.27,1.27,0,0,1-.44,1A1.49,1.49,0,0,1,356.94,271Zm1.24,13.31h-2.5v-11h2.5Z" fill="#1d1d1b"/>
      <path d="M371.23,284.29h-2.5v-6.2c0-2.06-.72-3.09-2.18-3.09a2.41,2.41,0,0,0-1.88.86,3.19,3.19,0,0,0-.74,2.15v6.28h-2.5v-11h2.5v1.82H364a3.91,3.91,0,0,1,3.56-2.08,3.33,3.33,0,0,1,2.74,1.16,5.24,5.24,0,0,1,1,3.37Z" fill="#1d1d1b"/>
      <path d="M384.28,283.4q0,6.06-6.09,6.06a9.09,9.09,0,0,1-3.75-.72v-2.27a7,7,0,0,0,3.43,1q3.92,0,3.92-3.86v-1.2h-.05a4.33,4.33,0,0,1-6.95.64,5.94,5.94,0,0,1-1.23-3.94,7,7,0,0,1,1.32-4.46,4.39,4.39,0,0,1,3.63-1.65,3.49,3.49,0,0,1,3.23,1.78h.05v-1.52h2.49Zm-2.47-4.15v-1.43a2.78,2.78,0,0,0-.77-2,2.51,2.51,0,0,0-1.92-.83,2.65,2.65,0,0,0-2.22,1.05,4.77,4.77,0,0,0-.8,2.93,4.06,4.06,0,0,0,.77,2.59,2.47,2.47,0,0,0,2,1,2.62,2.62,0,0,0,2.09-.93A3.5,3.5,0,0,0,381.81,279.25Z" fill="#1d1d1b"/>
      <path d="M401.9,268.88v9.95h2.28v2.07H401.9v3.39h-2.42V280.9h-7v-2.09c.63-.71,1.27-1.48,1.94-2.31s1.3-1.67,1.91-2.53,1.18-1.73,1.7-2.6a23.37,23.37,0,0,0,1.32-2.49Zm-2.42,9.95v-6.47a34.31,34.31,0,0,1-2.32,3.68c-.76,1-1.47,2-2.14,2.79Z" fill="#1d1d1b"/>
      <path d="M410.56,284.54a4.3,4.3,0,0,1-3.75-2,10,10,0,0,1-1.35-5.69,11.06,11.06,0,0,1,1.41-6.17,4.59,4.59,0,0,1,4.06-2.1q5.08,0,5.08,7.9a10.46,10.46,0,0,1-1.43,6A4.63,4.63,0,0,1,410.56,284.54Zm.25-13.93q-2.81,0-2.8,6.18,0,5.77,2.75,5.78c1.8,0,2.71-2,2.71-5.88S412.58,270.61,410.81,270.61Z" fill="#1d1d1b"/>
      <path d="M183.49,307.94v-2.31a5,5,0,0,0,3.08,1.07c1.51,0,2.26-.45,2.26-1.34a1.05,1.05,0,0,0-.19-.64,2,2,0,0,0-.52-.46,4,4,0,0,0-.78-.37l-1-.36a10.74,10.74,0,0,1-1.22-.57,3.57,3.57,0,0,1-.9-.69,2.69,2.69,0,0,1-.55-.86,3.23,3.23,0,0,1-.18-1.13,2.62,2.62,0,0,1,.38-1.4,3.38,3.38,0,0,1,1-1,4.68,4.68,0,0,1,1.44-.62A6.51,6.51,0,0,1,188,297a7.51,7.51,0,0,1,2.73.46v2.18a4.58,4.58,0,0,0-2.66-.79,3.79,3.79,0,0,0-.86.09,2.59,2.59,0,0,0-.65.27,1.27,1.27,0,0,0-.42.41,1,1,0,0,0-.15.54,1.16,1.16,0,0,0,.15.6,1.33,1.33,0,0,0,.45.43,3.91,3.91,0,0,0,.71.35l1,.33a12.69,12.69,0,0,1,1.27.6,3.91,3.91,0,0,1,1,.68,2.71,2.71,0,0,1,.62.88,3.05,3.05,0,0,1,.21,1.19,2.72,2.72,0,0,1-.39,1.46,3.17,3.17,0,0,1-1,1,4.75,4.75,0,0,1-1.49.6,7.28,7.28,0,0,1-1.77.2A7.5,7.5,0,0,1,183.49,307.94Z" fill="#1d1d1b"/>
      <path d="M194.92,295a1.53,1.53,0,0,1-1-.4,1.31,1.31,0,0,1-.43-1,1.33,1.33,0,0,1,.43-1,1.49,1.49,0,0,1,1-.41,1.56,1.56,0,0,1,1.08.41,1.34,1.34,0,0,1,.44,1,1.31,1.31,0,0,1-.44,1A1.53,1.53,0,0,1,194.92,295Zm1.24,13.31h-2.5v-11h2.5Z" fill="#1d1d1b"/>
      <path d="M205.21,308.17a4.38,4.38,0,0,1-1.92.36c-2.14,0-3.2-1-3.2-3.07v-6.22h-1.84v-1.95h1.84v-2.55l2.49-.71v3.26h2.63v1.95h-2.63v5.5a2.23,2.23,0,0,0,.35,1.4,1.48,1.48,0,0,0,1.19.42,1.73,1.73,0,0,0,1.09-.37Z" fill="#1d1d1b"/>
      <path d="M212,303.19h-5.86v-1.83H212Z" fill="#1d1d1b"/>
      <path d="M224.68,308.29h-2.5v-1.75h0a3.57,3.57,0,0,1-3.37,2q-3.9,0-3.9-4.68v-6.57h2.49v6.31c0,2,.76,3,2.29,3a2.33,2.33,0,0,0,1.82-.82,3.11,3.11,0,0,0,.71-2.14v-6.32h2.5Z" fill="#1d1d1b"/>
      <path d="M230.46,306.66h-.05v6.68h-2.49v-16h2.49v1.93h.05a4.07,4.07,0,0,1,3.73-2.19,3.94,3.94,0,0,1,3.27,1.47,6.17,6.17,0,0,1,1.17,3.95,6.88,6.88,0,0,1-1.32,4.41,4.37,4.37,0,0,1-3.61,1.65A3.59,3.59,0,0,1,230.46,306.66Zm-.07-4.34v1.37a2.93,2.93,0,0,0,.77,2,2.7,2.7,0,0,0,4.12-.24,5,5,0,0,0,.79-3,4,4,0,0,0-.73-2.54,2.43,2.43,0,0,0-2-.92,2.7,2.7,0,0,0-2.15.95A3.5,3.5,0,0,0,230.39,302.32Z" fill="#1d1d1b"/>
      <path d="M240.49,307.94v-2.31a5,5,0,0,0,3.08,1.07c1.51,0,2.26-.45,2.26-1.34a1.12,1.12,0,0,0-.19-.64,1.85,1.85,0,0,0-.53-.46,3.94,3.94,0,0,0-.77-.37l-1-.36a10.74,10.74,0,0,1-1.22-.57,3.82,3.82,0,0,1-.91-.69,2.5,2.5,0,0,1-.54-.86,3.23,3.23,0,0,1-.18-1.13,2.62,2.62,0,0,1,.38-1.4,3.27,3.27,0,0,1,1-1,4.68,4.68,0,0,1,1.44-.62A6.51,6.51,0,0,1,245,297a7.51,7.51,0,0,1,2.73.46v2.18a4.58,4.58,0,0,0-2.66-.79,3.72,3.72,0,0,0-.86.09,2.59,2.59,0,0,0-.65.27,1.27,1.27,0,0,0-.42.41,1,1,0,0,0-.15.54,1.16,1.16,0,0,0,.15.6,1.33,1.33,0,0,0,.45.43,3.61,3.61,0,0,0,.71.35l1,.33a13.83,13.83,0,0,1,1.27.6,3.91,3.91,0,0,1,1,.68,2.54,2.54,0,0,1,.61.88,2.87,2.87,0,0,1,.22,1.19,2.72,2.72,0,0,1-.39,1.46,3.27,3.27,0,0,1-1,1,4.75,4.75,0,0,1-1.49.6,7.28,7.28,0,0,1-1.77.2A7.5,7.5,0,0,1,240.49,307.94Z" fill="#1d1d1b"/>
      <path d="M261.59,308.54a5.44,5.44,0,0,1-4.07-1.54,5.59,5.59,0,0,1-1.52-4.09,5.43,5.43,0,0,1,5.86-5.88,5.27,5.27,0,0,1,4,1.51,5.85,5.85,0,0,1,1.44,4.2,5.75,5.75,0,0,1-1.55,4.22A5.57,5.57,0,0,1,261.59,308.54Zm.12-9.53a2.81,2.81,0,0,0-2.31,1,4.23,4.23,0,0,0-.85,2.81,4,4,0,0,0,.86,2.72,2.87,2.87,0,0,0,2.3,1,2.75,2.75,0,0,0,2.26-1,4.36,4.36,0,0,0,.79-2.78A4.45,4.45,0,0,0,264,300,2.73,2.73,0,0,0,261.71,299Z" fill="#1d1d1b"/>
      <path d="M276.23,299.66a2.05,2.05,0,0,0-1.3-.36,2.25,2.25,0,0,0-1.85,1,4.52,4.52,0,0,0-.74,2.72v5.27h-2.49v-11h2.49v2.26h0a3.9,3.9,0,0,1,1.13-1.81,2.52,2.52,0,0,1,1.69-.65,2.06,2.06,0,0,1,1,.21Z" fill="#1d1d1b"/>
      <path d="M298.83,297.29l-3.24,11H293l-2-7.46a4.59,4.59,0,0,1-.15-1h-.05a3.85,3.85,0,0,1-.19.95l-2.17,7.48h-2.56l-3.23-11h2.58l2,7.92a5.88,5.88,0,0,1,.13,1h.07a5.36,5.36,0,0,1,.17-1l2.23-7.9h2.34l2,8a6.12,6.12,0,0,1,.14.94h.07a4.86,4.86,0,0,1,.16-.94l2-8Z" fill="#1d1d1b"/>
      <path d="M309.12,308.29H306.7v-1.72h0a3.64,3.64,0,0,1-3.34,2,3.5,3.5,0,0,1-2.54-.88,3.07,3.07,0,0,1-.92-2.33q0-3.12,3.59-3.63l3.26-.46c0-1.57-.74-2.35-2.23-2.35a5.34,5.34,0,0,0-3.55,1.35v-2.18a7.74,7.74,0,0,1,4-1q4.17,0,4.17,4.1Zm-2.41-5.41-2.31.32a3.66,3.66,0,0,0-1.61.53,1.51,1.51,0,0,0-.54,1.33,1.48,1.48,0,0,0,.49,1.15,2,2,0,0,0,1.34.44,2.46,2.46,0,0,0,1.89-.8,2.81,2.81,0,0,0,.74-2Z" fill="#1d1d1b"/>
      <path d="M314.66,308.29h-2.5V292h2.5Z" fill="#1d1d1b"/>
      <path d="M327.89,308.29h-3.16L320.45,303h0v5.29h-2.5V292h2.5v10.32h0l4-5h3l-4.54,5.3Z" fill="#1d1d1b"/>
      <path d="M330.71,295a1.48,1.48,0,0,1-1-.4,1.28,1.28,0,0,1-.44-1,1.31,1.31,0,0,1,.44-1,1.45,1.45,0,0,1,1-.41,1.55,1.55,0,0,1,1.08.41,1.34,1.34,0,0,1,.44,1,1.31,1.31,0,0,1-.44,1A1.51,1.51,0,0,1,330.71,295ZM332,308.29h-2.49v-11H332Z" fill="#1d1d1b"/>
      <path d="M345,308.29h-2.49v-6.2c0-2.06-.73-3.09-2.18-3.09a2.38,2.38,0,0,0-1.88.86,3.14,3.14,0,0,0-.74,2.15v6.28H335.2v-11h2.51v1.82h0a3.91,3.91,0,0,1,3.56-2.08,3.33,3.33,0,0,1,2.74,1.16,5.24,5.24,0,0,1,.95,3.37Z" fill="#1d1d1b"/>
      <path d="M358.05,307.4q0,6.06-6.09,6.06a9.09,9.09,0,0,1-3.75-.72v-2.27a7,7,0,0,0,3.43,1q3.92,0,3.92-3.86v-1.2h0a4.34,4.34,0,0,1-7,.64,5.94,5.94,0,0,1-1.23-3.94,7,7,0,0,1,1.32-4.46,4.39,4.39,0,0,1,3.63-1.65,3.51,3.51,0,0,1,3.24,1.78h0v-1.52h2.49Zm-2.47-4.15v-1.43a2.78,2.78,0,0,0-.77-2,2.51,2.51,0,0,0-1.92-.83,2.62,2.62,0,0,0-2.21,1.05,4.7,4.7,0,0,0-.8,2.93,4.05,4.05,0,0,0,.76,2.59,2.49,2.49,0,0,0,2,1,2.62,2.62,0,0,0,2.09-.93A3.5,3.5,0,0,0,355.58,303.25Z" fill="#1d1d1b"/>
      <path d="M373.56,294a2.28,2.28,0,0,0-1.15-.29c-1.21,0-1.81.68-1.81,2.05v1.5h2.55v1.95h-2.54v9.05h-2.49v-9.05h-1.88v-1.95h1.88V295.5a3.46,3.46,0,0,1,1.14-2.74,4.69,4.69,0,0,1,4.3-.8Z" fill="#1d1d1b"/>
      <path d="M379.8,308.54a5.43,5.43,0,0,1-4.06-1.54,5.55,5.55,0,0,1-1.52-4.09,5.41,5.41,0,0,1,5.85-5.88,5.28,5.28,0,0,1,4,1.51,5.85,5.85,0,0,1,1.44,4.2A5.79,5.79,0,0,1,384,307,5.58,5.58,0,0,1,379.8,308.54Zm.12-9.53a2.84,2.84,0,0,0-2.31,1,4.28,4.28,0,0,0-.85,2.81,4,4,0,0,0,.86,2.72,2.88,2.88,0,0,0,2.3,1,2.74,2.74,0,0,0,2.26-1,4.3,4.3,0,0,0,.79-2.78,4.39,4.39,0,0,0-.79-2.81A2.71,2.71,0,0,0,379.92,299Z" fill="#1d1d1b"/>
      <path d="M394.45,299.66a2.07,2.07,0,0,0-1.3-.36,2.24,2.24,0,0,0-1.85,1,4.45,4.45,0,0,0-.74,2.72v5.27h-2.5v-11h2.5v2.26h0a3.89,3.89,0,0,1,1.12-1.81,2.56,2.56,0,0,1,1.69-.65,2.07,2.07,0,0,1,1,.21Z" fill="#1d1d1b"/>
      <path d="M412,308.29h-2.49v-6c0-2.18-.73-3.27-2.18-3.27a2.29,2.29,0,0,0-1.85.95,3.78,3.78,0,0,0-.75,2.42v5.92h-2.5V292h2.5v7.11h0a3.93,3.93,0,0,1,3.57-2.08q3.66,0,3.66,4.48Z" fill="#1d1d1b"/>
      <path d="M423.5,308.29h-2.41v-1.72h0a3.64,3.64,0,0,1-3.34,2,3.5,3.5,0,0,1-2.54-.88,3.07,3.07,0,0,1-.92-2.33q0-3.12,3.59-3.63l3.27-.46c0-1.57-.75-2.35-2.24-2.35a5.3,5.3,0,0,0-3.54,1.35v-2.18a7.71,7.71,0,0,1,4-1q4.16,0,4.16,4.1Zm-2.4-5.41-2.31.32a3.66,3.66,0,0,0-1.62.53,1.51,1.51,0,0,0-.54,1.33,1.48,1.48,0,0,0,.5,1.15,2,2,0,0,0,1.34.44,2.45,2.45,0,0,0,1.88-.8,2.81,2.81,0,0,0,.75-2Z" fill="#1d1d1b"/>
      <path d="M429.05,308.29h-2.51V292h2.51Z" fill="#1d1d1b"/>
      <path d="M438.51,294a2.31,2.31,0,0,0-1.15-.29c-1.21,0-1.81.68-1.81,2.05v1.5h2.55v1.95h-2.54v9.05h-2.5v-9.05h-1.88v-1.95h1.88V295.5a3.46,3.46,0,0,1,1.14-2.74,4.16,4.16,0,0,1,2.85-1,4.1,4.1,0,0,1,1.46.21Z" fill="#1d1d1b"/>
      <path d="M280.07,332.29h-2.42v-1.72h0a3.64,3.64,0,0,1-3.34,2,3.5,3.5,0,0,1-2.54-.88,3.07,3.07,0,0,1-.92-2.33q0-3.12,3.59-3.63l3.26-.46c0-1.57-.74-2.35-2.23-2.35a5.34,5.34,0,0,0-3.55,1.35v-2.18a7.71,7.71,0,0,1,4-1q4.17,0,4.17,4.1Zm-2.41-5.41-2.31.32a3.66,3.66,0,0,0-1.61.53,1.73,1.73,0,0,0-.05,2.48,2,2,0,0,0,1.34.44,2.46,2.46,0,0,0,1.89-.8,2.85,2.85,0,0,0,.74-2Z" fill="#1d1d1b"/>
      <path d="M292.91,332.29h-2.5v-6.2c0-2.06-.72-3.09-2.18-3.09a2.39,2.39,0,0,0-1.88.86,3.19,3.19,0,0,0-.74,2.15v6.28h-2.5v-11h2.5v1.82h0a3.93,3.93,0,0,1,3.57-2.08,3.33,3.33,0,0,1,2.74,1.16,5.24,5.24,0,0,1,1,3.37Z" fill="#1d1d1b"/>
      <path d="M311.77,332.29h-2.49v-6c0-2.18-.73-3.27-2.18-3.27a2.29,2.29,0,0,0-1.85.95,3.78,3.78,0,0,0-.75,2.42v5.92H302V316h2.51v7.11h0a3.93,3.93,0,0,1,3.57-2.08q3.66,0,3.66,4.48Z" fill="#1d1d1b"/>
      <path d="M319.68,332.54a5.44,5.44,0,0,1-4.07-1.54,5.59,5.59,0,0,1-1.52-4.09,5.41,5.41,0,0,1,5.85-5.88,5.28,5.28,0,0,1,4,1.51,5.85,5.85,0,0,1,1.44,4.2,5.79,5.79,0,0,1-1.55,4.22A5.57,5.57,0,0,1,319.68,332.54Zm.11-9.53a2.84,2.84,0,0,0-2.31,1,4.28,4.28,0,0,0-.84,2.81,4,4,0,0,0,.85,2.72,2.88,2.88,0,0,0,2.3,1,2.77,2.77,0,0,0,2.27-1,4.36,4.36,0,0,0,.78-2.78,4.45,4.45,0,0,0-.78-2.81A2.75,2.75,0,0,0,319.79,323Z" fill="#1d1d1b"/>
      <path d="M337.53,332.29H335v-1.75H335a3.56,3.56,0,0,1-3.37,2q-3.9,0-3.9-4.68v-6.57h2.49v6.31c0,2,.77,3,2.29,3a2.31,2.31,0,0,0,1.82-.82,3.11,3.11,0,0,0,.72-2.14v-6.32h2.49Z" fill="#1d1d1b"/>
      <path d="M347.15,323.66a2,2,0,0,0-1.3-.36,2.23,2.23,0,0,0-1.84,1,4.45,4.45,0,0,0-.74,2.72v5.27h-2.5v-11h2.5v2.26h0a3.89,3.89,0,0,1,1.12-1.81,2.56,2.56,0,0,1,1.69-.65,2,2,0,0,1,1,.21Z" fill="#1d1d1b"/>
      <path d="M348.15,332.52a1.53,1.53,0,0,1-1.09-.42,1.36,1.36,0,0,1-.45-1,1.38,1.38,0,0,1,.45-1,1.5,1.5,0,0,1,1.09-.43,1.57,1.57,0,0,1,1.12.43,1.38,1.38,0,0,1,.45,1,1.36,1.36,0,0,1-.45,1A1.61,1.61,0,0,1,348.15,332.52Z" fill="#1d1d1b"/>
    </g>
  </g>
</svg>
