<svg xmlns="http://www.w3.org/2000/svg" xmlns:xlink="http://www.w3.org/1999/xlink" viewBox="0 0 595.28 536">
  <g id="txt_bubble_5">
    <image width="4248" height="3840" transform="translate(1.16) scale(0.14)" xlink:href="../layout_images/txt_bubble.png"/>
    <g>
      <path d="M211.84,194.13l-5.05,9.81v5.59h-2.55V204l-4.92-9.86h2.91l3,6.61c0,.07.14.37.32.89h0a6.89,6.89,0,0,1,.36-.89l3.17-6.61Z" fill="#1d1d1b"/>
      <path d="M216.45,209.79a5.42,5.42,0,0,1-4.06-1.54,5.55,5.55,0,0,1-1.52-4.09,5.78,5.78,0,0,1,1.58-4.33,5.86,5.86,0,0,1,4.27-1.55,5.28,5.28,0,0,1,4,1.51,5.85,5.85,0,0,1,1.44,4.2,5.75,5.75,0,0,1-1.56,4.22A5.58,5.58,0,0,1,216.45,209.79Zm.12-9.53a2.86,2.86,0,0,0-2.31,1,4.26,4.26,0,0,0-.85,2.82,4,4,0,0,0,.86,2.72,2.89,2.89,0,0,0,2.3,1,2.74,2.74,0,0,0,2.26-1,4.3,4.3,0,0,0,.79-2.78,4.39,4.39,0,0,0-.79-2.81A2.73,2.73,0,0,0,216.57,200.26Z" fill="#1d1d1b"/>
      <path d="M234.31,209.53h-2.5v-1.74h0a3.57,3.57,0,0,1-3.37,2q-3.9,0-3.9-4.68v-6.58H227v6.32c0,2,.76,3,2.29,3a2.32,2.32,0,0,0,1.82-.81,3.18,3.18,0,0,0,.71-2.14v-6.33h2.5Z" fill="#1d1d1b"/>
      <path d="M243.93,200.91a2,2,0,0,0-1.3-.36,2.25,2.25,0,0,0-1.85,1,4.5,4.5,0,0,0-.74,2.72v5.26h-2.49v-11H240v2.27h0a3.85,3.85,0,0,1,1.13-1.81,2.54,2.54,0,0,1,1.69-.65,2.18,2.18,0,0,1,1,.2Z" fill="#1d1d1b"/>
      <path d="M261.52,209.53H259v-6c0-2.18-.72-3.27-2.18-3.27a2.3,2.3,0,0,0-1.85.95,3.75,3.75,0,0,0-.75,2.41v5.92h-2.5V193.25h2.5v7.11h0a3.93,3.93,0,0,1,3.56-2.08c2.44,0,3.67,1.49,3.67,4.48Z" fill="#1d1d1b"/>
      <path d="M273.86,204.71h-7.5a3.15,3.15,0,0,0,.94,2.35,3.51,3.51,0,0,0,2.47.83,5.44,5.44,0,0,0,3.23-1v2a7.4,7.4,0,0,1-4,.94,4.9,4.9,0,0,1-3.8-1.5,6,6,0,0,1-1.38-4.21,5.89,5.89,0,0,1,1.51-4.19,5,5,0,0,1,3.78-1.61,4.31,4.31,0,0,1,3.49,1.45,6,6,0,0,1,1.24,4ZM271.45,203a3.25,3.25,0,0,0-.63-2.09,2.12,2.12,0,0,0-1.72-.75,2.39,2.39,0,0,0-1.82.79,3.51,3.51,0,0,0-.92,2Z" fill="#1d1d1b"/>
      <path d="M284.68,209.53h-2.42v-1.72h0a3.65,3.65,0,0,1-3.35,2,3.52,3.52,0,0,1-2.54-.88,3.08,3.08,0,0,1-.91-2.33q0-3.12,3.58-3.63l3.27-.46c0-1.57-.75-2.36-2.24-2.36a5.31,5.31,0,0,0-3.54,1.36v-2.18a7.71,7.71,0,0,1,4-1c2.78,0,4.17,1.36,4.17,4.1Zm-2.41-5.4-2.31.32a3.8,3.8,0,0,0-1.62.52,1.53,1.53,0,0,0-.54,1.34,1.48,1.48,0,0,0,.5,1.15,2,2,0,0,0,1.34.44,2.47,2.47,0,0,0,1.88-.8,2.81,2.81,0,0,0,.75-2Z" fill="#1d1d1b"/>
      <path d="M294.1,200.91a2.05,2.05,0,0,0-1.3-.36,2.24,2.24,0,0,0-1.85,1,4.43,4.43,0,0,0-.74,2.72v5.26h-2.49v-11h2.49v2.27h0a3.84,3.84,0,0,1,1.12-1.81,2.56,2.56,0,0,1,1.69-.65,2.2,2.2,0,0,1,1,.2Z" fill="#1d1d1b"/>
      <path d="M302.29,209.42a4.35,4.35,0,0,1-1.92.36q-3.19,0-3.2-3.07v-6.22h-1.84v-2h1.84V196l2.49-.71v3.25h2.63v2h-2.63V206a2.16,2.16,0,0,0,.36,1.4,1.49,1.49,0,0,0,1.18.41,1.72,1.72,0,0,0,1.09-.36Z" fill="#1d1d1b"/>
      <path d="M320.26,209.53h-2.49v-6c0-2.18-.72-3.27-2.18-3.27a2.29,2.29,0,0,0-1.85.95,3.75,3.75,0,0,0-.75,2.41v5.92h-2.5V193.25H313v7.11h0a3.94,3.94,0,0,1,3.57-2.08q3.66,0,3.66,4.48Z" fill="#1d1d1b"/>
      <path d="M331.74,209.53h-2.42v-1.72h0a3.65,3.65,0,0,1-3.34,2,3.49,3.49,0,0,1-2.54-.88,3.05,3.05,0,0,1-.92-2.33q0-3.12,3.58-3.63l3.27-.46c0-1.57-.74-2.36-2.23-2.36a5.33,5.33,0,0,0-3.55,1.36v-2.18a7.71,7.71,0,0,1,4-1c2.78,0,4.17,1.36,4.17,4.1Zm-2.41-5.4-2.31.32a3.9,3.9,0,0,0-1.62.52,1.53,1.53,0,0,0-.54,1.34,1.48,1.48,0,0,0,.5,1.15,2,2,0,0,0,1.34.44,2.46,2.46,0,0,0,1.88-.8,2.81,2.81,0,0,0,.75-2Z" fill="#1d1d1b"/>
      <path d="M334.09,209.19v-2.31a5,5,0,0,0,3.08,1.06c1.51,0,2.26-.44,2.26-1.33a1.06,1.06,0,0,0-.2-.64,1.68,1.68,0,0,0-.52-.46,3.68,3.68,0,0,0-.77-.37l-1-.37a9.27,9.27,0,0,1-1.22-.56,3.63,3.63,0,0,1-.91-.69,2.66,2.66,0,0,1-.54-.86,3.23,3.23,0,0,1-.18-1.13,2.6,2.6,0,0,1,.38-1.4,3.08,3.08,0,0,1,1-1,4.46,4.46,0,0,1,1.44-.62,6.51,6.51,0,0,1,1.66-.21,7.51,7.51,0,0,1,2.73.46v2.18a4.6,4.6,0,0,0-2.67-.8,3.74,3.74,0,0,0-.85.1,2,2,0,0,0-.65.27,1.27,1.27,0,0,0-.42.41,1,1,0,0,0-.15.53,1.17,1.17,0,0,0,.15.61,1.33,1.33,0,0,0,.45.43,3.13,3.13,0,0,0,.71.34c.27.11.59.22.95.34s.89.39,1.27.59a3.94,3.94,0,0,1,1,.69,2.45,2.45,0,0,1,.61.88,2.86,2.86,0,0,1,.22,1.18,2.68,2.68,0,0,1-.39,1.46,3.3,3.3,0,0,1-1,1,4.75,4.75,0,0,1-1.49.6,7.28,7.28,0,0,1-1.77.2A7.5,7.5,0,0,1,334.09,209.19Z" fill="#1d1d1b"/>
      <path d="M356.11,209.42a4.38,4.38,0,0,1-1.92.36c-2.14,0-3.2-1-3.2-3.07v-6.22h-1.84v-2H351V196l2.49-.71v3.25h2.63v2h-2.63V206a2.23,2.23,0,0,0,.35,1.4,1.51,1.51,0,0,0,1.19.41,1.72,1.72,0,0,0,1.09-.36Z" fill="#1d1d1b"/>
      <path d="M363,209.79a5.44,5.44,0,0,1-4.07-1.54,5.59,5.59,0,0,1-1.52-4.09,5.78,5.78,0,0,1,1.59-4.33,5.85,5.85,0,0,1,4.27-1.55,5.27,5.27,0,0,1,4,1.51,5.85,5.85,0,0,1,1.44,4.2,5.75,5.75,0,0,1-1.55,4.22A5.59,5.59,0,0,1,363,209.79Zm.12-9.53a2.83,2.83,0,0,0-2.31,1,4.26,4.26,0,0,0-.85,2.82,4,4,0,0,0,.86,2.72,2.89,2.89,0,0,0,2.3,1,2.74,2.74,0,0,0,2.26-1,4.36,4.36,0,0,0,.79-2.78,4.45,4.45,0,0,0-.79-2.81A2.73,2.73,0,0,0,363.13,200.26Z" fill="#1d1d1b"/>
      <path d="M392.11,198.53l-3.25,11h-2.61l-2-7.45a5.31,5.31,0,0,1-.16-1h0a4.38,4.38,0,0,1-.19.95l-2.17,7.47h-2.56l-3.23-11h2.58l2,7.93a4.26,4.26,0,0,1,.13.95h.08a5.21,5.21,0,0,1,.17-1l2.22-7.91h2.35l2,8a5.21,5.21,0,0,1,.14.95h.08a4.94,4.94,0,0,1,.16-.95l2-8Z" fill="#1d1d1b"/>
      <path d="M398.75,209.79a5.44,5.44,0,0,1-4.07-1.54,5.59,5.59,0,0,1-1.52-4.09,5.78,5.78,0,0,1,1.59-4.33,5.85,5.85,0,0,1,4.27-1.55,5.27,5.27,0,0,1,4,1.51,5.85,5.85,0,0,1,1.44,4.2,5.79,5.79,0,0,1-1.55,4.22A5.59,5.59,0,0,1,398.75,209.79Zm.11-9.53a2.82,2.82,0,0,0-2.3,1,4.26,4.26,0,0,0-.85,2.82,4,4,0,0,0,.86,2.72,2.87,2.87,0,0,0,2.29,1,2.75,2.75,0,0,0,2.27-1,4.36,4.36,0,0,0,.79-2.78,4.45,4.45,0,0,0-.79-2.81A2.73,2.73,0,0,0,398.86,200.26Z" fill="#1d1d1b"/>
      <path d="M413.39,200.91a2.05,2.05,0,0,0-1.3-.36,2.24,2.24,0,0,0-1.85,1,4.5,4.5,0,0,0-.74,2.72v5.26H407v-11h2.49v2.27h0a3.92,3.92,0,0,1,1.12-1.81,2.57,2.57,0,0,1,1.7-.65,2.18,2.18,0,0,1,1,.2Z" fill="#1d1d1b"/>
      <path d="M425.13,209.53H422l-4.27-5.28h-.05v5.28h-2.5V193.25h2.5v10.32h.05l4-5h3l-4.54,5.31Z" fill="#1d1d1b"/>
      <path d="M199.76,233.53h-2.49v-6c0-2.18-.73-3.27-2.18-3.27a2.29,2.29,0,0,0-1.85.95,3.75,3.75,0,0,0-.75,2.41v5.92H190V217.25h2.5v7.11h0a3.93,3.93,0,0,1,3.57-2.08q3.66,0,3.66,4.48Z" fill="#1d1d1b"/>
      <path d="M211.24,233.53h-2.42v-1.72h0a3.65,3.65,0,0,1-3.34,2,3.49,3.49,0,0,1-2.54-.88,3.05,3.05,0,0,1-.92-2.33q0-3.12,3.58-3.63l3.27-.46c0-1.57-.75-2.36-2.23-2.36a5.32,5.32,0,0,0-3.55,1.36v-2.18a7.71,7.71,0,0,1,4-1c2.78,0,4.17,1.36,4.17,4.1Zm-2.41-5.4-2.31.32a3.85,3.85,0,0,0-1.62.52,1.53,1.53,0,0,0-.54,1.34,1.48,1.48,0,0,0,.5,1.15,2,2,0,0,0,1.34.44,2.46,2.46,0,0,0,1.88-.8,2.81,2.81,0,0,0,.75-2Z" fill="#1d1d1b"/>
      <path d="M220.66,224.91a2.05,2.05,0,0,0-1.3-.36,2.24,2.24,0,0,0-1.85,1,4.5,4.5,0,0,0-.74,2.72v5.26h-2.49v-11h2.49v2.27h0a3.84,3.84,0,0,1,1.12-1.81,2.57,2.57,0,0,1,1.7-.65,2.18,2.18,0,0,1,1,.2Z" fill="#1d1d1b"/>
      <path d="M232.23,233.53h-2.5v-1.87h0a4.29,4.29,0,0,1-6.95.65,6.07,6.07,0,0,1-1.22-4,6.73,6.73,0,0,1,1.34-4.37,4.41,4.41,0,0,1,3.6-1.64,3.43,3.43,0,0,1,3.23,1.78h0v-6.81h2.5Zm-2.46-5v-1.44a2.8,2.8,0,0,0-.77-2,2.55,2.55,0,0,0-1.94-.82,2.63,2.63,0,0,0-2.2,1.05,4.63,4.63,0,0,0-.8,2.88,4.18,4.18,0,0,0,.77,2.65,2.49,2.49,0,0,0,2.07,1,2.59,2.59,0,0,0,2.07-.93A3.56,3.56,0,0,0,229.77,228.51Z" fill="#1d1d1b"/>
      <path d="M244.79,228.71H237.3a3.12,3.12,0,0,0,.94,2.35,3.49,3.49,0,0,0,2.46.83,5.47,5.47,0,0,0,3.24-1v2a7.42,7.42,0,0,1-4,.94,4.92,4.92,0,0,1-3.81-1.5,6,6,0,0,1-1.38-4.21,5.9,5.9,0,0,1,1.52-4.19,5,5,0,0,1,3.78-1.61,4.32,4.32,0,0,1,3.49,1.45,6,6,0,0,1,1.23,4Zm-2.4-1.76a3.2,3.2,0,0,0-.64-2.09,2.09,2.09,0,0,0-1.71-.75,2.38,2.38,0,0,0-1.82.79,3.51,3.51,0,0,0-.92,2Z" fill="#1d1d1b"/>
      <path d="M253.55,224.91a2.05,2.05,0,0,0-1.3-.36,2.25,2.25,0,0,0-1.85,1,4.5,4.5,0,0,0-.74,2.72v5.26h-2.49v-11h2.49v2.27h0a3.85,3.85,0,0,1,1.13-1.81,2.54,2.54,0,0,1,1.69-.65,2.18,2.18,0,0,1,1,.2Z" fill="#1d1d1b"/>
      <path d="M255.91,231l-1.66,5.36h-1.87l1.18-5.36Z" fill="#1d1d1b"/>
      <path d="M279.73,222.53l-3.25,11h-2.61l-2-7.45a4.59,4.59,0,0,1-.15-1h-.05a4.38,4.38,0,0,1-.19.95l-2.17,7.47h-2.56l-3.23-11h2.58l2,7.93a4.26,4.26,0,0,1,.13.95h.08a5.21,5.21,0,0,1,.17-1l2.22-7.91h2.35l2,8a5.21,5.21,0,0,1,.14.95h.08a4.94,4.94,0,0,1,.16-.95l2-8Z" fill="#1d1d1b"/>
      <path d="M291.35,233.53h-2.49v-6c0-2.18-.73-3.27-2.18-3.27a2.29,2.29,0,0,0-1.85.95,3.75,3.75,0,0,0-.75,2.41v5.92h-2.5V217.25h2.5v7.11h0a3.93,3.93,0,0,1,3.57-2.08q3.66,0,3.66,4.48Z" fill="#1d1d1b"/>
      <path d="M303.69,228.71H296.2a3.12,3.12,0,0,0,.94,2.35,3.49,3.49,0,0,0,2.46.83,5.42,5.42,0,0,0,3.23-1v2a7.36,7.36,0,0,1-4,.94,4.92,4.92,0,0,1-3.81-1.5,6,6,0,0,1-1.38-4.21,5.9,5.9,0,0,1,1.52-4.19,5,5,0,0,1,3.78-1.61,4.32,4.32,0,0,1,3.49,1.45,6,6,0,0,1,1.23,4Zm-2.4-1.76a3.2,3.2,0,0,0-.64-2.09,2.09,2.09,0,0,0-1.71-.75,2.42,2.42,0,0,0-1.83.79,3.57,3.57,0,0,0-.91,2Z" fill="#1d1d1b"/>
      <path d="M315.87,233.53h-2.5v-6.19c0-2.06-.72-3.09-2.18-3.09a2.39,2.39,0,0,0-1.88.86,3.17,3.17,0,0,0-.74,2.15v6.27h-2.5v-11h2.5v1.83h0a3.93,3.93,0,0,1,3.57-2.08,3.31,3.31,0,0,1,2.74,1.16,5.24,5.24,0,0,1,.95,3.37Z" fill="#1d1d1b"/>
      <path d="M330.75,233.42a4.32,4.32,0,0,1-1.92.36q-3.19,0-3.2-3.07v-6.22h-1.84v-2h1.84V220l2.49-.71v3.25h2.63v2h-2.63V230a2.16,2.16,0,0,0,.36,1.4,1.49,1.49,0,0,0,1.18.41,1.7,1.7,0,0,0,1.09-.36Z" fill="#1d1d1b"/>
      <path d="M341.35,233.53h-2.42v-1.72h0a3.65,3.65,0,0,1-3.34,2,3.49,3.49,0,0,1-2.54-.88,3.05,3.05,0,0,1-.92-2.33q0-3.12,3.58-3.63l3.27-.46c0-1.57-.75-2.36-2.23-2.36a5.33,5.33,0,0,0-3.55,1.36v-2.18a7.71,7.71,0,0,1,4-1c2.78,0,4.17,1.36,4.17,4.1Zm-2.41-5.4-2.31.32A3.85,3.85,0,0,0,335,229a1.53,1.53,0,0,0-.54,1.34,1.48,1.48,0,0,0,.5,1.15,2,2,0,0,0,1.34.44,2.46,2.46,0,0,0,1.88-.8,2.81,2.81,0,0,0,.75-2Z" fill="#1d1d1b"/>
      <path d="M354.37,233.53h-3.16l-4.28-5.28h0v5.28h-2.5V217.25h2.5v10.32h0l4-5h3l-4.55,5.31Z" fill="#1d1d1b"/>
      <path d="M364.86,228.71h-7.5a3.15,3.15,0,0,0,.94,2.35,3.51,3.51,0,0,0,2.47.83,5.44,5.44,0,0,0,3.23-1v2a7.38,7.38,0,0,1-4,.94,4.92,4.92,0,0,1-3.81-1.5,6,6,0,0,1-1.38-4.21,5.9,5.9,0,0,1,1.52-4.19,5,5,0,0,1,3.77-1.61,4.34,4.34,0,0,1,3.5,1.45,6,6,0,0,1,1.23,4ZM362.45,227a3.14,3.14,0,0,0-.63-2.09,2.11,2.11,0,0,0-1.72-.75,2.41,2.41,0,0,0-1.82.79,3.58,3.58,0,0,0-.92,2Z" fill="#1d1d1b"/>
      <path d="M377,233.53h-2.49v-6.19c0-2.06-.73-3.09-2.18-3.09a2.38,2.38,0,0,0-1.88.86,3.12,3.12,0,0,0-.74,2.15v6.27h-2.51v-11h2.51v1.83h0a3.91,3.91,0,0,1,3.57-2.08,3.32,3.32,0,0,1,2.74,1.16,5.24,5.24,0,0,1,.94,3.37Z" fill="#1d1d1b"/>
      <path d="M394.56,233.53h-2.41v-1.72h0a3.64,3.64,0,0,1-3.34,2,3.5,3.5,0,0,1-2.54-.88,3.09,3.09,0,0,1-.92-2.33q0-3.12,3.59-3.63l3.27-.46c0-1.57-.75-2.36-2.24-2.36a5.31,5.31,0,0,0-3.54,1.36v-2.18a7.71,7.71,0,0,1,4-1c2.77,0,4.16,1.36,4.16,4.1Zm-2.4-5.4-2.31.32a3.8,3.8,0,0,0-1.62.52,1.53,1.53,0,0,0-.54,1.34,1.45,1.45,0,0,0,.5,1.15,2,2,0,0,0,1.33.44,2.49,2.49,0,0,0,1.89-.8,2.81,2.81,0,0,0,.75-2Z" fill="#1d1d1b"/>
      <path d="M413.43,233.53h-2.5v-6c0-2.18-.72-3.27-2.18-3.27a2.27,2.27,0,0,0-1.84.95,3.7,3.7,0,0,0-.76,2.41v5.92h-2.5V217.25h2.5v7.11h.05a3.93,3.93,0,0,1,3.56-2.08q3.67,0,3.67,4.48Z" fill="#1d1d1b"/>
      <path d="M421.33,233.79a5.43,5.43,0,0,1-4.06-1.54,5.55,5.55,0,0,1-1.52-4.09,5.78,5.78,0,0,1,1.58-4.33,5.86,5.86,0,0,1,4.27-1.55,5.28,5.28,0,0,1,4,1.51,5.85,5.85,0,0,1,1.44,4.2,5.79,5.79,0,0,1-1.55,4.22A5.62,5.62,0,0,1,421.33,233.79Zm.12-9.53a2.86,2.86,0,0,0-2.31,1,4.31,4.31,0,0,0-.85,2.82,4,4,0,0,0,.86,2.72,2.9,2.9,0,0,0,2.3,1,2.73,2.73,0,0,0,2.26-1,4.3,4.3,0,0,0,.79-2.78,4.39,4.39,0,0,0-.79-2.81A2.71,2.71,0,0,0,421.45,224.26Z" fill="#1d1d1b"/>
      <path d="M435.39,233.42a4.32,4.32,0,0,1-1.92.36q-3.2,0-3.2-3.07v-6.22h-1.84v-2h1.84V220l2.49-.71v3.25h2.63v2h-2.63V230a2.16,2.16,0,0,0,.36,1.4,1.49,1.49,0,0,0,1.18.41,1.7,1.7,0,0,0,1.09-.36Z" fill="#1d1d1b"/>
      <path d="M199.71,255.94h0v1.59h-2.5V241.25h2.5v7.22h0a4.08,4.08,0,0,1,3.74-2.19,4,4,0,0,1,3.26,1.47,6.22,6.22,0,0,1,1.17,4,6.89,6.89,0,0,1-1.32,4.42,4.35,4.35,0,0,1-3.61,1.66A3.53,3.53,0,0,1,199.71,255.94Zm-.06-4.37v1.37a2.92,2.92,0,0,0,.76,2,2.73,2.73,0,0,0,4.13-.24,5.09,5.09,0,0,0,.79-3,4,4,0,0,0-.74-2.54,2.42,2.42,0,0,0-2-.92,2.68,2.68,0,0,0-2.14,1A3.5,3.5,0,0,0,199.65,251.57Z" fill="#1d1d1b"/>
      <path d="M218.62,257.53H216.2v-1.72h0a3.65,3.65,0,0,1-3.35,2,3.52,3.52,0,0,1-2.54-.88,3.08,3.08,0,0,1-.91-2.33q0-3.12,3.58-3.63l3.27-.46c0-1.57-.75-2.36-2.23-2.36a5.32,5.32,0,0,0-3.55,1.36v-2.18a7.71,7.71,0,0,1,4-1c2.78,0,4.17,1.36,4.17,4.1Zm-2.41-5.4-2.31.32a3.85,3.85,0,0,0-1.62.52,1.53,1.53,0,0,0-.54,1.34,1.48,1.48,0,0,0,.5,1.15,2,2,0,0,0,1.34.44,2.46,2.46,0,0,0,1.88-.8,2.81,2.81,0,0,0,.75-2Z" fill="#1d1d1b"/>
      <path d="M227.46,257.42a4.4,4.4,0,0,1-1.93.36q-3.19,0-3.2-3.07v-6.22H220.5v-2h1.83V244l2.49-.71v3.25h2.64v2h-2.64V254a2.16,2.16,0,0,0,.36,1.4,1.5,1.5,0,0,0,1.18.41,1.75,1.75,0,0,0,1.1-.36Z" fill="#1d1d1b"/>
      <path d="M239.38,257.53h-2.49v-6c0-2.18-.73-3.27-2.18-3.27a2.29,2.29,0,0,0-1.85.95,3.75,3.75,0,0,0-.75,2.41v5.92H229.6V241.25h2.51v7.11h0a3.93,3.93,0,0,1,3.57-2.08q3.66,0,3.66,4.48Z" fill="#1d1d1b"/>
      <path d="M244.74,255l-1.66,5.36h-1.87l1.18-5.36Z" fill="#1d1d1b"/>
      <path d="M256.3,255.94h0v1.59h-2.5V241.25h2.5v7.22h0a4.08,4.08,0,0,1,3.74-2.19,4,4,0,0,1,3.26,1.47,6.22,6.22,0,0,1,1.17,4,6.89,6.89,0,0,1-1.32,4.42,4.35,4.35,0,0,1-3.61,1.66A3.53,3.53,0,0,1,256.3,255.94Zm-.07-4.37v1.37a2.93,2.93,0,0,0,.77,2,2.73,2.73,0,0,0,4.13-.24,5.09,5.09,0,0,0,.79-3,4,4,0,0,0-.74-2.54,2.42,2.42,0,0,0-2-.92,2.68,2.68,0,0,0-2.14,1A3.51,3.51,0,0,0,256.23,251.57Z" fill="#1d1d1b"/>
      <path d="M276.33,252.71h-7.49a3.12,3.12,0,0,0,.94,2.35,3.47,3.47,0,0,0,2.46.83,5.42,5.42,0,0,0,3.23-1v2a7.36,7.36,0,0,1-4,.94,4.92,4.92,0,0,1-3.81-1.5,6,6,0,0,1-1.38-4.21,5.9,5.9,0,0,1,1.52-4.19,5,5,0,0,1,3.78-1.61,4.34,4.34,0,0,1,3.49,1.45,6,6,0,0,1,1.23,4Zm-2.4-1.76a3.2,3.2,0,0,0-.64-2.09,2.1,2.1,0,0,0-1.72-.75,2.41,2.41,0,0,0-1.82.79,3.57,3.57,0,0,0-.91,2Z" fill="#1d1d1b"/>
      <path d="M286.58,257a6.11,6.11,0,0,1-3.12.76,5.31,5.31,0,0,1-4-1.53,5.42,5.42,0,0,1-1.5-4,6,6,0,0,1,1.62-4.37,5.78,5.78,0,0,1,4.32-1.64,6.3,6.3,0,0,1,2.65.52v2.32a4,4,0,0,0-2.45-.86,3.43,3.43,0,0,0-2.59,1.07,3.93,3.93,0,0,0-1,2.8,3.71,3.71,0,0,0,1,2.7,3.35,3.35,0,0,0,2.55,1,4,4,0,0,0,2.53-.95Z" fill="#1d1d1b"/>
      <path d="M297.5,257.53h-2.42v-1.72h0a3.65,3.65,0,0,1-3.35,2,3.52,3.52,0,0,1-2.54-.88,3.08,3.08,0,0,1-.91-2.33q0-3.12,3.58-3.63l3.27-.46c0-1.57-.75-2.36-2.24-2.36a5.31,5.31,0,0,0-3.54,1.36v-2.18a7.71,7.71,0,0,1,4-1c2.78,0,4.17,1.36,4.17,4.1Zm-2.41-5.4-2.31.32a3.8,3.8,0,0,0-1.62.52,1.53,1.53,0,0,0-.54,1.34,1.48,1.48,0,0,0,.5,1.15,2,2,0,0,0,1.34.44,2.46,2.46,0,0,0,1.88-.8,2.81,2.81,0,0,0,.75-2Z" fill="#1d1d1b"/>
      <path d="M310.13,257.53h-2.49v-1.74h-.05a3.56,3.56,0,0,1-3.37,2q-3.9,0-3.9-4.68v-6.58h2.49v6.32c0,2,.77,3,2.29,3a2.31,2.31,0,0,0,1.82-.81,3.13,3.13,0,0,0,.72-2.14v-6.33h2.49Z" fill="#1d1d1b"/>
      <path d="M312.69,257.19v-2.31a5,5,0,0,0,3.08,1.06c1.5,0,2.25-.44,2.25-1.33a1.05,1.05,0,0,0-.19-.64,1.81,1.81,0,0,0-.52-.46,4.24,4.24,0,0,0-.77-.37l-1-.37a9.91,9.91,0,0,1-1.22-.56,3.57,3.57,0,0,1-.9-.69,2.5,2.5,0,0,1-.54-.86,3.23,3.23,0,0,1-.18-1.13,2.59,2.59,0,0,1,.37-1.4,3.17,3.17,0,0,1,1-1,4.55,4.55,0,0,1,1.44-.62,6.59,6.59,0,0,1,1.67-.21,7.59,7.59,0,0,1,2.73.46v2.18a4.64,4.64,0,0,0-2.67-.8,3.67,3.67,0,0,0-.85.1,1.93,1.93,0,0,0-.65.27,1.27,1.27,0,0,0-.42.41,1,1,0,0,0-.15.53,1.17,1.17,0,0,0,.15.61,1.39,1.39,0,0,0,.44.43,3.61,3.61,0,0,0,.71.34l.95.34c.48.2.9.39,1.28.59a4.37,4.37,0,0,1,1,.69,2.58,2.58,0,0,1,.61.88,3,3,0,0,1,.22,1.18,2.68,2.68,0,0,1-.39,1.46,3.3,3.3,0,0,1-1,1,4.85,4.85,0,0,1-1.49.6,7.3,7.3,0,0,1-1.78.2A7.49,7.49,0,0,1,312.69,257.19Z" fill="#1d1d1b"/>
      <path d="M332.17,252.71h-7.5a3.19,3.19,0,0,0,.94,2.35,3.51,3.51,0,0,0,2.47.83,5.44,5.44,0,0,0,3.23-1v2a7.36,7.36,0,0,1-4,.94,4.92,4.92,0,0,1-3.81-1.5,6,6,0,0,1-1.38-4.21,5.9,5.9,0,0,1,1.52-4.19,5,5,0,0,1,3.78-1.61,4.34,4.34,0,0,1,3.49,1.45,6,6,0,0,1,1.23,4Zm-2.4-1.76a3.2,3.2,0,0,0-.64-2.09,2.11,2.11,0,0,0-1.72-.75,2.41,2.41,0,0,0-1.82.79,3.64,3.64,0,0,0-.92,2Z" fill="#1d1d1b"/>
      <path d="M341.85,244.22a1.52,1.52,0,0,1-1.05-.39,1.31,1.31,0,0,1-.43-1,1.33,1.33,0,0,1,.43-1,1.45,1.45,0,0,1,1.05-.41,1.52,1.52,0,0,1,1.08.41,1.34,1.34,0,0,1,.44,1,1.32,1.32,0,0,1-.44,1A1.52,1.52,0,0,1,341.85,244.22Zm1.24,13.31h-2.5v-11h2.5Z" fill="#1d1d1b"/>
      <path d="M352.14,257.42a4.38,4.38,0,0,1-1.92.36q-3.2,0-3.2-3.07v-6.22h-1.84v-2H347V244l2.49-.71v3.25h2.63v2h-2.63V254a2.23,2.23,0,0,0,.35,1.4,1.51,1.51,0,0,0,1.19.41,1.72,1.72,0,0,0,1.09-.36Z" fill="#1d1d1b"/>
      <path d="M366.14,257.42a4.38,4.38,0,0,1-1.92.36c-2.14,0-3.2-1-3.2-3.07v-6.22h-1.84v-2H361V244l2.49-.71v3.25h2.63v2h-2.63V254a2.23,2.23,0,0,0,.35,1.4,1.5,1.5,0,0,0,1.18.41,1.73,1.73,0,0,0,1.1-.36Z" fill="#1d1d1b"/>
      <path d="M374.67,248.91a2.05,2.05,0,0,0-1.3-.36,2.25,2.25,0,0,0-1.85,1,4.5,4.5,0,0,0-.74,2.72v5.26h-2.49v-11h2.49v2.27h0a3.92,3.92,0,0,1,1.12-1.81,2.57,2.57,0,0,1,1.7-.65,2.18,2.18,0,0,1,1,.2Z" fill="#1d1d1b"/>
      <path d="M377.69,244.22a1.52,1.52,0,0,1-1.05-.39,1.32,1.32,0,0,1-.44-1,1.34,1.34,0,0,1,.44-1,1.45,1.45,0,0,1,1.05-.41,1.48,1.48,0,0,1,1.07.41,1.31,1.31,0,0,1,.44,1,1.29,1.29,0,0,1-.44,1A1.48,1.48,0,0,1,377.69,244.22Zm1.23,13.31h-2.49v-11h2.49Z" fill="#1d1d1b"/>
      <path d="M391.49,252.71H384a3.15,3.15,0,0,0,.94,2.35,3.51,3.51,0,0,0,2.47.83,5.44,5.44,0,0,0,3.23-1v2a7.38,7.38,0,0,1-4,.94,4.92,4.92,0,0,1-3.81-1.5,6,6,0,0,1-1.38-4.21,5.9,5.9,0,0,1,1.52-4.19,5,5,0,0,1,3.77-1.61,4.34,4.34,0,0,1,3.5,1.45,6,6,0,0,1,1.23,4ZM389.08,251a3.14,3.14,0,0,0-.63-2.09,2.11,2.11,0,0,0-1.72-.75,2.41,2.41,0,0,0-1.82.79,3.58,3.58,0,0,0-.92,2Z" fill="#1d1d1b"/>
      <path d="M393.18,257.19v-2.31a5,5,0,0,0,3.08,1.06c1.5,0,2.26-.44,2.26-1.33a1.06,1.06,0,0,0-.2-.64,1.81,1.81,0,0,0-.52-.46,3.94,3.94,0,0,0-.77-.37l-1-.37a9.91,9.91,0,0,1-1.22-.56,3.57,3.57,0,0,1-.9-.69,2.5,2.5,0,0,1-.54-.86,3.23,3.23,0,0,1-.18-1.13,2.59,2.59,0,0,1,.37-1.4,3.17,3.17,0,0,1,1-1,4.65,4.65,0,0,1,1.44-.62,6.59,6.59,0,0,1,1.67-.21,7.59,7.59,0,0,1,2.73.46v2.18a4.62,4.62,0,0,0-2.67-.8,3.67,3.67,0,0,0-.85.1,1.93,1.93,0,0,0-.65.27,1.27,1.27,0,0,0-.42.41,1,1,0,0,0-.15.53,1.17,1.17,0,0,0,.15.61,1.33,1.33,0,0,0,.45.43,3.13,3.13,0,0,0,.71.34c.27.11.59.22.95.34s.89.39,1.27.59a4.14,4.14,0,0,1,1,.69,2.58,2.58,0,0,1,.61.88,2.86,2.86,0,0,1,.22,1.18,2.68,2.68,0,0,1-.39,1.46,3.3,3.3,0,0,1-1,1,4.85,4.85,0,0,1-1.49.6,7.3,7.3,0,0,1-1.78.2A7.49,7.49,0,0,1,393.18,257.19Z" fill="#1d1d1b"/>
      <path d="M415.2,257.42a4.38,4.38,0,0,1-1.92.36q-3.21,0-3.21-3.07v-6.22h-1.83v-2h1.83V244l2.5-.71v3.25h2.63v2h-2.63V254a2.23,2.23,0,0,0,.35,1.4,1.5,1.5,0,0,0,1.18.41,1.73,1.73,0,0,0,1.1-.36Z" fill="#1d1d1b"/>
      <path d="M422.1,257.79a5.44,5.44,0,0,1-4.07-1.54,5.59,5.59,0,0,1-1.52-4.09,5.41,5.41,0,0,1,5.85-5.88,5.28,5.28,0,0,1,4,1.51,5.85,5.85,0,0,1,1.44,4.2,5.79,5.79,0,0,1-1.55,4.22A5.61,5.61,0,0,1,422.1,257.79Zm.11-9.53a2.86,2.86,0,0,0-2.31,1,4.31,4.31,0,0,0-.84,2.82,4,4,0,0,0,.85,2.72,2.9,2.9,0,0,0,2.3,1,2.76,2.76,0,0,0,2.27-1,4.36,4.36,0,0,0,.78-2.78,4.45,4.45,0,0,0-.78-2.81A2.75,2.75,0,0,0,422.21,248.26Z" fill="#1d1d1b"/>
      <path d="M187,281a6.11,6.11,0,0,1-3.12.76,5.29,5.29,0,0,1-4-1.53,5.39,5.39,0,0,1-1.51-4,6,6,0,0,1,1.62-4.37,5.81,5.81,0,0,1,4.32-1.64,6.38,6.38,0,0,1,2.66.52v2.32a4.06,4.06,0,0,0-2.45-.86,3.4,3.4,0,0,0-2.59,1.07,3.88,3.88,0,0,0-1,2.8,3.71,3.71,0,0,0,.95,2.7,3.35,3.35,0,0,0,2.55,1,4,4,0,0,0,2.53-.95Z" fill="#1d1d1b"/>
      <path d="M194.31,281.79a5.42,5.42,0,0,1-4.06-1.54,5.55,5.55,0,0,1-1.52-4.09,5.78,5.78,0,0,1,1.58-4.33,5.86,5.86,0,0,1,4.27-1.55,5.28,5.28,0,0,1,4,1.51A5.85,5.85,0,0,1,200,276a5.75,5.75,0,0,1-1.56,4.22A5.58,5.58,0,0,1,194.31,281.79Zm.12-9.53a2.86,2.86,0,0,0-2.31,1,4.26,4.26,0,0,0-.85,2.82,4,4,0,0,0,.86,2.72,2.89,2.89,0,0,0,2.3,1,2.74,2.74,0,0,0,2.26-1,4.3,4.3,0,0,0,.79-2.78,4.39,4.39,0,0,0-.79-2.81A2.73,2.73,0,0,0,194.43,272.26Z" fill="#1d1d1b"/>
      <path d="M207.45,281.79a5.46,5.46,0,0,1-4.07-1.54,5.59,5.59,0,0,1-1.52-4.09,5.78,5.78,0,0,1,1.59-4.33,5.85,5.85,0,0,1,4.27-1.55,5.28,5.28,0,0,1,4,1.51,5.89,5.89,0,0,1,1.44,4.2,5.75,5.75,0,0,1-1.56,4.22A5.58,5.58,0,0,1,207.45,281.79Zm.12-9.53a2.83,2.83,0,0,0-2.31,1,4.26,4.26,0,0,0-.85,2.82,4,4,0,0,0,.86,2.72,2.89,2.89,0,0,0,2.3,1,2.74,2.74,0,0,0,2.26-1,4.36,4.36,0,0,0,.79-2.78,4.45,4.45,0,0,0-.79-2.81A2.73,2.73,0,0,0,207.57,272.26Z" fill="#1d1d1b"/>
      <path d="M218.21,281.53h-2.5V265.25h2.5Z" fill="#1d1d1b"/>
      <path d="M233.31,281.42a4.4,4.4,0,0,1-1.93.36q-3.19,0-3.2-3.07v-6.22h-1.83v-2h1.83V268l2.49-.71v3.25h2.64v2h-2.64V278a2.16,2.16,0,0,0,.36,1.4,1.5,1.5,0,0,0,1.18.41,1.75,1.75,0,0,0,1.1-.36Z" fill="#1d1d1b"/>
      <path d="M245.23,281.53h-2.49v-6c0-2.18-.73-3.27-2.18-3.27a2.29,2.29,0,0,0-1.85.95,3.75,3.75,0,0,0-.75,2.41v5.92h-2.51V265.25H238v7.11h0a3.93,3.93,0,0,1,3.57-2.08q3.66,0,3.66,4.48Z" fill="#1d1d1b"/>
      <path d="M257.57,276.71h-7.5a3.19,3.19,0,0,0,.94,2.35,3.51,3.51,0,0,0,2.47.83,5.44,5.44,0,0,0,3.23-1.05v2a7.36,7.36,0,0,1-4,.94,4.92,4.92,0,0,1-3.81-1.5,6,6,0,0,1-1.38-4.21,5.9,5.9,0,0,1,1.52-4.19,5,5,0,0,1,3.78-1.61,4.34,4.34,0,0,1,3.49,1.45,6,6,0,0,1,1.23,4Zm-2.4-1.76a3.2,3.2,0,0,0-.64-2.09,2.11,2.11,0,0,0-1.72-.75,2.41,2.41,0,0,0-1.82.79,3.58,3.58,0,0,0-.92,2.05Z" fill="#1d1d1b"/>
      <path d="M268.53,279.94h0v1.59H266V265.25h2.5v7.22h0a4.08,4.08,0,0,1,3.74-2.19,4,4,0,0,1,3.26,1.47,6.22,6.22,0,0,1,1.17,4,6.89,6.89,0,0,1-1.32,4.42,4.35,4.35,0,0,1-3.61,1.66A3.53,3.53,0,0,1,268.53,279.94Zm-.06-4.37v1.37a2.92,2.92,0,0,0,.76,2,2.73,2.73,0,0,0,4.13-.24,5.09,5.09,0,0,0,.79-3,4,4,0,0,0-.74-2.54,2.42,2.42,0,0,0-2-.92,2.68,2.68,0,0,0-2.14.95A3.46,3.46,0,0,0,268.47,275.57Z" fill="#1d1d1b"/>
      <path d="M284.13,281.79a5.44,5.44,0,0,1-4.07-1.54,5.59,5.59,0,0,1-1.52-4.09,5.43,5.43,0,0,1,5.86-5.88,5.27,5.27,0,0,1,4,1.51,5.85,5.85,0,0,1,1.44,4.2,5.75,5.75,0,0,1-1.55,4.22A5.59,5.59,0,0,1,284.13,281.79Zm.12-9.53a2.83,2.83,0,0,0-2.31,1,4.26,4.26,0,0,0-.85,2.82,4,4,0,0,0,.86,2.72,2.89,2.89,0,0,0,2.3,1,2.74,2.74,0,0,0,2.26-1,4.36,4.36,0,0,0,.79-2.78,4.45,4.45,0,0,0-.79-2.81A2.73,2.73,0,0,0,284.25,272.26Z" fill="#1d1d1b"/>
      <path d="M302.39,281.53H299.9v-1.87h0a4.29,4.29,0,0,1-7,.65,6.13,6.13,0,0,1-1.22-4,6.67,6.67,0,0,1,1.35-4.37,4.39,4.39,0,0,1,3.59-1.64,3.43,3.43,0,0,1,3.23,1.78h0v-6.81h2.49Zm-2.46-5v-1.44a2.8,2.8,0,0,0-.76-2,2.57,2.57,0,0,0-1.95-.82,2.63,2.63,0,0,0-2.2,1.05,4.63,4.63,0,0,0-.79,2.88,4.18,4.18,0,0,0,.76,2.65,2.49,2.49,0,0,0,2.07,1,2.59,2.59,0,0,0,2.07-.93A3.56,3.56,0,0,0,299.93,276.51Z" fill="#1d1d1b"/>
      <path d="M315.17,270.53l-5,12.77q-1.54,3.4-4.34,3.41a5.36,5.36,0,0,1-1.31-.14V284.5a3.41,3.41,0,0,0,1.07.19,2.23,2.23,0,0,0,2.09-1.37l.74-1.81-4.37-11h2.76l2.62,8c0,.1.09.36.19.79h.06c0-.16.1-.42.19-.77l2.75-8Z" fill="#1d1d1b"/>
      <path d="M332.88,281.53h-2.5v-1.87h0a4.29,4.29,0,0,1-6.95.65,6.07,6.07,0,0,1-1.22-4,6.67,6.67,0,0,1,1.34-4.37,4.41,4.41,0,0,1,3.6-1.64,3.43,3.43,0,0,1,3.23,1.78h0v-6.81h2.5Zm-2.46-5v-1.44a2.8,2.8,0,0,0-.77-2,2.55,2.55,0,0,0-1.94-.82,2.63,2.63,0,0,0-2.2,1.05,4.63,4.63,0,0,0-.8,2.88,4.18,4.18,0,0,0,.77,2.65,2.49,2.49,0,0,0,2.07,1,2.59,2.59,0,0,0,2.07-.93A3.56,3.56,0,0,0,330.42,276.51Z" fill="#1d1d1b"/>
      <path d="M341,281.79a5.44,5.44,0,0,1-4.07-1.54,5.59,5.59,0,0,1-1.52-4.09,5.78,5.78,0,0,1,1.59-4.33,5.85,5.85,0,0,1,4.27-1.55,5.27,5.27,0,0,1,4,1.51,5.85,5.85,0,0,1,1.44,4.2,5.75,5.75,0,0,1-1.55,4.22A5.59,5.59,0,0,1,341,281.79Zm.12-9.53a2.83,2.83,0,0,0-2.31,1,4.26,4.26,0,0,0-.85,2.82,4,4,0,0,0,.86,2.72,2.89,2.89,0,0,0,2.3,1,2.74,2.74,0,0,0,2.26-1,4.36,4.36,0,0,0,.79-2.78,4.45,4.45,0,0,0-.79-2.81A2.73,2.73,0,0,0,341.13,272.26Z" fill="#1d1d1b"/>
      <path d="M364.06,270.53l-3.24,11h-2.61l-2-7.45a4.59,4.59,0,0,1-.15-1H356a3.85,3.85,0,0,1-.19.95l-2.17,7.47h-2.56l-3.23-11h2.58l2,7.93a5.88,5.88,0,0,1,.13,1h.07a5.21,5.21,0,0,1,.17-1l2.23-7.91h2.34l2,8a4.47,4.47,0,0,1,.14.95h.08a4.94,4.94,0,0,1,.16-.95l2-8Z" fill="#1d1d1b"/>
      <path d="M375.7,281.53h-2.49v-6.19c0-2.06-.72-3.09-2.18-3.09a2.39,2.39,0,0,0-1.88.86,3.17,3.17,0,0,0-.74,2.15v6.27h-2.5v-11h2.5v1.83h0a3.93,3.93,0,0,1,3.57-2.08,3.31,3.31,0,0,1,2.74,1.16,5.24,5.24,0,0,1,.94,3.37Z" fill="#1d1d1b"/>
      <path d="M381.08,279l-1.67,5.36h-1.87l1.18-5.36Z" fill="#1d1d1b"/>
      <path d="M404.89,270.53l-3.24,11H399l-2-7.45a4.59,4.59,0,0,1-.15-1h0a4.5,4.5,0,0,1-.2.95l-2.17,7.47h-2.55l-3.24-11h2.58l2,7.93a4.94,4.94,0,0,1,.13,1h.07a5.21,5.21,0,0,1,.17-1l2.23-7.91h2.34l2,8a6.27,6.27,0,0,1,.14.95h.07a5.87,5.87,0,0,1,.16-.95l2-8Z" fill="#1d1d1b"/>
      <path d="M416.51,281.53H414v-6c0-2.18-.72-3.27-2.18-3.27a2.29,2.29,0,0,0-1.85.95,3.75,3.75,0,0,0-.75,2.41v5.92h-2.5V265.25h2.5v7.11h0a3.94,3.94,0,0,1,3.57-2.08q3.66,0,3.66,4.48Z" fill="#1d1d1b"/>
      <path d="M420.8,268.22a1.52,1.52,0,0,1-1.05-.39,1.31,1.31,0,0,1-.43-1,1.33,1.33,0,0,1,.43-1,1.45,1.45,0,0,1,1.05-.41,1.48,1.48,0,0,1,1.07.41,1.31,1.31,0,0,1,.44,1,1.29,1.29,0,0,1-.44,1A1.48,1.48,0,0,1,420.8,268.22ZM422,281.53h-2.5v-11H422Z" fill="#1d1d1b"/>
      <path d="M433.16,281a6.11,6.11,0,0,1-3.12.76,5.29,5.29,0,0,1-4-1.53,5.39,5.39,0,0,1-1.51-4,6,6,0,0,1,1.62-4.37,5.81,5.81,0,0,1,4.32-1.64,6.38,6.38,0,0,1,2.66.52v2.32a4.06,4.06,0,0,0-2.45-.86,3.4,3.4,0,0,0-2.59,1.07,3.88,3.88,0,0,0-1,2.8,3.71,3.71,0,0,0,.95,2.7,3.35,3.35,0,0,0,2.55,1,4,4,0,0,0,2.53-.95Z" fill="#1d1d1b"/>
      <path d="M445.41,281.53h-2.49v-6c0-2.18-.73-3.27-2.18-3.27a2.29,2.29,0,0,0-1.85.95,3.75,3.75,0,0,0-.75,2.41v5.92h-2.5V265.25h2.5v7.11h0a3.93,3.93,0,0,1,3.57-2.08q3.66,0,3.66,4.48Z" fill="#1d1d1b"/>
      <path d="M179.93,292.22a1.52,1.52,0,0,1-1.05-.39,1.31,1.31,0,0,1-.43-1,1.33,1.33,0,0,1,.43-1,1.45,1.45,0,0,1,1.05-.41,1.48,1.48,0,0,1,1.07.41,1.31,1.31,0,0,1,.44,1,1.29,1.29,0,0,1-.44,1A1.48,1.48,0,0,1,179.93,292.22Zm1.23,13.31h-2.49v-11h2.49Z" fill="#1d1d1b"/>
      <path d="M183.73,305.19v-2.31a5,5,0,0,0,3.08,1.06c1.51,0,2.26-.44,2.26-1.33a1.05,1.05,0,0,0-.19-.64,1.85,1.85,0,0,0-.53-.46,3.68,3.68,0,0,0-.77-.37l-1-.37a9.27,9.27,0,0,1-1.22-.56,3.57,3.57,0,0,1-.9-.69,2.69,2.69,0,0,1-.55-.86,3.23,3.23,0,0,1-.18-1.13,2.6,2.6,0,0,1,.38-1.4,3.08,3.08,0,0,1,1-1,4.46,4.46,0,0,1,1.44-.62,6.51,6.51,0,0,1,1.66-.21,7.51,7.51,0,0,1,2.73.46v2.18a4.59,4.59,0,0,0-2.66-.8,3.76,3.76,0,0,0-.86.1,2,2,0,0,0-.65.27,1.27,1.27,0,0,0-.42.41,1,1,0,0,0-.15.53,1.17,1.17,0,0,0,.15.61,1.33,1.33,0,0,0,.45.43,3.35,3.35,0,0,0,.71.34c.27.11.59.22.95.34s.9.39,1.27.59a3.94,3.94,0,0,1,1,.69,2.6,2.6,0,0,1,.62.88,3,3,0,0,1,.21,1.18,2.68,2.68,0,0,1-.39,1.46,3.2,3.2,0,0,1-1,1,4.75,4.75,0,0,1-1.49.6,7.28,7.28,0,0,1-1.77.2A7.5,7.5,0,0,1,183.73,305.19Z" fill="#1d1d1b"/>
      <path d="M210,304.65q0,6.06-6.09,6.06a9.09,9.09,0,0,1-3.75-.72v-2.28a7,7,0,0,0,3.43,1q3.91,0,3.92-3.86v-1.2h0a4.34,4.34,0,0,1-7,.64,5.94,5.94,0,0,1-1.23-3.94,7,7,0,0,1,1.32-4.46,4.39,4.39,0,0,1,3.63-1.65,3.5,3.5,0,0,1,3.24,1.78h0v-1.53H210Zm-2.47-4.15v-1.43a2.78,2.78,0,0,0-.77-2,2.53,2.53,0,0,0-1.91-.82,2.63,2.63,0,0,0-2.22,1.05,4.75,4.75,0,0,0-.8,2.93,4,4,0,0,0,.77,2.59,2.45,2.45,0,0,0,2,1,2.68,2.68,0,0,0,2.1-.92A3.55,3.55,0,0,0,207.49,300.5Z" fill="#1d1d1b"/>
      <path d="M219.59,296.91a2.05,2.05,0,0,0-1.3-.36,2.25,2.25,0,0,0-1.85,1,4.5,4.5,0,0,0-.74,2.72v5.26h-2.49v-11h2.49v2.27h0a3.92,3.92,0,0,1,1.12-1.81,2.57,2.57,0,0,1,1.7-.65,2.18,2.18,0,0,1,1,.2Z" fill="#1d1d1b"/>
      <path d="M230.47,300.71H223a3.15,3.15,0,0,0,.94,2.35,3.51,3.51,0,0,0,2.47.83,5.44,5.44,0,0,0,3.23-1.05v2a7.38,7.38,0,0,1-4,.94,4.92,4.92,0,0,1-3.81-1.5,6,6,0,0,1-1.38-4.21,5.85,5.85,0,0,1,1.52-4.19,5,5,0,0,1,3.77-1.61,4.31,4.31,0,0,1,3.49,1.45,6,6,0,0,1,1.24,4ZM228.06,299a3.14,3.14,0,0,0-.63-2.09,2.12,2.12,0,0,0-1.72-.75,2.39,2.39,0,0,0-1.82.79A3.58,3.58,0,0,0,223,299Z" fill="#1d1d1b"/>
      <path d="M241.29,305.53h-2.42v-1.72h0a3.65,3.65,0,0,1-3.34,2,3.49,3.49,0,0,1-2.54-.88,3.05,3.05,0,0,1-.92-2.33c0-2.08,1.19-3.29,3.59-3.63l3.26-.46c0-1.57-.74-2.36-2.23-2.36a5.33,5.33,0,0,0-3.55,1.36v-2.18a7.71,7.71,0,0,1,4-1c2.78,0,4.17,1.36,4.17,4.1Zm-2.41-5.4-2.31.32A3.85,3.85,0,0,0,235,301a1.53,1.53,0,0,0-.54,1.34,1.48,1.48,0,0,0,.5,1.15,2,2,0,0,0,1.34.44,2.46,2.46,0,0,0,1.88-.8,2.81,2.81,0,0,0,.75-2Z" fill="#1d1d1b"/>
      <path d="M250.13,305.42a4.38,4.38,0,0,1-1.92.36q-3.21,0-3.21-3.07v-6.22h-1.83v-2H245V292l2.5-.71v3.25h2.63v2H247.5V302a2.16,2.16,0,0,0,.35,1.4,1.5,1.5,0,0,0,1.18.41,1.75,1.75,0,0,0,1.1-.36Z" fill="#1d1d1b"/>
      <path d="M264.54,291.28a2.27,2.27,0,0,0-1.14-.29c-1.22,0-1.82.68-1.82,2.05v1.49h2.56v2h-2.55v9H259.1v-9h-1.88v-2h1.88v-1.78a3.46,3.46,0,0,1,1.14-2.74,4.13,4.13,0,0,1,2.84-1,4.07,4.07,0,0,1,1.46.21Z" fill="#1d1d1b"/>
      <path d="M270.79,305.79a5.44,5.44,0,0,1-4.07-1.54,5.59,5.59,0,0,1-1.52-4.09,5.41,5.41,0,0,1,5.85-5.88,5.28,5.28,0,0,1,4,1.51,5.85,5.85,0,0,1,1.44,4.2,5.79,5.79,0,0,1-1.55,4.22A5.61,5.61,0,0,1,270.79,305.79Zm.11-9.53a2.86,2.86,0,0,0-2.31,1,4.31,4.31,0,0,0-.84,2.82,4,4,0,0,0,.85,2.72,2.9,2.9,0,0,0,2.3,1,2.73,2.73,0,0,0,2.26-1,4.3,4.3,0,0,0,.79-2.78,4.39,4.39,0,0,0-.79-2.81A2.71,2.71,0,0,0,270.9,296.26Z" fill="#1d1d1b"/>
      <path d="M285.43,296.91a2.05,2.05,0,0,0-1.3-.36,2.24,2.24,0,0,0-1.85,1,4.5,4.5,0,0,0-.74,2.72v5.26h-2.49v-11h2.49v2.27h0A3.84,3.84,0,0,1,282.7,295a2.57,2.57,0,0,1,1.7-.65,2.18,2.18,0,0,1,1,.2Z" fill="#1d1d1b"/>
      <path d="M299,305.42a4.4,4.4,0,0,1-1.93.36q-3.19,0-3.2-3.07v-6.22h-1.83v-2h1.83V292l2.5-.71v3.25H299v2h-2.63V302a2.16,2.16,0,0,0,.35,1.4,1.5,1.5,0,0,0,1.18.41,1.75,1.75,0,0,0,1.1-.36Z" fill="#1d1d1b"/>
      <path d="M311,305.53h-2.49v-6c0-2.18-.73-3.27-2.18-3.27a2.29,2.29,0,0,0-1.85.95,3.75,3.75,0,0,0-.75,2.41v5.92h-2.5V289.25h2.5v7.11h0a3.93,3.93,0,0,1,3.57-2.08q3.66,0,3.66,4.48Z" fill="#1d1d1b"/>
      <path d="M323.3,300.71h-7.49a3.12,3.12,0,0,0,.94,2.35,3.49,3.49,0,0,0,2.46.83,5.42,5.42,0,0,0,3.23-1.05v2a7.36,7.36,0,0,1-4,.94,4.92,4.92,0,0,1-3.81-1.5,6,6,0,0,1-1.38-4.21,5.9,5.9,0,0,1,1.52-4.19,5,5,0,0,1,3.78-1.61,4.32,4.32,0,0,1,3.49,1.45,6,6,0,0,1,1.23,4ZM320.9,299a3.2,3.2,0,0,0-.64-2.09,2.09,2.09,0,0,0-1.71-.75,2.42,2.42,0,0,0-1.83.79,3.57,3.57,0,0,0-.91,2.05Z" fill="#1d1d1b"/>
      <path d="M334.26,303.94h0v1.59h-2.49V289.25h2.49v7.22h0a4.08,4.08,0,0,1,3.74-2.19,3.94,3.94,0,0,1,3.26,1.47,6.22,6.22,0,0,1,1.18,4,6.83,6.83,0,0,1-1.33,4.42,4.34,4.34,0,0,1-3.6,1.66A3.53,3.53,0,0,1,334.26,303.94Zm-.06-4.37v1.37a2.88,2.88,0,0,0,.77,2,2.51,2.51,0,0,0,1.94.83,2.54,2.54,0,0,0,2.18-1.07,5,5,0,0,0,.79-3,4,4,0,0,0-.74-2.54,2.42,2.42,0,0,0-2-.92,2.68,2.68,0,0,0-2.14.95A3.5,3.5,0,0,0,334.2,299.57Z" fill="#1d1d1b"/>
      <path d="M349.86,305.79a5.46,5.46,0,0,1-4.07-1.54,5.59,5.59,0,0,1-1.52-4.09,5.78,5.78,0,0,1,1.59-4.33,5.85,5.85,0,0,1,4.27-1.55,5.28,5.28,0,0,1,4,1.51,5.89,5.89,0,0,1,1.43,4.2,5.75,5.75,0,0,1-1.55,4.22A5.58,5.58,0,0,1,349.86,305.79Zm.12-9.53a2.83,2.83,0,0,0-2.31,1,4.26,4.26,0,0,0-.85,2.82,4,4,0,0,0,.86,2.72,2.89,2.89,0,0,0,2.3,1,2.74,2.74,0,0,0,2.26-1,4.36,4.36,0,0,0,.79-2.78,4.45,4.45,0,0,0-.79-2.81A2.73,2.73,0,0,0,350,296.26Z" fill="#1d1d1b"/>
      <path d="M368.12,305.53h-2.49v-1.87h0a4.3,4.3,0,0,1-7,.65,6.13,6.13,0,0,1-1.22-4,6.67,6.67,0,0,1,1.35-4.37,4.39,4.39,0,0,1,3.59-1.64,3.46,3.46,0,0,1,3.24,1.78h0v-6.81h2.49Zm-2.46-5v-1.44a2.8,2.8,0,0,0-.76-2,2.77,2.77,0,0,0-4.14.23,4.57,4.57,0,0,0-.8,2.88,4.18,4.18,0,0,0,.76,2.65,2.51,2.51,0,0,0,2.07,1,2.6,2.6,0,0,0,2.08-.93A3.55,3.55,0,0,0,365.66,300.51Z" fill="#1d1d1b"/>
      <path d="M380.9,294.53l-5,12.77q-1.54,3.4-4.34,3.41a5.36,5.36,0,0,1-1.31-.14V308.5a3.41,3.41,0,0,0,1.07.19,2.22,2.22,0,0,0,2.09-1.37l.74-1.81-4.37-11h2.76l2.62,8c0,.1.09.36.19.79h.06c0-.16.1-.42.19-.77l2.75-8Z" fill="#1d1d1b"/>
      <path d="M385.52,289.83l-1.75,4.78h-1.64l1.21-4.78Z" fill="#1d1d1b"/>
      <path d="M386,305.19v-2.31a5,5,0,0,0,3.08,1.06c1.5,0,2.26-.44,2.26-1.33a1.06,1.06,0,0,0-.2-.64,1.81,1.81,0,0,0-.52-.46,3.94,3.94,0,0,0-.77-.37l-1-.37a9.91,9.91,0,0,1-1.22-.56,3.57,3.57,0,0,1-.9-.69,2.5,2.5,0,0,1-.54-.86,3.23,3.23,0,0,1-.18-1.13,2.59,2.59,0,0,1,.37-1.4,3.17,3.17,0,0,1,1-1,4.65,4.65,0,0,1,1.44-.62,6.59,6.59,0,0,1,1.67-.21,7.59,7.59,0,0,1,2.73.46v2.18a4.62,4.62,0,0,0-2.67-.8,3.67,3.67,0,0,0-.85.1,1.93,1.93,0,0,0-.65.27,1.27,1.27,0,0,0-.42.41,1,1,0,0,0-.15.53,1.17,1.17,0,0,0,.15.61,1.33,1.33,0,0,0,.45.43,3.26,3.26,0,0,0,.7.34c.28.11.6.22,1,.34s.89.39,1.27.59a4.37,4.37,0,0,1,1,.69,2.58,2.58,0,0,1,.61.88,2.86,2.86,0,0,1,.22,1.18,2.68,2.68,0,0,1-.39,1.46,3.3,3.3,0,0,1-1,1,4.85,4.85,0,0,1-1.49.6,7.3,7.3,0,0,1-1.78.2A7.49,7.49,0,0,1,386,305.19Z" fill="#1d1d1b"/>
      <path d="M412.25,304.65q0,6.06-6.09,6.06a9.09,9.09,0,0,1-3.75-.72v-2.28a6.93,6.93,0,0,0,3.43,1q3.92,0,3.92-3.86v-1.2h-.05a4.33,4.33,0,0,1-6.95.64,5.94,5.94,0,0,1-1.23-3.94,7,7,0,0,1,1.32-4.46,4.39,4.39,0,0,1,3.63-1.65,3.48,3.48,0,0,1,3.23,1.78h.05v-1.53h2.49Zm-2.47-4.15v-1.43a2.82,2.82,0,0,0-.77-2,2.54,2.54,0,0,0-1.92-.82,2.62,2.62,0,0,0-2.21,1.05,4.68,4.68,0,0,0-.81,2.93,4.07,4.07,0,0,0,.77,2.59,2.46,2.46,0,0,0,2,1,2.64,2.64,0,0,0,2.09-.92A3.5,3.5,0,0,0,409.78,300.5Z" fill="#1d1d1b"/>
      <path d="M424.81,300.71h-7.5a3.15,3.15,0,0,0,.94,2.35,3.5,3.5,0,0,0,2.46.83,5.45,5.45,0,0,0,3.24-1.05v2a7.42,7.42,0,0,1-4,.94,4.93,4.93,0,0,1-3.81-1.5,6,6,0,0,1-1.38-4.21,5.86,5.86,0,0,1,1.53-4.19,5,5,0,0,1,3.77-1.61,4.32,4.32,0,0,1,3.49,1.45,6,6,0,0,1,1.24,4ZM422.4,299a3.25,3.25,0,0,0-.63-2.09,2.12,2.12,0,0,0-1.72-.75,2.39,2.39,0,0,0-1.82.79,3.51,3.51,0,0,0-.92,2.05Z" fill="#1d1d1b"/>
      <path d="M437,305.53h-2.49v-6.19c0-2.06-.73-3.09-2.18-3.09a2.38,2.38,0,0,0-1.88.86,3.13,3.13,0,0,0-.75,2.15v6.27h-2.5v-11h2.5v1.83h.05a3.91,3.91,0,0,1,3.56-2.08,3.31,3.31,0,0,1,2.74,1.16,5.24,5.24,0,0,1,1,3.37Z" fill="#1d1d1b"/>
      <path d="M445.81,300.44h-5.87V298.6h5.87Z" fill="#1d1d1b"/>
      <path d="M245.52,324.71H238a3.15,3.15,0,0,0,.94,2.35,3.49,3.49,0,0,0,2.46.83,5.47,5.47,0,0,0,3.24-1.05v2a7.42,7.42,0,0,1-4,.94,4.92,4.92,0,0,1-3.81-1.5,6,6,0,0,1-1.38-4.21,5.9,5.9,0,0,1,1.52-4.19,5,5,0,0,1,3.78-1.61,4.32,4.32,0,0,1,3.49,1.45,6,6,0,0,1,1.23,4Zm-2.4-1.76a3.2,3.2,0,0,0-.64-2.09,2.09,2.09,0,0,0-1.71-.75,2.38,2.38,0,0,0-1.82.79A3.51,3.51,0,0,0,238,323Z" fill="#1d1d1b"/>
      <path d="M254.28,320.91a2,2,0,0,0-1.3-.36,2.25,2.25,0,0,0-1.85,1,4.5,4.5,0,0,0-.74,2.72v5.26H247.9v-11h2.49v2.27h0a3.85,3.85,0,0,1,1.13-1.81,2.54,2.54,0,0,1,1.69-.65,2.18,2.18,0,0,1,1,.2Z" fill="#1d1d1b"/>
      <path d="M264.48,329.53h-2.41v-1.72H262a3.63,3.63,0,0,1-3.34,2,3.52,3.52,0,0,1-2.54-.88,3.08,3.08,0,0,1-.91-2.33q0-3.12,3.58-3.63l3.27-.46c0-1.57-.75-2.36-2.24-2.36a5.31,5.31,0,0,0-3.54,1.36v-2.18a7.71,7.71,0,0,1,4-1c2.78,0,4.16,1.36,4.16,4.1Zm-2.4-5.4-2.31.32a3.8,3.8,0,0,0-1.62.52,1.53,1.53,0,0,0-.54,1.34,1.48,1.48,0,0,0,.5,1.15,2,2,0,0,0,1.34.44,2.47,2.47,0,0,0,1.88-.8,2.81,2.81,0,0,0,.75-2Z" fill="#1d1d1b"/>
      <path d="M270,329.53h-2.51V313.25H270Z" fill="#1d1d1b"/>
      <path d="M281.85,327.94h0v1.59h-2.49V313.25h2.49v7.22h0a4.1,4.1,0,0,1,3.74-2.19,3.94,3.94,0,0,1,3.26,1.47,6.17,6.17,0,0,1,1.18,4,6.89,6.89,0,0,1-1.32,4.42,4.36,4.36,0,0,1-3.61,1.66A3.55,3.55,0,0,1,281.85,327.94Zm-.06-4.37v1.37a2.93,2.93,0,0,0,.77,2,2.72,2.72,0,0,0,4.12-.24,5,5,0,0,0,.79-3,4,4,0,0,0-.73-2.54,2.44,2.44,0,0,0-2-.92,2.69,2.69,0,0,0-2.14.95A3.5,3.5,0,0,0,281.79,323.57Z" fill="#1d1d1b"/>
      <path d="M295.08,329.53h-2.5V313.25h2.5Z" fill="#1d1d1b"/>
      <path d="M303.2,329.79a5.42,5.42,0,0,1-4.06-1.54,5.55,5.55,0,0,1-1.53-4.09,5.78,5.78,0,0,1,1.59-4.33,5.85,5.85,0,0,1,4.27-1.55,5.28,5.28,0,0,1,4,1.51,5.85,5.85,0,0,1,1.44,4.2,5.75,5.75,0,0,1-1.56,4.22A5.58,5.58,0,0,1,303.2,329.79Zm.12-9.53a2.83,2.83,0,0,0-2.31,1,4.26,4.26,0,0,0-.85,2.82,4,4,0,0,0,.86,2.72,2.89,2.89,0,0,0,2.3,1,2.74,2.74,0,0,0,2.26-1,4.3,4.3,0,0,0,.79-2.78,4.39,4.39,0,0,0-.79-2.81A2.73,2.73,0,0,0,303.32,320.26Z" fill="#1d1d1b"/>
      <path d="M316.34,329.79a5.44,5.44,0,0,1-4.07-1.54,5.59,5.59,0,0,1-1.52-4.09,5.78,5.78,0,0,1,1.59-4.33,5.85,5.85,0,0,1,4.27-1.55,5.27,5.27,0,0,1,4,1.51,5.85,5.85,0,0,1,1.44,4.2,5.75,5.75,0,0,1-1.55,4.22A5.59,5.59,0,0,1,316.34,329.79Zm.12-9.53a2.83,2.83,0,0,0-2.31,1,4.26,4.26,0,0,0-.85,2.82,4,4,0,0,0,.86,2.72,2.89,2.89,0,0,0,2.3,1,2.74,2.74,0,0,0,2.26-1,4.36,4.36,0,0,0,.79-2.78,4.45,4.45,0,0,0-.79-2.81A2.73,2.73,0,0,0,316.46,320.26Z" fill="#1d1d1b"/>
      <path d="M334.6,329.53h-2.49v-1.87h-.05a4.29,4.29,0,0,1-6.95.65,6.13,6.13,0,0,1-1.22-4,6.67,6.67,0,0,1,1.35-4.37,4.39,4.39,0,0,1,3.59-1.64,3.43,3.43,0,0,1,3.23,1.78h.05v-6.81h2.49Zm-2.46-5v-1.44a2.8,2.8,0,0,0-.76-2,2.77,2.77,0,0,0-4.14.23,4.57,4.57,0,0,0-.8,2.88,4.18,4.18,0,0,0,.76,2.65,2.5,2.5,0,0,0,2.07,1,2.59,2.59,0,0,0,2.07-.93A3.56,3.56,0,0,0,332.14,324.51Z" fill="#1d1d1b"/>
      <path d="M350.12,315.28A2.31,2.31,0,0,0,349,315c-1.21,0-1.81.68-1.81,2.05v1.49h2.55v2h-2.54v9h-2.49v-9H342.8v-2h1.88v-1.78a3.49,3.49,0,0,1,1.13-2.74,4.16,4.16,0,0,1,2.85-1,4.1,4.1,0,0,1,1.46.21Z" fill="#1d1d1b"/>
      <path d="M354,329.53h-2.5V313.25H354Z" fill="#1d1d1b"/>
      <path d="M362.11,329.79a5.46,5.46,0,0,1-4.07-1.54,5.59,5.59,0,0,1-1.52-4.09,5.78,5.78,0,0,1,1.59-4.33,5.85,5.85,0,0,1,4.27-1.55,5.28,5.28,0,0,1,4,1.51,5.85,5.85,0,0,1,1.44,4.2,5.75,5.75,0,0,1-1.56,4.22A5.58,5.58,0,0,1,362.11,329.79Zm.12-9.53a2.83,2.83,0,0,0-2.31,1,4.26,4.26,0,0,0-.85,2.82,4,4,0,0,0,.86,2.72,2.89,2.89,0,0,0,2.3,1,2.74,2.74,0,0,0,2.26-1,4.3,4.3,0,0,0,.79-2.78,4.39,4.39,0,0,0-.79-2.81A2.73,2.73,0,0,0,362.23,320.26Z" fill="#1d1d1b"/>
      <path d="M385.16,318.53l-3.24,11h-2.61l-2-7.45a4.59,4.59,0,0,1-.15-1h0a4.5,4.5,0,0,1-.2.95l-2.17,7.47H372.2l-3.24-11h2.58l2,7.93a4.94,4.94,0,0,1,.13,1h.07a5.28,5.28,0,0,1,.18-1l2.22-7.91h2.34l2,8a6.27,6.27,0,0,1,.14.95h.07a5.87,5.87,0,0,1,.16-.95l2-8Z" fill="#1d1d1b"/>
      <path d="M387,329.77a1.53,1.53,0,0,1-1.09-.42,1.39,1.39,0,0,1,0-2.05,1.5,1.5,0,0,1,1.09-.43,1.53,1.53,0,0,1,1.11.43,1.37,1.37,0,0,1,0,2.05A1.57,1.57,0,0,1,387,329.77Z" fill="#1d1d1b"/>
    </g>
  </g>
</svg>
