<svg xmlns="http://www.w3.org/2000/svg" xmlns:xlink="http://www.w3.org/1999/xlink" viewBox="0 0 595.28 536">
  <g id="txt_bubble_6">
    <image width="4248" height="3840" transform="translate(1.16) scale(0.14)" xlink:href="../layout_images/txt_bubble.png"/>
    <text transform="translate(191.84 209.53)" font-size="22" fill="#1d1d1b" font-family="SegoeUI-Semibold, Segoe UI" font-weight="600">Baths will ma<tspan x="131.96" y="0" letter-spacing="-0.02em">k</tspan><tspan x="143.12" y="0">e </tspan><tspan x="160.85" y="0" letter-spacing="-0.01em">y</tspan><tspan x="171.88" y="0">ou feel </tspan><tspan x="0.97" y="24">happie</tspan><tspan x="69.21" y="24" letter-spacing="-0.08em">r</tspan><tspan x="75.62" y="24">, the s</tspan><tspan x="134.95" y="24" letter-spacing="-0.01em">t</tspan><tspan x="142.77" y="24">eam f</tspan><tspan x="199.06" y="24" letter-spacing="-0.01em">r</tspan><tspan x="207.01" y="24">om </tspan><tspan x="4.4" y="48">the </tspan><tspan x="42.89" y="48" letter-spacing="-0.01em">b</tspan><tspan x="55.89" y="48">ath will open </tspan><tspan x="191.07" y="48" letter-spacing="-0.01em">y</tspan><tspan x="202.09" y="48">our </tspan><tspan x="-5.16" y="72">po</tspan><tspan x="21.23" y="72" letter-spacing="-0.01em">r</tspan><tspan x="29.18" y="72">es and wash away the </tspan><tspan x="6.33" y="96">da</tspan><tspan x="31.07" y="96" letter-spacing="-0.06em">y</tspan><tspan x="40.95" y="96">. Clean and happy - </tspan><tspan x="14.5" y="120">what mo</tspan><tspan x="102.05" y="120" letter-spacing="-0.01em">r</tspan><tspan x="110" y="120">e could </tspan><tspan x="189.11" y="120" letter-spacing="-0.01em">y</tspan><tspan x="200.13" y="120">ou </tspan><tspan x="91.32" y="144">wan</tspan><tspan x="132.28" y="144" letter-spacing="-0.03em">t</tspan><tspan x="139.52" y="144">? </tspan></text>
  </g>
</svg>
