<svg xmlns="http://www.w3.org/2000/svg" xmlns:xlink="http://www.w3.org/1999/xlink" viewBox="0 0 1500 1500">
  <g id="Layer_5" data-name="Layer 5" style="isolation: isolate">
    <path d="M201,808c16.35,3.32,29.55,16,42,24,4.42,2.82,11.06,3.89,14,8,4.61,6.46,5.88,15.52,10,22,3.34,5.25,13.17,12.7,14,19-3.43,2.86-2.15,6.33-4,11-1.64,4.16-5.81,9-7,13-1.61,5.39,2.87,15.55,3,25-8.52,5.94-31.49,34.5-49,23-16.66-4.67-26.23-26.7-19-49,1.59-4.91,6.42-8.44,8-13q1-9,2-18c6.37-27.3,3.08-42.12-14-58Z" fill="none" fill-rule="evenodd"/>
    <path d="M756,1055c16,2.69,30.6,6.55,46,11l17,1c15.49,5.7,27.44,8.15,27,30-2.48,3.33-1.77,8-4,12l-5,4c-2.15,3.62-1,6.86-3,11l-3,2c-2.92,7.08.57,23.77,2,28,4.16,12.34-6.25,36.45-12,39h-8c-8.81,7.69-34.49-.61-39-5-18.26-17.79-7.57-36.47-2-58,1.71-6.63-1.35-20.39-3-26v-14c-1.49-4.13-4.3-12-7-16-3.53-5.16-10.86-3-12-11,.8-1.18.77-1.68,1-4A25,25,0,0,0,756,1055Z" fill="none" fill-rule="evenodd"/>
  </g>
  <g id="shadow_Billede" data-name="shadow Billede">
    <image id="shadow_Billede-2" data-name="shadow Billede" width="689" height="394" transform="translate(405 553)" xlink:href="bathtubfeet_11.png"/>
  </g>
</svg>
