<svg xmlns="http://www.w3.org/2000/svg" xmlns:xlink="http://www.w3.org/1999/xlink" viewBox="0 0 1000 1000">
  <g id="shower" style="isolation: isolate">
    <path d="M534,167c-.34-5.32-3-8.77-2-14,1.88-9.34,6.44-20.22,13-25,2.36-1.72,5-2.09,7-4,22.09-.4,25.84,11,36,22,.76,9.32-.37,16.58-5,23-2.49,3.44-7,4.92-9,9,0,.92,2.29,4.26,3,7,1.6,6.14-3.5,6.84-2,13,.73,3,3.4,8.46,2,14-1.8,7.11-5.81,14.89-8,22-.28.91,2.93,8.54,3,12,.29,15.14-.76,32.87,1,41,2.06,9.51.87,27.07-1,35-1.42,6,1.37,29.87,2,33,1.82,9,.13,24.15-2,30v1h1c3.12,7.26,1.3,21.76,2,25,1.56,7.23-.89,16.68-2,21,5.12,15,1.41,40.19,4,51,1.4,5.84-.63,12.9-2,16,4.12,7.22,1.08,17.67,3,28,2,10.88,5.45,43.28,4,57-.64,6.09,2.53,12.73,0,17l3,2c1.39,3.41-.29,11-1,13,4.45,9.5,2.17,22.81,5,35,4.19,18,3.58,44.39,9,60,1.89,5.44,2.48,14.75,1,19,2.85,6.15,9.85,41.27,9,49-.66,6,5.11,12.92,1,17,2.28,2.43,8,22,4,25,5.2,5.12,4.42,16.09,5,30,.07,1.67-1.14,1.93-2,4-.13.32,2.76,5.71,2,9-1.39,6-1.77,13.47-4,20-4.62,13.55-17.82,40.94-29,53-14.8,16-53.09,45.81-82,25-19-13.7-19.88-33.94-25-62-4.62-25.35,4.35-55.3,2-93-.78-12.55.39-30.78,0-47-.06-2.45,2.24-6.48,2-10-.75-10.9-1.12-22.3,1-34,1.58-8.68-2-18,0-29,1.46-7.9.56-18.2,1-25h-1v-1l-20-1c-1.16-.52-.71-4.52-2-2-4.51,4.14-2.19,23.93-2,32,2.37,4.31-.66,13,0,19,1.55,14,4.17,59.68,0,81-23,11.65-24.93-2.62-24-27-4.69-1-27.19-8.28-29-11-3.2-4.79-1.23-36.53-1-45h2c9.32-6.09,18.93.24,28,1-.07-17.25-.13-36.33,1-52-3.6-1.09-4.46-3.63-7-5l-7-1c-8.62-3.26-14.13-8.13-20-14v-2c3.22-1.76,4.09-6,7-8a61.77,61.77,0,0,1,10-5c4.39-1.67,15.92-3,18-6V455c-2.74-1.94-2-2.68-7-3-3.34,5.53-17.27,4.34-24,4-1.6-1.85-1.78-.55-4-2-6-3.91-8-14-8-24a14.17,14.17,0,0,1,4-1c2.3,4.85,6.42,10.38,13,11,1.51-3,2.54-3.54,3-8-1.68-2.15-1.41-5.53-3-8-2.31-3.57-5.5-3.86-7-9,4.25-.12,9.49-.95,12-3,2.17-3.19,1-5.37,5-7,5.69-3.81,10.57,1.95,15,3,2.48-7.57,1-20.66,1-30V108a160.14,160.14,0,0,0-23-11c-2.59-1-6.62-.06-8-2V68c3.43-5.37.92-13.59,3-19a17.82,17.82,0,0,0,4-3c8,2,13.27,6.41,23,7,1.49-4.36,1.08-12.07,1-18,2.95-1.59,5.72-2.08,11-2,1.28-.61,7.13.36,10,1,4.85,9.38,2.11,39.2,2,53-3.16,5.15-1,19.72-1,27,0,19-1,39.67-1,60,0,75.82.06,156.45,0,229a28.89,28.89,0,0,0,9,1c4.19-2.7,13.94-3,19-4v-9c-1.54-2.52.07-26.92,1-33,4.36-28.68,1.2-61.94,7-90-10.69-6.62-23.23-20.78-26-35-1.82-9.32,5.07-18.58,8-24C486.32,189.92,507.15,168.77,534,167Z" fill="none" fill-rule="evenodd"/>
    <path d="M497,660c.21,13.76-.69,19.37-2,26-1,5.3,1.37,9.58-1,16-.12.33,2.66,6.57,2,10-1.29,6.72-.5,31.32-2,38q-.5,37-1,74c-2.2,10-3.67,46.3-2,55v26c5.89,24.15,13.23,62.82,53,46a96.36,96.36,0,0,0,17-10c43.28-31.32,50.08-89.55,35-147-.93-3.55-.24-8.85,0-10-4.8-15.21-4.09-25.6-8-40-4.37-16.1-2.54-31.84-6-48-5.33-24.94-3.79-51.3-11-80-1.94-7.72.2-17.55-1-23-3.11-14.1-.48-29-3-41-1.82-8.64-3.9-22.51-2-32,.93-4.62-1.34-11.17-2-14V485c-1-8.31-2-25.62-1-32,.93-5.94-1-27.93-2-31,3.58-6.77-.83-38.74,1-52,.74-5.36-1.86-10.8-2-15-.2-6.09,2.42-17.77,1-25-2.69-13.65-2.8-39.11-1-48,1.53-7.54-1.81-24.57,0-34h-5c-6.74,9.95-20.53,14.75-32,20-.3,9.28-3.06,16.31-5,23q-.5,16-1,32c-2.64,12.08-1.38,27.92-4,40v18a188.93,188.93,0,0,0-4,24c2.79.74,4.75,1.61,6,4,5.81,7.18,1.91,20.23,0,28-1.14.48-10.37,2.93-11,4v28c-4.1,7,1.58,18.82-1,31-3.74,17.66-1.92,55.57-3,74-.49,8.25-1.11,36.72,0,38,8,5.07,23.06,2.44,33,5,14.07,3.62,22.53,8.14,31,17l-2,6C545.28,649.66,520.23,658.72,497,660Z" fill="none" fill-rule="evenodd"/>
    <path d="M457,450V613c1.75.63,1,.19,2,1,7.38-1.43,18.06-1,27-1,1.6-52.75,5-116,5-168-2.09-1.12-1.83-1.43-5-2C482.06,445.73,462.55,449.49,457,450Z" fill="none" fill-rule="evenodd"/>
  </g>
  <g id="shadow_Billede" data-name="shadow Billede">
    <image id="shadow_Billede-2" data-name="shadow Billede" width="227" height="938" transform="translate(392 32)" xlink:href="shower1.png"/>
  </g>
</svg>
